SplineFontDB: 3.0
FontName: SortsMillGoudy-Regular
FullName: Sorts Mill Goudy Regular
FamilyName: Sorts Mill Goudy
Weight: Regular
Copyright: Copyright (c) 2010, Barry Schwartz (chemoelectric@chemoelectric.org)\n
Version: 003.101
ItalicAngle: 0
UnderlinePosition: -99
UnderlineWidth: 49
Ascent: 777
Descent: 223
LayerCount: 2
Layer: 0 1 "Back"  1
Layer: 1 1 "Fore"  0
NeedsXUIDChange: 1
XUID: [1021 288 713564382 9193524]
FSType: 0
OS2Version: 4
OS2_WeightWidthSlopeOnly: 0
OS2_UseTypoMetrics: 1
CreationTime: 1245830276
ModificationTime: 1314822651
PfmFamily: 17
TTFWeight: 400
TTFWidth: 5
LineGap: 0
VLineGap: 0
Panose: 2 0 5 3 0 0 0 0 0 0
OS2TypoAscent: 960
OS2TypoAOffset: 0
OS2TypoDescent: -478
OS2TypoDOffset: 0
OS2TypoLinegap: 0
OS2WinAscent: 960
OS2WinAOffset: 0
OS2WinDescent: 478
OS2WinDOffset: 0
HheadAscent: 960
HheadAOffset: 0
HheadDescent: -478
HheadDOffset: 0
OS2SubXSize: 650
OS2SubYSize: 700
OS2SubXOff: 0
OS2SubYOff: 140
OS2SupXSize: 650
OS2SupYSize: 700
OS2SupXOff: 0
OS2SupYOff: 480
OS2StrikeYSize: 49
OS2StrikeYPos: 258
OS2Vendor: 'PfEd'
OS2CodePages: 00000093.00000000
OS2UnicodeRanges: 8000006f.00000042.00000000.00000000
Lookup: 3 0 0 "'aalt' Access All Alternates lookup 0"  {"'aalt' Access All Alternates lookup 0 subtable"  } ['aalt' ('DFLT' <'dflt' > ) ]
Lookup: 3 0 0 "'aalt' Access All Alternates in Latin lookup 1"  {"'aalt' Access All Alternates in Latin lookup 1 subtable"  } ['aalt' ('latn' <'AZE ' 'CRT ' 'TRK ' 'dflt' > ) ]
Lookup: 1 0 0 "'locl' Localized Forms in Latin lookup 2"  {"'locl' Localized Forms in Latin lookup 2 subtable"  } ['locl' ('latn' <'AZE ' 'CRT ' 'TRK ' > ) ]
Lookup: 1 0 0 "'numr' Numerators in Latin lookup 3"  {"'numr' Numerators in Latin lookup 3 subtable"  } ['frac' ('DFLT' <'dflt' > 'latn' <'AZE ' 'CRT ' 'TRK ' 'dflt' > ) 'numr' ('DFLT' <'dflt' > 'latn' <'AZE ' 'CRT ' 'TRK ' 'dflt' > ) ]

StartChar: .notdef
Encoding: 65536 -1 0
Width: 396
Flags: HW
LayerCount: 2
Fore
SplineSet
23 -64 m 1,0,-1
 23 710 l 1,1,-1
 357 710 l 1,2,-1
 357 -64 l 1,3,-1
 23 -64 l 1,0,-1
178 205 m 1,4,-1
 173 251 l 1,5,6
 173 286 173 286 195 330 c 128,-1,7
 217 374 217 374 243 408 c 128,-1,8
 269 442 269 442 291 484 c 128,-1,9
 313 526 313 526 313 559 c 0,10,11
 313 613 313 613 273 643 c 128,-1,12
 233 673 233 673 186 673 c 128,-1,13
 139 673 139 673 107 651 c 128,-1,14
 75 629 75 629 75 612 c 0,15,16
 75 603 75 603 84 603 c 0,17,18
 85 603 85 603 103 615.5 c 128,-1,19
 121 628 121 628 143.5 628 c 128,-1,20
 166 628 166 628 198 607.5 c 128,-1,21
 230 587 230 587 230 552.5 c 128,-1,22
 230 518 230 518 184 414 c 128,-1,23
 138 310 138 310 138 280.5 c 128,-1,24
 138 251 138 251 146.5 223 c 128,-1,25
 155 195 155 195 170 195 c 0,26,27
 178 195 178 195 178 205 c 1,4,-1
133 100 m 0,28,29
 97 69 97 69 97 60 c 128,-1,30
 97 51 97 51 112 39 c 128,-1,31
 127 27 127 27 133 20 c 128,-1,32
 139 13 139 13 151.5 2 c 128,-1,33
 164 -9 164 -9 170 -9 c 128,-1,34
 176 -9 176 -9 182 -3.5 c 128,-1,35
 188 2 188 2 195.5 12 c 128,-1,36
 203 22 203 22 206.5 25.5 c 128,-1,37
 210 29 210 29 220 35.5 c 0,38,39
 241 49.15 241 49.15 241 62 c 0,40,41
 241 69.8 241 69.8 217 89 c 2,42,-1
 207 97 l 1,43,-1
 200 107 l 1,44,45
 180 132 180 132 173 132 c 128,-1,46
 166 132 166 132 159.5 127 c 128,-1,47
 153 122 153 122 145 112.5 c 128,-1,48
 137 103 137 103 133 100 c 0,28,29
EndSplineSet
EndChar

StartChar: exclam
Encoding: 33 33 4
Width: 276
GlyphClass: 2
Flags: HW
LayerCount: 2
Fore
SplineSet
74 47.5 m 128,-1,1
 68 55 68 55 68 62.5 c 128,-1,2
 68 70 68 70 84.5 84 c 128,-1,3
 101 98 101 98 109.5 109 c 0,4,5
 128.045454545 133 128.045454545 133 142 133 c 0,6,7
 148.307692308 133 148.307692308 133 156.153846154 124.5 c 128,-1,8
 164 116 164 116 170 109.5 c 128,-1,9
 176 103 176 103 187.5 94 c 128,-1,10
 199 85 199 85 204.5 81 c 0,11,12
 218 71.1818181818 218 71.1818181818 218 62.5909090909 c 128,-1,13
 218 54 218 54 211.5 47 c 128,-1,14
 205 40 205 40 194 32.5 c 128,-1,15
 183 25 183 25 179.5 21.5 c 128,-1,16
 176 18 176 18 169 8 c 128,-1,17
 162 -2 162 -2 155.5 -7.5 c 128,-1,18
 149 -13 149 -13 143 -13 c 128,-1,19
 137 -13 137 -13 123 -1.5 c 128,-1,20
 109 10 109 10 103.5 17.5 c 128,-1,21
 98 25 98 25 89 32.5 c 128,-1,0
 80 40 80 40 74 47.5 c 128,-1,1
98 651 m 0,22,23
 98 689 98 689 147 689 c 0,24,25
 171 689 171 689 182 682 c 128,-1,26
 193 675 193 675 193 657 c 0,27,28
 193 652.333333333 193 652.333333333 191 639.666666667 c 128,-1,29
 189 627 189 627 186.5 605.5 c 128,-1,30
 184 584 184 584 176 456.5 c 128,-1,31
 168 329 168 329 153 210 c 0,32,33
 151 199 151 199 139 199 c 128,-1,34
 127 199 127 199 127 208 c 0,35,36
 111.586826347 384.395209581 111.586826347 384.395209581 110.293413174 423.19760479 c 0,37,38
 108.071428571 489.857142857 108.071428571 489.857142857 103.035714286 561.428571429 c 128,-1,39
 98 633 98 633 98 651 c 0,22,23
EndSplineSet
Position2: "'cpsp' Capital Spacing in Latin lookup 0 subtable" dx=10 dy=0 dh=20 dv=0
EndChar

StartChar: numbersign
Encoding: 35 35 6
Width: 533
GlyphClass: 2
Flags: HW
LayerCount: 2
Fore
SplineSet
128 -53 m 1,0,-1
 151 114 l 2,1,2
 151 121 151 121 143 121 c 2,3,-1
 73 121 l 2,4,5
 59 121 59 121 59 139 c 2,6,-1
 59 142 l 2,7,8
 59 154 59 154 61 158.5 c 128,-1,9
 63 163 63 163 73 163 c 2,10,-1
 155 163 l 2,11,12
 158 163 158 163 158 165 c 2,13,-1
 177 300 l 2,14,15
 177 305 177 305 170 305 c 2,16,-1
 75 305 l 2,17,18
 66 305 66 305 62.5 308.5 c 128,-1,19
 59 312 59 312 59 329.5 c 128,-1,20
 59 347 59 347 75 347 c 2,21,-1
 177 347 l 2,22,23
 186 347 186 347 186 354 c 0,24,25
 200 454 200 454 205.5 497.5 c 128,-1,26
 211 541 211 541 214 545.5 c 128,-1,27
 217 550 217 550 235.5 550 c 128,-1,28
 254 550 254 550 254 538 c 1,29,-1
 228 352 l 2,30,31
 228 347 228 347 234 347 c 2,32,-1
 332 347 l 2,33,34
 340 347 340 347 341 354 c 0,35,36
 367 542 367 542 370 546 c 128,-1,37
 373 550 373 550 390.5 550 c 128,-1,38
 408 550 408 550 408 540 c 1,39,-1
 383 352 l 2,40,41
 383 347 383 347 388 347 c 2,42,-1
 457 347 l 2,43,44
 475 347 475 347 475 326 c 128,-1,45
 475 305 475 305 460 305 c 2,46,-1
 379 305 l 2,47,48
 376 305 376 305 374 299 c 1,49,50
 356 170 356 170 356 166.5 c 128,-1,51
 356 163 356 163 363 163 c 2,52,-1
 458 163 l 2,53,54
 468.888888889 163 468.888888889 163 471.944444444 157.5 c 128,-1,55
 475 152 475 152 475 143 c 0,56,57
 475 121 475 121 458 121 c 2,58,-1
 360 121 l 2,59,60
 351 121 351 121 349 111 c 0,61,62
 344 76 344 76 336 16.5 c 128,-1,63
 328 -43 328 -43 324 -54.5 c 128,-1,64
 320 -66 320 -66 302 -66 c 128,-1,65
 284 -66 284 -66 284 -53 c 1,66,-1
 307 115 l 2,67,68
 307 121 307 121 300 121 c 2,69,-1
 234 121 l 2,70,71
 199 121 199 121 196.5 118.5 c 128,-1,72
 194 116 194 116 193 113 c 0,73,74
 171 -53 171 -53 167.5 -59.5 c 128,-1,75
 164 -66 164 -66 146 -66 c 128,-1,76
 128 -66 128 -66 128 -53 c 1,0,-1
219 298 m 1,77,78
 201 169 201 169 201 166 c 128,-1,79
 201 163 201 163 209 163 c 2,80,-1
 304 163 l 2,81,82
 313 163 313 163 314 170 c 0,83,84
 317.931034483 204.068965517 317.931034483 204.068965517 322.965517241 235.534482759 c 128,-1,85
 328 267 328 267 329.5 277.5 c 0,86,87
 332 295 332 295 332 300 c 128,-1,88
 332 305 332 305 326 305 c 2,89,-1
 228 305 l 2,90,91
 221 305 221 305 219 298 c 1,77,78
EndSplineSet
EndChar

StartChar: dollar
Encoding: 36 36 7
Width: 533
GlyphClass: 2
Flags: HW
LayerCount: 2
Fore
SplineSet
249 -129 m 2,0,-1
 252 -31 l 2,1,2
 252 -12 252 -12 246 -12 c 0,3,4
 199 -12 199 -12 148 10.5 c 128,-1,5
 97 33 97 33 75 60 c 0,6,7
 64 73 64 73 64 87.5 c 128,-1,8
 64 102 64 102 65.5 115.5 c 0,9,10
 71.1111111111 166 71.1111111111 166 87 166 c 0,11,12
 97 166 97 166 102.5 159.5 c 128,-1,13
 108 153 108 153 118.5 130.5 c 128,-1,14
 129 108 129 108 134 98 c 0,15,16
 150 69 150 69 183 48 c 128,-1,17
 216 27 216 27 244 27 c 0,18,19
 254 27 254 27 254 42 c 2,20,-1
 257 324 l 2,21,22
 257 338 257 338 209.5 353 c 128,-1,23
 162 368 162 368 124.5 405 c 128,-1,24
 87 442 87 442 87 513 c 128,-1,25
 87 584 87 584 136 634 c 128,-1,26
 185 684 185 684 252 693 c 0,27,28
 259 694 259 694 262 698 c 128,-1,29
 265 702 265 702 265 716 c 2,30,-1
 264 743 l 2,31,32
 264 766 264 766 286 766 c 0,33,34
 301 766 301 766 304.5 762 c 128,-1,35
 308 758 308 758 308 747 c 2,36,-1
 308 726 l 1,37,-1
 307 703 l 2,38,39
 307 694 307 694 312 694 c 0,40,41
 395.533742331 683.558282209 395.533742331 683.558282209 438.5 636.5 c 0,42,43
 457 616.238095238 457 616.238095238 457 604.119047619 c 128,-1,44
 457 592 457 592 446.5 567.5 c 128,-1,45
 436 543 436 543 427 543 c 128,-1,46
 418 543 418 543 414 554 c 0,47,48
 397 591 397 591 368 621.5 c 128,-1,49
 339 652 339 652 312 652 c 0,50,51
 303 652 303 652 303 633 c 0,52,53
 303 549 303 549 300.5 503 c 128,-1,54
 298 457 298 457 298 439 c 128,-1,55
 298 421 298 421 300 416 c 128,-1,56
 302 411 302 411 311 409 c 0,57,58
 401 384 401 384 444.5 336 c 128,-1,59
 488 288 488 288 488 208 c 0,60,61
 488 158 488 158 471.5 118 c 128,-1,62
 455 78 455 78 427 54 c 0,63,64
 373.058823529 7.76470588235 373.058823529 7.76470588235 306 -9 c 0,65,66
 294 -12 294 -12 293 -16 c 128,-1,67
 292 -20 292 -20 292 -26 c 2,68,-1
 292 -108 l 2,69,70
 292 -135 292 -135 287.5 -142.5 c 128,-1,71
 283 -150 283 -150 270 -150 c 0,72,73
 249 -150 249 -150 249 -129 c 2,0,-1
262 445 m 2,74,-1
 263 641 l 2,75,76
 263 653 263 653 252 653 c 0,77,78
 225 653 225 653 185.5 622.5 c 128,-1,79
 146 592 146 592 146 539 c 0,80,81
 146 455 146 455 251 428 c 1,82,-1
 253 428 l 2,83,84
 262 428 262 428 262 445 c 2,74,-1
297 306 m 2,85,-1
 293 40 l 2,86,87
 293 27 293 27 299 27 c 128,-1,88
 305 27 305 27 316 29 c 128,-1,89
 327 31 327 31 347.5 41 c 128,-1,90
 368 51 368 51 385 66.5 c 128,-1,91
 402 82 402 82 415 113 c 128,-1,92
 428 144 428 144 428 180 c 128,-1,93
 428 216 428 216 415.5 241 c 128,-1,94
 403 266 403 266 385.5 280 c 128,-1,95
 368 294 368 294 349 303.5 c 0,96,97
 316 320 316 320 304 320 c 0,98,99
 297 320 297 320 297 306 c 2,85,-1
EndSplineSet
Substitution2: "'lnum' Lining Figures in Latin lookup 11 subtable" dollar.lining
Substitution2: "'subs' Subscript in Latin lookup 10 subtable" dollar.lining.sub
Substitution2: "'sups' Superscript in Latin lookup 9 subtable" dollar.lining.sup
AlternateSubs2: "'aalt' Access All Alternates in Latin lookup 1 subtable" dollar.lining dollar.lining.sub dollar.lining.sup
AlternateSubs2: "'aalt' Access All Alternates lookup 0 subtable" dollar.lining dollar.lining.sub dollar.lining.sup
EndChar

StartChar: percent
Encoding: 37 37 8
Width: 771
GlyphClass: 2
Flags: HW
LayerCount: 2
Fore
SplineSet
361 494 m 128,-1,1
 360 494 360 494 361 486.5 c 128,-1,2
 362 479 362 479 362 448 c 0,3,4
 362 374.032258065 362 374.032258065 309.5 297.016129032 c 128,-1,5
 257 220 257 220 169 220 c 0,6,7
 134 220 134 220 96.5 252.5 c 128,-1,8
 59 285 59 285 59 344 c 0,9,10
 59 425 59 425 116.5 501 c 128,-1,11
 174 577 174 577 258 577 c 0,12,13
 290 577 290 577 314.5 559.5 c 128,-1,14
 339 542 339 542 361 525 c 128,-1,15
 383 508 383 508 405 508 c 128,-1,16
 427 508 427 508 450 516.5 c 128,-1,17
 473 525 473 525 491.5 535 c 128,-1,18
 510 545 510 545 533.5 563.5 c 0,19,20
 563.20754717 586.886792453 563.20754717 586.886792453 600 620 c 1,21,-1
 619 638 l 2,22,23
 627 646 627 646 636.5 646 c 128,-1,24
 646 646 646 646 646 637.5 c 128,-1,25
 646 629 646 629 638 616 c 0,26,27
 348 183 348 183 203 -47 c 0,28,29
 177 -87 177 -87 171.5 -89 c 128,-1,30
 166 -91 166 -91 158 -91 c 128,-1,31
 150 -91 150 -91 139.5 -83 c 128,-1,32
 129 -75 129 -75 129 -65 c 128,-1,33
 129 -55 129 -55 147 -29 c 128,-1,34
 165 -3 165 -3 169 3 c 2,35,-1
 334 240 l 2,36,37
 387 317 387 317 440.5 390 c 0,38,39
 536 520.308411215 536 520.308411215 536 524.154205607 c 128,-1,40
 536 528 536 528 533.5 528 c 128,-1,41
 531 528 531 528 512.5 517 c 0,42,43
 457 484 457 484 410 484 c 0,44,45
 392 484 392 484 377 489 c 128,-1,0
 362 494 362 494 361 494 c 128,-1,1
162.5 491.5 m 128,-1,47
 131 435 131 435 131 372 c 128,-1,48
 131 309 131 309 147 278 c 128,-1,49
 163 247 163 247 191 247 c 0,50,51
 239 247 239 247 268 313 c 128,-1,52
 297 379 297 379 297 456 c 0,53,54
 297 496 297 496 284 522 c 128,-1,55
 271 548 271 548 250 548 c 0,56,46
 194 548 194 548 162.5 491.5 c 128,-1,47
386 64 m 0,57,58
 386 149 386 149 441 221 c 128,-1,59
 496 293 496 293 584 293 c 0,60,61
 638 293 638 293 665 259 c 128,-1,62
 692 225 692 225 692 170 c 0,63,64
 692 83 692 83 637 2.5 c 128,-1,65
 582 -78 582 -78 507 -78 c 0,66,67
 448 -78 448 -78 417 -37.5 c 128,-1,68
 386 3 386 3 386 64 c 0,57,58
488.5 203.5 m 128,-1,70
 457 145 457 145 457 81.5 c 128,-1,71
 457 18 457 18 473 -14 c 128,-1,72
 489 -46 489 -46 517 -46 c 0,73,74
 562 -46 562 -46 594 22 c 128,-1,75
 626 90 626 90 626 165 c 0,76,77
 626 205 626 205 611.5 233.5 c 128,-1,78
 597 262 597 262 576 262 c 0,79,69
 520 262 520 262 488.5 203.5 c 128,-1,70
EndSplineSet
EndChar

StartChar: ampersand
Encoding: 38 38 9
Width: 947
GlyphClass: 2
Flags: HW
LayerCount: 2
Fore
SplineSet
893 25 m 1,0,-1
 929 28 l 1,1,2
 942 28 942 28 942 19 c 0,3,4
 942 3 942 3 913.5 -8 c 128,-1,5
 885 -19 885 -19 845.5 -19 c 128,-1,6
 806 -19 806 -19 770 -8.5 c 128,-1,7
 734 2 734 2 709 16.5 c 128,-1,8
 684 31 684 31 665 46 c 128,-1,9
 646 61 646 61 634.5 71.5 c 128,-1,10
 623 82 623 82 620 82 c 128,-1,11
 617 82 617 82 605.5 71.5 c 128,-1,12
 594 61 594 61 575 45.5 c 128,-1,13
 556 30 556 30 529 14.5 c 0,14,15
 465.419354839 -22 465.419354839 -22 358 -22 c 0,16,17
 287.03125 -22 287.03125 -22 230.015625 -1.5 c 128,-1,18
 173 19 173 19 139.5 46 c 128,-1,19
 106 73 106 73 82.5 124 c 128,-1,20
 59 175 59 175 59 242 c 0,21,22
 59 276 59 276 70.5 312.5 c 128,-1,23
 82 349 82 349 102.5 374.5 c 128,-1,24
 123 400 123 400 153.5 416 c 128,-1,25
 184 432 184 432 202.5 436 c 128,-1,26
 221 440 221 440 221 442.5 c 128,-1,27
 221 445 221 445 209 459.5 c 128,-1,28
 197 474 197 474 185 503.5 c 128,-1,29
 173 533 173 533 173 571 c 0,30,31
 173 637 173 637 231 670.5 c 128,-1,32
 289 704 289 704 361 704 c 0,33,34
 396 704 396 704 427 692.5 c 128,-1,35
 458 681 458 681 462 681 c 2,36,-1
 484 684 l 1,37,38
 500 684 500 684 500 661 c 1,39,-1
 504 593 l 1,40,41
 504 564 504 564 502.5 558 c 128,-1,42
 501 552 501 552 494 552 c 128,-1,43
 487 552 487 552 472 570 c 128,-1,44
 457 588 457 588 440 609.5 c 128,-1,45
 423 631 423 631 394.5 649 c 128,-1,46
 366 667 366 667 327.5 667 c 128,-1,47
 289 667 289 667 266 642.5 c 128,-1,48
 243 618 243 618 243 591.5 c 128,-1,49
 243 565 243 565 270.5 525.5 c 128,-1,50
 298 486 298 486 326.5 456 c 128,-1,51
 355 426 355 426 418.5 362.5 c 128,-1,52
 482 299 482 299 552 239 c 128,-1,53
 622 179 622 179 629.5 179 c 128,-1,54
 637 179 637 179 643 187.5 c 0,55,56
 657 207.333333333 657 207.333333333 657 253.666666667 c 128,-1,57
 657 300 657 300 646.5 322.5 c 128,-1,58
 636 345 636 345 628 350.5 c 128,-1,59
 620 356 620 356 606.5 362.5 c 128,-1,60
 593 369 593 369 582.5 370 c 128,-1,61
 572 371 572 371 567 373.5 c 128,-1,62
 562 376 562 376 562 383.5 c 128,-1,63
 562 391 562 391 566.5 393 c 128,-1,64
 571 395 571 395 587 395 c 2,65,-1
 736 393 l 2,66,67
 755 393 755 393 755 380 c 0,68,69
 755 368.933333333 755 368.933333333 736.5 364 c 0,70,71
 729 362 729 362 722.5 352 c 128,-1,72
 716 342 716 342 715 327 c 128,-1,73
 714 312 714 312 712.5 297 c 0,74,75
 706.176470588 233.764705882 706.176470588 233.764705882 695.588235294 207.882352941 c 128,-1,76
 685 182 685 182 677.5 167 c 128,-1,77
 670 152 670 152 670 149 c 0,78,79
 670 140 670 140 729.5 102.5 c 128,-1,80
 789 65 789 65 850 35 c 0,81,82
 870 25 870 25 893 25 c 1,0,-1
191.5 128.5 m 0,83,84
 224 92 224 92 282 68.5 c 128,-1,85
 340 45 340 45 397.5 45 c 128,-1,86
 455 45 455 45 496.5 59.5 c 128,-1,87
 538 74 538 74 559 88.5 c 128,-1,88
 580 103 580 103 580 109 c 0,89,90
 580 113 580 113 554 132.5 c 128,-1,91
 528 152 528 152 468 203 c 128,-1,92
 408 254 408 254 370 292 c 0,93,94
 317.5 344.5 317.5 344.5 288.75 373.25 c 128,-1,95
 260 402 260 402 255.5 407 c 128,-1,96
 251 412 251 412 248 414 c 128,-1,97
 245 416 245 416 242.5 418 c 0,98,99
 238.75 421 238.75 421 234 421 c 0,100,101
 201 421 201 421 163 379 c 128,-1,102
 125 337 125 337 125 270.092307692 c 128,-1,103
 125 203.184615385 125 203.184615385 191.5 128.5 c 0,83,84
EndSplineSet
Substitution2: "'c2sc' Capitals to Small Capitals in Latin lookup 13 subtable" ampersand.sc
AlternateSubs2: "'aalt' Access All Alternates in Latin lookup 1 subtable" ampersand.sc
AlternateSubs2: "'aalt' Access All Alternates lookup 0 subtable" ampersand.sc
Position2: "'cpsp' Capital Spacing in Latin lookup 0 subtable" dx=10 dy=0 dh=20 dv=0
EndChar

StartChar: parenleft
Encoding: 40 40 11
Width: 326
GlyphClass: 2
Flags: HW
LayerCount: 2
Fore
SplineSet
92.5 120.5 m 128,-1,1
 73 199 73 199 73 283 c 128,-1,2
 73 367 73 367 94 450 c 128,-1,3
 115 533 115 533 145 589 c 128,-1,4
 175 645 175 645 207.5 688 c 128,-1,5
 240 731 240 731 263.5 751.5 c 128,-1,6
 287 772 287 772 295 772 c 0,7,8
 316 772 316 772 316 751 c 0,9,10
 316 745 316 745 295.5 725 c 128,-1,11
 275 705 275 705 246 670 c 128,-1,12
 217 635 217 635 188 586 c 128,-1,13
 159 537 159 537 138.5 455.5 c 128,-1,14
 118 374 118 374 118 281 c 128,-1,15
 118 188 118 188 138 109.5 c 128,-1,16
 158 31 158 31 186.5 -19.5 c 128,-1,17
 215 -70 215 -70 244 -107.5 c 128,-1,18
 273 -145 273 -145 293 -167 c 128,-1,19
 313 -189 313 -189 313 -196.5 c 128,-1,20
 313 -204 313 -204 306 -209 c 128,-1,21
 299 -214 299 -214 290.5 -214 c 128,-1,22
 282 -214 282 -214 257.5 -190 c 128,-1,23
 233 -166 233 -166 201.5 -120 c 128,-1,24
 170 -74 170 -74 141 -16 c 128,-1,0
 112 42 112 42 92.5 120.5 c 128,-1,1
EndSplineSet
Substitution2: "'case' Case-Sensitive Forms in Latin lookup 15 subtable" parenleft.uppercase
Substitution2: "'subs' Subscript in Latin lookup 10 subtable" parenleft.sub
Substitution2: "'sups' Superscript in Latin lookup 9 subtable" parenleft.sup
AlternateSubs2: "'aalt' Access All Alternates in Latin lookup 1 subtable" parenleft.uppercase parenleft.sub parenleft.sup
AlternateSubs2: "'aalt' Access All Alternates lookup 0 subtable" parenleft.uppercase parenleft.sub parenleft.sup
EndChar

StartChar: parenright
Encoding: 41 41 12
Width: 326
GlyphClass: 2
Flags: HW
LayerCount: 2
Fore
SplineSet
10 -192 m 0,0,1
 10 -186 10 -186 30.5 -166 c 128,-1,2
 51 -146 51 -146 80 -111.5 c 128,-1,3
 109 -77 109 -77 138 -28 c 128,-1,4
 167 21 167 21 187.5 102.5 c 128,-1,5
 208 184 208 184 208 277 c 0,6,7
 208 370 208 370 188 448.5 c 128,-1,8
 168 527 168 527 139.5 577.5 c 128,-1,9
 111 628 111 628 82 665.5 c 128,-1,10
 53 703 53 703 33 725 c 128,-1,11
 13 747 13 747 13 754.5 c 0,12,13
 13 762 13 762 20 767 c 128,-1,14
 27 772 27 772 35.5 772 c 0,15,16
 44 772 44 772 68.5 748 c 128,-1,17
 93 724 93 724 124.5 678 c 128,-1,18
 156 632 156 632 185 574 c 128,-1,19
 214 516 214 516 233.5 437.5 c 128,-1,20
 253 359 253 359 253 275 c 0,21,22
 253 191 253 191 232 108 c 128,-1,23
 211 25 211 25 181 -31 c 128,-1,24
 151 -87 151 -87 118.5 -130 c 128,-1,25
 86 -173 86 -173 62.5 -193.5 c 128,-1,26
 39 -214 39 -214 31 -214 c 0,27,28
 10 -214 10 -214 10 -192 c 0,0,1
EndSplineSet
Substitution2: "'case' Case-Sensitive Forms in Latin lookup 15 subtable" parenright.uppercase
Substitution2: "'subs' Subscript in Latin lookup 10 subtable" parenright.sub
Substitution2: "'sups' Superscript in Latin lookup 9 subtable" parenright.sup
AlternateSubs2: "'aalt' Access All Alternates in Latin lookup 1 subtable" parenright.uppercase parenright.sub parenright.sup
AlternateSubs2: "'aalt' Access All Alternates lookup 0 subtable" parenright.uppercase parenright.sub parenright.sup
EndChar

StartChar: asterisk
Encoding: 42 42 13
Width: 431
GlyphClass: 2
Flags: HW
LayerCount: 2
Fore
SplineSet
184 306 m 2,0,-1
 187 378 l 2,1,2
 187 401 187 401 182.5 401 c 128,-1,3
 178 401 178 401 137.5 374.5 c 128,-1,4
 97 348 97 348 87.5 348 c 128,-1,5
 78 348 78 348 68.5 361 c 128,-1,6
 59 374 59 374 59 383 c 0,7,8
 59 396 59 396 113 420 c 128,-1,9
 167 444 167 444 167 447.5 c 128,-1,10
 167 451 167 451 113 476 c 128,-1,11
 59 501 59 501 59 513 c 0,12,13
 59 522 59 522 68.5 535 c 128,-1,14
 78 548 78 548 89 548 c 128,-1,15
 100 548 100 548 139 521.5 c 128,-1,16
 178 495 178 495 182.5 495 c 128,-1,17
 187 495 187 495 187 514 c 2,18,-1
 184 593 l 2,19,20
 184 606 184 606 189 610 c 128,-1,21
 194 614 194 614 214 614 c 128,-1,22
 234 614 234 614 240.5 608 c 128,-1,23
 247 602 247 602 247 578 c 1,24,-1
 243 513 l 1,25,26
 243 495 243 495 248 495 c 128,-1,27
 253 495 253 495 293.5 522 c 128,-1,28
 334 549 334 549 343 549 c 128,-1,29
 352 549 352 549 362.5 536.5 c 128,-1,30
 373 524 373 524 373 513 c 128,-1,31
 373 502 373 502 318.5 477 c 128,-1,32
 264 452 264 452 264 447.5 c 128,-1,33
 264 443 264 443 318.5 419 c 128,-1,34
 373 395 373 395 373 384 c 128,-1,35
 373 373 373 373 363 360.5 c 128,-1,36
 353 348 353 348 341.5 348 c 128,-1,37
 330 348 330 348 291 374.5 c 128,-1,38
 252 401 252 401 248 401 c 128,-1,39
 244 401 244 401 244 382 c 2,40,-1
 247 324 l 1,41,42
 247 295 247 295 241.5 288.5 c 128,-1,43
 236 282 236 282 210 282 c 128,-1,44
 184 282 184 282 184 306 c 2,0,-1
EndSplineSet
EndChar

StartChar: plus
Encoding: 43 43 14
Width: 527
GlyphClass: 2
Flags: HW
LayerCount: 2
Fore
SplineSet
31.5 197.5 m 0,0,1
 31 201 31 201 31 210.5 c 128,-1,2
 31 220 31 220 31.5 223.5 c 0,3,4
 32.7142857143 232 32.7142857143 232 49 232 c 2,5,-1
 219 232 l 2,6,7
 241 232 241 232 241 251 c 2,8,-1
 241 427 l 2,9,10
 241 440.285714286 241 440.285714286 249.5 441.5 c 0,11,12
 253 442 253 442 262 442 c 128,-1,13
 271 442 271 442 275 441.5 c 0,14,15
 286 440.125 286 440.125 286 422 c 2,16,-1
 286 259 l 2,17,18
 286 232 286 232 303 232 c 2,19,-1
 480 232 l 2,20,21
 494.285714286 232 494.285714286 232 495.5 223.5 c 0,22,23
 496 220 496 220 496 208.5 c 128,-1,24
 496 197 496 197 493 192.5 c 128,-1,25
 490 188 490 188 475 188 c 2,26,-1
 303 188 l 2,27,28
 291 188 291 188 288.5 184.5 c 128,-1,29
 286 181 286 181 286 170 c 2,30,-1
 286 -5 l 2,31,32
 286 -16 286 -16 281 -19 c 128,-1,33
 276 -22 276 -22 263 -22 c 128,-1,34
 250 -22 250 -22 245.5 -19.5 c 128,-1,35
 241 -17 241 -17 241 -4 c 2,36,-1
 241 170 l 2,37,38
 241 182 241 182 236.5 185 c 128,-1,39
 232 188 232 188 217 188 c 2,40,-1
 48 188 l 2,41,42
 32.8571428571 188 32.8571428571 188 31.5 197.5 c 0,0,1
EndSplineSet
EndChar

StartChar: comma
Encoding: 44 44 15
Width: 250
GlyphClass: 2
Flags: HW
LayerCount: 2
Fore
SplineSet
56 44.5 m 128,-1,1
 54 47 54 47 54 53 c 128,-1,2
 54 59 54 59 57 64 c 128,-1,3
 60 69 60 69 63.5 72.5 c 128,-1,4
 67 76 67 76 74 82.5 c 128,-1,5
 81 89 81 89 84.5 92.5 c 128,-1,6
 88 96 88 96 93 103 c 128,-1,7
 98 110 98 110 102 114 c 0,8,9
 113 125 113 125 122.5 125 c 128,-1,10
 132 125 132 125 147 113 c 128,-1,11
 162 101 162 101 179 70 c 128,-1,12
 196 39 196 39 196 0 c 0,13,14
 196 -63 196 -63 151.5 -114.5 c 128,-1,15
 107 -166 107 -166 80 -166 c 0,16,17
 65 -166 65 -166 65 -153 c 0,18,19
 65 -143.041666667 65 -143.041666667 96 -118.5 c 0,20,21
 108 -109 108 -109 117.5 -90.5 c 128,-1,22
 127 -72 127 -72 127 -50 c 128,-1,23
 127 -28 127 -28 118 -12.5 c 128,-1,24
 109 3 109 3 101.5 9.5 c 128,-1,25
 94 16 94 16 76 29 c 128,-1,0
 58 42 58 42 56 44.5 c 128,-1,1
EndSplineSet
Substitution2: "'subs' Subscript in Latin lookup 10 subtable" comma.sub
Substitution2: "'sups' Superscript in Latin lookup 9 subtable" comma.sup
Substitution2: "'dnom' Denominators in Latin lookup 6 subtable" comma.denom
Substitution2: "'numr' Numerators in Latin lookup 5 subtable" comma.numer
Substitution2: "'dnom' Denominators in Latin lookup 4 subtable" comma.denom
Substitution2: "'numr' Numerators in Latin lookup 3 subtable" comma.numer
AlternateSubs2: "'aalt' Access All Alternates in Latin lookup 1 subtable" comma.sub comma.sup comma.denom comma.numer
AlternateSubs2: "'aalt' Access All Alternates lookup 0 subtable" comma.sub comma.sup comma.denom comma.numer
EndChar

StartChar: hyphen
Encoding: 45 45 16
Width: 340
GlyphClass: 2
Flags: HW
LayerCount: 2
Fore
SplineSet
44 145 m 2,0,-1
 44 156 l 2,1,2
 44 185 44 185 53.5 193 c 128,-1,3
 63 201 63 201 108.5 214.5 c 128,-1,4
 154 228 154 228 195 242.5 c 128,-1,5
 236 257 236 257 250.5 262.5 c 128,-1,6
 265 268 265 268 274 268 c 0,7,8
 296 268 296 268 296 234 c 2,9,-1
 296 228 l 2,10,11
 296 205.4 296 205.4 285.5 197 c 0,12,13
 277.5 190.6 277.5 190.6 263.25 186.8 c 0,14,15
 204 171 204 171 160 155 c 128,-1,16
 116 139 116 139 103.5 134.5 c 0,17,18
 74.3333333333 124 74.3333333333 124 59.1666666667 124 c 128,-1,19
 44 124 44 124 44 145 c 2,0,-1
EndSplineSet
Substitution2: "'case' Case-Sensitive Forms in Latin lookup 15 subtable" hyphen.uppercase
AlternateSubs2: "'aalt' Access All Alternates in Latin lookup 1 subtable" hyphen.uppercase
AlternateSubs2: "'aalt' Access All Alternates lookup 0 subtable" hyphen.uppercase
EndChar

StartChar: period
Encoding: 46 46 17
Width: 252
GlyphClass: 2
Flags: HW
LayerCount: 2
Fore
SplineSet
54 55 m 128,-1,1
 54 67 54 67 85 94 c 0,2,3
 89 98 89 98 96.5 108 c 128,-1,4
 104 118 104 118 111.5 123.5 c 128,-1,5
 119 129 119 129 127 129 c 128,-1,6
 135 129 135 129 168 90 c 0,7,8
 171 87 171 87 179.5 79.5 c 0,9,10
 198 63.1764705882 198 63.1764705882 198 56.5882352941 c 128,-1,11
 198 50 198 50 193 44.5 c 128,-1,12
 188 39 188 39 178 31 c 2,13,14
 163 19 l 2,15,16
 159 15 159 15 151.5 5 c 0,17,18
 135.75 -16 135.75 -16 125.875 -16 c 128,-1,19
 116 -16 116 -16 102 1.5 c 128,-1,20
 88 19 88 19 85 21 c 0,21,0
 54 43 54 43 54 55 c 128,-1,1
EndSplineSet
Substitution2: "'subs' Subscript in Latin lookup 10 subtable" period.sub
Substitution2: "'sups' Superscript in Latin lookup 9 subtable" period.sup
Substitution2: "'dnom' Denominators in Latin lookup 6 subtable" period.denom
Substitution2: "'numr' Numerators in Latin lookup 5 subtable" period.numer
Substitution2: "'dnom' Denominators in Latin lookup 4 subtable" period.denom
Substitution2: "'numr' Numerators in Latin lookup 3 subtable" period.numer
AlternateSubs2: "'aalt' Access All Alternates in Latin lookup 1 subtable" period.sub period.sup period.denom period.numer
AlternateSubs2: "'aalt' Access All Alternates lookup 0 subtable" period.sub period.sup period.denom period.numer
EndChar

StartChar: slash
Encoding: 47 47 18
Width: 416
GlyphClass: 2
Flags: HW
LayerCount: 2
Fore
SplineSet
20 -170 m 0,0,1
 20 -168 20 -168 39 -113 c 1,2,3
 344 710 344 710 347 719 c 0,4,5
 350 728 350 728 355.5 731.5 c 128,-1,6
 361 735 361 735 378.5 735 c 0,7,8
 396 735 396 735 396 723 c 0,9,10
 396 715 396 715 382 679 c 2,11,-1
 78 -152 l 2,12,13
 70 -174 70 -174 64.5 -178.5 c 128,-1,14
 59 -183 59 -183 39.5 -183 c 0,15,16
 20 -183 20 -183 20 -170 c 0,0,1
EndSplineSet
Substitution2: "'numr' Numerators in Latin lookup 3 subtable" fraction
AlternateSubs2: "'aalt' Access All Alternates in Latin lookup 1 subtable" fraction
AlternateSubs2: "'aalt' Access All Alternates lookup 0 subtable" fraction
EndChar

StartChar: zero
Encoding: 48 48 19
Width: 529
GlyphClass: 2
Flags: HW
LayerCount: 2
Fore
SplineSet
98.5 52 m 128,-1,1
 39 119 39 119 39 216 c 128,-1,2
 39 313 39 313 106 370 c 128,-1,3
 173 427 173 427 265 427 c 128,-1,4
 357 427 357 427 423.5 370.5 c 128,-1,5
 490 314 490 314 490 206 c 0,6,7
 490 116 490 116 432 50.5 c 128,-1,8
 374 -15 374 -15 266 -15 c 128,-1,0
 158 -15 158 -15 98.5 52 c 128,-1,1
143 332.5 m 128,-1,10
 95 289 95 289 95 207.5 c 128,-1,11
 95 126 95 126 148 82.5 c 128,-1,12
 201 39 201 39 270 39 c 128,-1,13
 339 39 339 39 388 87 c 128,-1,14
 437 135 437 135 437 211.5 c 128,-1,15
 437 288 437 288 383.5 332 c 128,-1,16
 330 376 330 376 260.5 376 c 128,-1,9
 191 376 191 376 143 332.5 c 128,-1,10
EndSplineSet
Substitution2: "'lnum' Lining Figures in Latin lookup 11 subtable" zero.lining
Substitution2: "'subs' Subscript in Latin lookup 10 subtable" zero.lining.sub
Substitution2: "'sups' Superscript in Latin lookup 9 subtable" zero.lining.sup
Substitution2: "'dnom' Denominators in Latin lookup 4 subtable" zero.lining.denom
Substitution2: "'numr' Numerators in Latin lookup 3 subtable" zero.lining.numer
AlternateSubs2: "'aalt' Access All Alternates in Latin lookup 1 subtable" zero.lining zero.lining.sub zero.lining.sup zero.lining.denom zero.lining.numer
AlternateSubs2: "'aalt' Access All Alternates lookup 0 subtable" zero.lining zero.lining.sub zero.lining.sup zero.lining.denom zero.lining.numer
EndChar

StartChar: one
Encoding: 49 49 20
Width: 340
GlyphClass: 2
Flags: HW
LayerCount: 2
Fore
SplineSet
164 1 m 1,0,-1
 48 -4 l 1,1,2
 20 -4 20 -4 20 12 c 0,3,4
 20 28.3529411765 20 28.3529411765 65 31 c 0,5,6
 82 32 82 32 97.5 40.5 c 128,-1,7
 113 49 113 49 116 66 c 0,8,9
 125 120 125 120 125 169 c 2,10,-1
 125 249 l 1,11,-1
 126 300 l 1,12,13
 126 362 126 362 112.5 376 c 128,-1,14
 99 390 99 390 46 393 c 1,15,16
 28 393 28 393 28 408 c 0,17,18
 28 419 28 419 49 419 c 0,19,20
 51 419 51 419 78 416 c 128,-1,21
 105 413 105 413 155 413 c 128,-1,22
 205 413 205 413 233.5 415.5 c 128,-1,23
 262 418 262 418 271.5 418 c 128,-1,24
 281 418 281 418 287 413 c 128,-1,25
 293 408 293 408 293 402.5 c 128,-1,26
 293 397 293 397 289.5 393.5 c 128,-1,27
 286 390 286 390 282 389 c 128,-1,28
 278 388 278 388 270.5 387.5 c 128,-1,29
 263 387 263 387 259 386 c 128,-1,30
 255 385 255 385 243 383.5 c 128,-1,31
 231 382 231 382 227.5 381 c 128,-1,32
 224 380 224 380 216.5 374.5 c 128,-1,33
 209 369 209 369 207 359.5 c 0,34,35
 200 326.25 200 326.25 200 291 c 2,36,-1
 197 126 l 1,37,-1
 197 103 l 2,38,39
 197 77 197 77 201 61 c 1,40,41
 207 43 207 43 236.5 35.5 c 128,-1,42
 266 28 266 28 293 24 c 128,-1,43
 320 20 320 20 320 10 c 128,-1,44
 320 0 320 0 314 -2 c 128,-1,45
 308 -4 308 -4 292 -4 c 2,46,-1
 164 1 l 1,0,-1
EndSplineSet
Substitution2: "'lnum' Lining Figures in Latin lookup 11 subtable" one.lining
Substitution2: "'subs' Subscript in Latin lookup 10 subtable" one.lining.sub
Substitution2: "'sups' Superscript in Latin lookup 9 subtable" one.lining.sup
Substitution2: "'dnom' Denominators in Latin lookup 4 subtable" one.lining.denom
Substitution2: "'numr' Numerators in Latin lookup 3 subtable" one.lining.numer
AlternateSubs2: "'aalt' Access All Alternates in Latin lookup 1 subtable" one.lining one.lining.sub one.lining.sup one.lining.denom one.lining.numer
AlternateSubs2: "'aalt' Access All Alternates lookup 0 subtable" one.lining one.lining.sub one.lining.sup one.lining.denom one.lining.numer
EndChar

StartChar: two
Encoding: 50 50 21
Width: 468
GlyphClass: 2
Flags: HW
LayerCount: 2
Fore
SplineSet
193 -1 m 1,0,-1
 56 -2 l 2,1,2
 29 -2 29 -2 29 8 c 0,3,4
 29 14 29 14 34.5 18 c 128,-1,5
 40 22 40 22 57 29 c 128,-1,6
 74 36 74 36 89 45 c 0,7,8
 201 112 201 112 253 178 c 128,-1,9
 305 244 305 244 305 292 c 128,-1,10
 305 340 305 340 271.5 366 c 128,-1,11
 238 392 238 392 205 392 c 0,12,13
 146 392 146 392 146 346 c 0,14,15
 146 335 146 335 154 314 c 128,-1,16
 162 293 162 293 162 287 c 0,17,18
 162 277 162 277 143 277 c 128,-1,19
 124 277 124 277 101.5 288.5 c 128,-1,20
 79 300 79 300 79 312.5 c 128,-1,21
 79 325 79 325 87 342 c 128,-1,22
 95 359 95 359 112 378.5 c 128,-1,23
 129 398 129 398 165 411 c 128,-1,24
 201 424 201 424 254.5 424 c 128,-1,25
 308 424 308 424 345.5 396 c 128,-1,26
 383 368 383 368 383 320.5 c 128,-1,27
 383 273 383 273 343.5 222 c 128,-1,28
 304 171 304 171 248.5 125.5 c 128,-1,29
 193 80 193 80 193 72 c 128,-1,30
 193 64 193 64 266 64 c 128,-1,31
 339 64 339 64 381 77 c 0,32,33
 397 82 397 82 414.5 104.5 c 128,-1,34
 432 127 432 127 436 127 c 0,35,36
 448 127 448 127 448 116 c 0,37,38
 448 113 448 113 423 65.5 c 128,-1,39
 398 18 398 18 395 14 c 0,40,41
 380 -3 380 -3 374 -4 c 1,42,-1
 193 -1 l 1,0,-1
EndSplineSet
Substitution2: "'lnum' Lining Figures in Latin lookup 11 subtable" two.lining
Substitution2: "'subs' Subscript in Latin lookup 10 subtable" two.lining.sub
Substitution2: "'sups' Superscript in Latin lookup 9 subtable" two.lining.sup
Substitution2: "'dnom' Denominators in Latin lookup 4 subtable" two.lining.denom
Substitution2: "'numr' Numerators in Latin lookup 3 subtable" two.lining.numer
AlternateSubs2: "'aalt' Access All Alternates in Latin lookup 1 subtable" two.lining two.lining.sub two.lining.sup two.lining.denom two.lining.numer
AlternateSubs2: "'aalt' Access All Alternates lookup 0 subtable" two.lining two.lining.sub two.lining.sup two.lining.denom two.lining.numer
EndChar

StartChar: three
Encoding: 51 51 22
Width: 404
GlyphClass: 2
Flags: HW
LayerCount: 2
Fore
SplineSet
39 -136 m 1,0,1
 39 -104 39 -104 57 -104 c 0,2,3
 61 -104 61 -104 72 -117 c 128,-1,4
 83 -130 83 -130 106 -142.5 c 128,-1,5
 129 -155 129 -155 162 -155 c 0,6,7
 221 -155 221 -155 261 -106.5 c 128,-1,8
 301 -58 301 -58 301 -7 c 128,-1,9
 301 44 301 44 260 76 c 128,-1,10
 219 108 219 108 153 108 c 0,11,12
 131.333333333 108 131.333333333 108 119.666666667 105.5 c 128,-1,13
 108 103 108 103 107 103 c 0,14,15
 94 103 94 103 94 114 c 0,16,17
 94 121.909090909 94 121.909090909 100.5 125.454545455 c 128,-1,18
 107 129 107 129 114.5 132.5 c 0,19,20
 130.709677419 140.064516129 130.709677419 140.064516129 166.35483871 165.032258065 c 0,21,22
 250 223.621719457 250 223.621719457 250 296 c 0,23,24
 250 327 250 327 222.5 351.5 c 128,-1,25
 195 376 195 376 160.5 376 c 128,-1,26
 126 376 126 376 105.5 360 c 128,-1,27
 85 344 85 344 79 344 c 0,28,29
 68 344 68 344 68 354 c 0,30,31
 68 371 68 371 108 397.5 c 128,-1,32
 148 424 148 424 195.5 424 c 128,-1,33
 243 424 243 424 282.5 402.5 c 128,-1,34
 322 381 322 381 322 331 c 0,35,36
 322 302 322 302 304.5 272.5 c 128,-1,37
 287 243 287 243 266.5 224 c 128,-1,38
 246 205 246 205 228.5 190 c 128,-1,39
 211 175 211 175 211 171 c 0,40,41
 211 170 211 170 221.5 168.5 c 0,42,43
 260 163 260 163 286 150 c 0,44,45
 358 114 358 114 358 36.5 c 128,-1,46
 358 -41 358 -41 287 -122.5 c 128,-1,47
 216 -204 216 -204 128 -204 c 128,-1,48
 40 -204 40 -204 40 -168 c 2,49,-1
 40 -148 l 1,50,-1
 39 -136 l 1,0,1
EndSplineSet
Substitution2: "'lnum' Lining Figures in Latin lookup 11 subtable" three.lining
Substitution2: "'subs' Subscript in Latin lookup 10 subtable" three.lining.sub
Substitution2: "'sups' Superscript in Latin lookup 9 subtable" three.lining.sup
Substitution2: "'dnom' Denominators in Latin lookup 4 subtable" three.lining.denom
Substitution2: "'numr' Numerators in Latin lookup 3 subtable" three.lining.numer
AlternateSubs2: "'aalt' Access All Alternates in Latin lookup 1 subtable" three.lining three.lining.sub three.lining.sup three.lining.denom three.lining.numer
AlternateSubs2: "'aalt' Access All Alternates lookup 0 subtable" three.lining three.lining.sub three.lining.sup three.lining.denom three.lining.numer
EndChar

StartChar: four
Encoding: 52 52 23
Width: 504
GlyphClass: 2
Flags: HW
LayerCount: 2
Fore
SplineSet
141 -2 m 1,0,-1
 38 -1 l 2,1,2
 18 -1 18 -1 14 3 c 128,-1,3
 10 7 10 7 10 15.5 c 128,-1,4
 10 24 10 24 18.5 35 c 128,-1,5
 27 46 27 46 110 136 c 128,-1,6
 193 226 193 226 257.5 299 c 128,-1,7
 322 372 322 372 328.5 379.5 c 128,-1,8
 335 387 335 387 339.5 392.5 c 128,-1,9
 344 398 344 398 350.5 404 c 0,10,11
 364.583333333 417 364.583333333 417 371 417 c 0,12,13
 382 417 382 417 382 393 c 2,14,-1
 369 81 l 2,15,16
 369 67 369 67 390 67 c 128,-1,17
 411 67 411 67 426 70.5 c 128,-1,18
 441 74 441 74 445 78.5 c 0,19,20
 455.222222222 90 455.222222222 90 462 90 c 0,21,22
 475 90 475 90 475 77 c 0,23,24
 475 66.5 475 66.5 467.5 49.25 c 128,-1,25
 460 32 460 32 458.5 28.5 c 128,-1,26
 457 25 457 25 455 19.5 c 128,-1,27
 453 14 453 14 451.5 10.5 c 128,-1,28
 450 7 450 7 447.5 3 c 0,29,30
 442.5 -5 442.5 -5 435 -5 c 2,31,-1
 380 -4 l 2,32,33
 371 -4 371 -4 368.5 -8 c 128,-1,34
 366 -12 366 -12 366 -23 c 2,35,-1
 369 -129 l 1,36,-1
 370 -155 l 2,37,38
 370 -174 370 -174 354 -179 c 0,39,40
 328 -186 328 -186 309.5 -186 c 128,-1,41
 291 -186 291 -186 291 -172 c 0,42,43
 291 -168 291 -168 292.5 -162.5 c 128,-1,44
 294 -157 294 -157 295 -147.5 c 0,45,46
 299 -109.5 299 -109.5 299 -16 c 0,47,48
 299 0 299 0 290 0 c 2,49,-1
 141 -2 l 1,0,-1
178 64 m 1,50,-1
 257 63 l 2,51,52
 284 63 284 63 293 64.5 c 128,-1,53
 302 66 302 66 302 73 c 0,54,55
 305 215 305 215 305 255.5 c 128,-1,56
 305 296 305 296 300 296 c 128,-1,57
 295 296 295 296 267 266.5 c 128,-1,58
 239 237 239 237 224.5 219 c 128,-1,59
 210 201 210 201 176.5 164.5 c 0,60,61
 103 84.4179104478 103 84.4179104478 103 76 c 0,62,63
 103 64 103 64 141 64 c 2,64,-1
 178 64 l 1,50,-1
EndSplineSet
Substitution2: "'lnum' Lining Figures in Latin lookup 11 subtable" four.lining
Substitution2: "'subs' Subscript in Latin lookup 10 subtable" four.lining.sub
Substitution2: "'sups' Superscript in Latin lookup 9 subtable" four.lining.sup
Substitution2: "'dnom' Denominators in Latin lookup 4 subtable" four.lining.denom
Substitution2: "'numr' Numerators in Latin lookup 3 subtable" four.lining.numer
AlternateSubs2: "'aalt' Access All Alternates in Latin lookup 1 subtable" four.lining four.lining.sub four.lining.sup four.lining.denom four.lining.numer
AlternateSubs2: "'aalt' Access All Alternates lookup 0 subtable" four.lining four.lining.sub four.lining.sup four.lining.denom four.lining.numer
EndChar

StartChar: five
Encoding: 53 53 24
Width: 342
GlyphClass: 2
Flags: HW
LayerCount: 2
Fore
SplineSet
125 413 m 2,0,-1
 199 411 l 2,1,2
 214 411 214 411 226.5 411 c 128,-1,3
 239 411 239 411 247 411.5 c 128,-1,4
 255 412 255 412 259.5 412.5 c 128,-1,5
 264 413 264 413 267.5 413.5 c 128,-1,6
 271 414 271 414 273 415.5 c 128,-1,7
 275 417 275 417 276 417.5 c 128,-1,8
 277 418 277 418 279 421 c 128,-1,9
 281 424 281 424 283.5 426.5 c 128,-1,10
 286 429 286 429 290.5 435 c 128,-1,11
 295 441 295 441 297.5 444 c 0,12,13
 304.166666667 452 304.166666667 452 309 452 c 0,14,15
 322 452 322 452 322 441 c 0,16,17
 322 436 322 436 316 423.5 c 128,-1,18
 310 411 310 411 303 394.5 c 128,-1,19
 296 378 296 378 293 370 c 128,-1,20
 290 362 290 362 287.5 355.5 c 128,-1,21
 285 349 285 349 282.5 347.5 c 0,22,23
 276.666666667 344 276.666666667 344 267 344 c 0,24,25
 108 343 108 343 105 334 c 0,26,27
 90 299 90 299 90 289 c 128,-1,28
 90 279 90 279 113.5 272.5 c 0,29,30
 201.973415133 248.028629857 201.973415133 248.028629857 241 206 c 0,31,32
 254 192 254 192 269 158.5 c 128,-1,33
 284 125 284 125 284 84 c 0,34,35
 284 -1 284 -1 238 -78 c 0,36,37
 163 -205 163 -205 24 -205 c 0,38,39
 -3 -205 -3 -205 -33 -188 c 0,40,41
 -39 -184 -39 -184 -43 -160.5 c 128,-1,42
 -47 -137 -47 -137 -47 -127 c 0,43,44
 -47 -99 -47 -99 -35 -99 c 0,45,46
 -27 -99 -27 -99 -13.5 -114.5 c 0,47,48
 27.8709677419 -162 27.8709677419 -162 82.935483871 -162 c 128,-1,49
 138 -162 138 -162 178.5 -98 c 128,-1,50
 219 -34 219 -34 219 43 c 0,51,52
 219 90 219 90 206.5 118.5 c 128,-1,53
 194 147 194 147 163.5 168.5 c 128,-1,54
 133 190 133 190 109.5 198 c 128,-1,55
 86 206 86 206 72 207.5 c 0,56,57
 39 211.035714286 39 211.035714286 39 229 c 0,58,59
 39 239 39 239 43 247.5 c 0,60,61
 66.5862068966 297.620689655 66.5862068966 297.620689655 94 389 c 0,62,63
 101 413 101 413 125 413 c 2,0,-1
EndSplineSet
Substitution2: "'lnum' Lining Figures in Latin lookup 11 subtable" five.lining
Substitution2: "'subs' Subscript in Latin lookup 10 subtable" five.lining.sub
Substitution2: "'sups' Superscript in Latin lookup 9 subtable" five.lining.sup
Substitution2: "'dnom' Denominators in Latin lookup 4 subtable" five.lining.denom
Substitution2: "'numr' Numerators in Latin lookup 3 subtable" five.lining.numer
AlternateSubs2: "'aalt' Access All Alternates in Latin lookup 1 subtable" five.lining five.lining.sub five.lining.sup five.lining.denom five.lining.numer
AlternateSubs2: "'aalt' Access All Alternates lookup 0 subtable" five.lining five.lining.sub five.lining.sup five.lining.denom five.lining.numer
EndChar

StartChar: six
Encoding: 54 54 25
Width: 497
GlyphClass: 2
Flags: HW
LayerCount: 2
Fore
SplineSet
44 255 m 0,0,1
 44 369 44 369 108.5 472 c 128,-1,2
 173 575 173 575 264 638 c 0,3,4
 301 664 301 664 344.5 679 c 128,-1,5
 388 694 388 694 407 694 c 128,-1,6
 426 694 426 694 426 681 c 128,-1,7
 426 668 426 668 416 667 c 0,8,9
 372 661 372 661 341 645 c 128,-1,10
 310 629 310 629 267 592.5 c 128,-1,11
 224 556 224 556 191.5 501 c 128,-1,12
 159 446 159 446 148 414 c 128,-1,13
 137 382 137 382 137 376.5 c 128,-1,14
 137 371 137 371 139 371 c 128,-1,15
 141 371 141 371 155.5 384.5 c 128,-1,16
 170 398 170 398 198.5 411.5 c 128,-1,17
 227 425 227 425 264 425 c 0,18,19
 351 425 351 425 402 366 c 128,-1,20
 453 307 453 307 453 210 c 128,-1,21
 453 113 453 113 399.5 46.5 c 128,-1,22
 346 -20 346 -20 260 -20 c 128,-1,23
 174 -20 174 -20 103 53 c 0,24,25
 44 115 44 115 44 255 c 0,0,1
129 318.5 m 128,-1,27
 125 298 125 298 125 245.5 c 128,-1,28
 125 193 125 193 139.5 142 c 128,-1,29
 154 91 154 91 177 64 c 0,30,31
 221.296296296 12 221.296296296 12 267.648148148 12 c 128,-1,32
 314 12 314 12 351 53 c 128,-1,33
 388 94 388 94 388 169 c 0,34,35
 388 227.055555556 388 227.055555556 351 299 c 0,36,37
 333 334 333 334 299 358 c 128,-1,38
 265 382 265 382 226.5 382 c 128,-1,39
 188 382 188 382 145 351 c 0,40,41
 138 345 138 345 135.5 342 c 128,-1,26
 133 339 133 339 129 318.5 c 128,-1,27
EndSplineSet
Substitution2: "'lnum' Lining Figures in Latin lookup 11 subtable" six.lining
Substitution2: "'subs' Subscript in Latin lookup 10 subtable" six.lining.sub
Substitution2: "'sups' Superscript in Latin lookup 9 subtable" six.lining.sup
Substitution2: "'dnom' Denominators in Latin lookup 4 subtable" six.lining.denom
Substitution2: "'numr' Numerators in Latin lookup 3 subtable" six.lining.numer
AlternateSubs2: "'aalt' Access All Alternates in Latin lookup 1 subtable" six.lining six.lining.sub six.lining.sup six.lining.denom six.lining.numer
AlternateSubs2: "'aalt' Access All Alternates lookup 0 subtable" six.lining six.lining.sub six.lining.sup six.lining.denom six.lining.numer
EndChar

StartChar: seven
Encoding: 55 55 26
Width: 501
GlyphClass: 2
Flags: HW
LayerCount: 2
Fore
SplineSet
97 -188 m 2,0,-1
 45 -186 l 2,1,2
 23 -186 23 -186 23 -175 c 0,3,4
 23 -160 23 -160 209.5 82 c 128,-1,5
 396 324 396 324 396 335 c 128,-1,6
 396 346 396 346 335 346 c 2,7,-1
 257 346 l 2,8,9
 131.041666667 346 131.041666667 346 97.5 323 c 0,10,11
 80 311 80 311 76 293 c 0,12,13
 74 284 74 284 63.5 284 c 128,-1,14
 53 284 53 284 53 295 c 128,-1,15
 53 306 53 306 61.5 344.5 c 128,-1,16
 70 383 70 383 70 398 c 1,17,18
 71 412 71 412 114 412 c 2,19,20
 309 408 l 1,21,22
 422.166666667 408 422.166666667 408 439.583333333 413.5 c 128,-1,23
 457 419 457 419 462.5 421.5 c 128,-1,24
 468 424 468 424 471 424 c 0,25,26
 482 424 482 424 482 414 c 128,-1,27
 482 404 482 404 449 354 c 2,28,-1
 182 -40 l 2,29,30
 128.752066116 -118.305785124 128.752066116 -118.305785124 113 -169.5 c 0,31,32
 108.509433962 -184.094339623 108.509433962 -184.094339623 105.254716981 -186.047169811 c 128,-1,33
 102 -188 102 -188 97 -188 c 2,0,-1
EndSplineSet
Substitution2: "'lnum' Lining Figures in Latin lookup 11 subtable" seven.lining
Substitution2: "'subs' Subscript in Latin lookup 10 subtable" seven.lining.sub
Substitution2: "'sups' Superscript in Latin lookup 9 subtable" seven.lining.sup
Substitution2: "'dnom' Denominators in Latin lookup 4 subtable" seven.lining.denom
Substitution2: "'numr' Numerators in Latin lookup 3 subtable" seven.lining.numer
AlternateSubs2: "'aalt' Access All Alternates in Latin lookup 1 subtable" seven.lining seven.lining.sub seven.lining.sup seven.lining.denom seven.lining.numer
AlternateSubs2: "'aalt' Access All Alternates lookup 0 subtable" seven.lining seven.lining.sub seven.lining.sup seven.lining.denom seven.lining.numer
EndChar

StartChar: eight
Encoding: 56 56 27
Width: 500
GlyphClass: 2
Flags: HW
LayerCount: 2
Fore
SplineSet
64 75.5 m 128,-1,1
 39 122 39 122 39 170.5 c 128,-1,2
 39 219 39 219 52.5 250 c 128,-1,3
 66 281 66 281 85.5 298 c 128,-1,4
 105 315 105 315 124.5 326 c 128,-1,5
 144 337 144 337 157.5 342.5 c 128,-1,6
 171 348 171 348 171 350 c 128,-1,7
 171 352 171 352 153.5 364 c 128,-1,8
 136 376 136 376 115 392 c 128,-1,9
 94 408 94 408 76.5 440 c 128,-1,10
 59 472 59 472 59 510 c 0,11,12
 59 587 59 587 110.5 637 c 128,-1,13
 162 687 162 687 244.5 687 c 128,-1,14
 327 687 327 687 374 641.5 c 128,-1,15
 421 596 421 596 421 524 c 0,16,17
 421 458.035714286 421 458.035714286 388 421.5 c 0,18,19
 367.027667984 398.280632411 367.027667984 398.280632411 347.013833992 385.640316206 c 128,-1,20
 327 373 327 373 327 371 c 0,21,22
 327 367 327 367 348 354 c 128,-1,23
 369 341 369 341 394 323.5 c 128,-1,24
 419 306 419 306 440 269.5 c 128,-1,25
 461 233 461 233 461 188 c 0,26,27
 461 106 461 106 409 42 c 128,-1,28
 357 -22 357 -22 256 -22 c 0,29,30
 177 -22 177 -22 133 3.5 c 128,-1,0
 89 29 89 29 64 75.5 c 128,-1,1
83 180 m 0,31,32
 83 105 83 105 130.5 57 c 128,-1,33
 178 9 178 9 251 9 c 128,-1,34
 324 9 324 9 361 53.5 c 128,-1,35
 398 98 398 98 398 156.5 c 128,-1,36
 398 215 398 215 329 273.5 c 128,-1,37
 260 332 260 332 227 332 c 0,38,39
 202 332 202 332 174.5 319.5 c 128,-1,40
 147 307 147 307 128.5 291.5 c 128,-1,41
 110 276 110 276 96.5 247 c 128,-1,42
 83 218 83 218 83 180 c 0,31,32
157.5 623 m 128,-1,44
 117 590 117 590 117 536 c 128,-1,45
 117 482 117 482 184 437 c 128,-1,46
 251 392 251 392 280 392 c 128,-1,47
 309 392 309 392 346.5 429.5 c 128,-1,48
 384 467 384 467 384 527 c 0,49,50
 384 567 384 567 347.5 611.5 c 128,-1,51
 311 656 311 656 254.5 656 c 128,-1,43
 198 656 198 656 157.5 623 c 128,-1,44
EndSplineSet
Substitution2: "'lnum' Lining Figures in Latin lookup 11 subtable" eight.lining
Substitution2: "'subs' Subscript in Latin lookup 10 subtable" eight.lining.sub
Substitution2: "'sups' Superscript in Latin lookup 9 subtable" eight.lining.sup
Substitution2: "'dnom' Denominators in Latin lookup 4 subtable" eight.lining.denom
Substitution2: "'numr' Numerators in Latin lookup 3 subtable" eight.lining.numer
AlternateSubs2: "'aalt' Access All Alternates in Latin lookup 1 subtable" eight.lining eight.lining.sub eight.lining.sup eight.lining.denom eight.lining.numer
AlternateSubs2: "'aalt' Access All Alternates lookup 0 subtable" eight.lining eight.lining.sub eight.lining.sup eight.lining.denom eight.lining.numer
EndChar

StartChar: nine
Encoding: 57 57 28
Width: 486
GlyphClass: 2
Flags: HW
LayerCount: 2
Fore
SplineSet
87.5 47 m 128,-1,1
 39 105 39 105 39 190.5 c 128,-1,2
 39 276 39 276 95 349 c 128,-1,3
 151 422 151 422 245 422 c 128,-1,4
 339 422 339 422 393 351 c 128,-1,5
 447 280 447 280 447 180 c 128,-1,6
 447 80 447 80 402 -11 c 128,-1,7
 357 -102 357 -102 268 -163 c 0,8,9
 208 -205 208 -205 114 -205 c 0,10,11
 95 -205 95 -205 95 -188 c 0,12,13
 95 -174 95 -174 121 -174 c 0,14,15
 181 -174 181 -174 252 -114 c 0,16,17
 290 -82 290 -82 316 -38 c 128,-1,18
 342 6 342 6 342 25 c 0,19,20
 342 27 342 27 340.5 27 c 128,-1,21
 339 27 339 27 327.5 17.5 c 128,-1,22
 316 8 316 8 290 -1.5 c 128,-1,23
 264 -11 264 -11 227 -11 c 0,24,0
 136 -11 136 -11 87.5 47 c 128,-1,1
142.5 347.5 m 128,-1,26
 109 309 109 309 109 237 c 128,-1,27
 109 165 109 165 154 99.5 c 128,-1,28
 199 34 199 34 263 34 c 0,29,30
 299.32 34 299.32 34 332 55.5 c 0,31,32
 374 83.1315789474 374 83.1315789474 374 174.065789474 c 128,-1,33
 374 265 374 265 326.5 325.5 c 128,-1,34
 279 386 279 386 220 386 c 0,35,25
 176 386 176 386 142.5 347.5 c 128,-1,26
EndSplineSet
Substitution2: "'lnum' Lining Figures in Latin lookup 11 subtable" nine.lining
Substitution2: "'subs' Subscript in Latin lookup 10 subtable" nine.lining.sub
Substitution2: "'sups' Superscript in Latin lookup 9 subtable" nine.lining.sup
Substitution2: "'dnom' Denominators in Latin lookup 4 subtable" nine.lining.denom
Substitution2: "'numr' Numerators in Latin lookup 3 subtable" nine.lining.numer
AlternateSubs2: "'aalt' Access All Alternates in Latin lookup 1 subtable" nine.lining nine.lining.sub nine.lining.sup nine.lining.denom nine.lining.numer
AlternateSubs2: "'aalt' Access All Alternates lookup 0 subtable" nine.lining nine.lining.sub nine.lining.sup nine.lining.denom nine.lining.numer
EndChar

StartChar: colon
Encoding: 58 58 29
Width: 260
GlyphClass: 2
Flags: HW
LayerCount: 2
Fore
SplineSet
89 21 m 0,0,1
 59 42 59 42 59 52.5 c 128,-1,2
 59 63 59 63 94 94 c 0,3,4
 97 97 97 97 105.5 107 c 0,5,6
 122.5 127 122.5 127 136 127 c 0,7,8
 140.5 127 140.5 127 145.75 121 c 128,-1,9
 151 115 151 115 154.5 111.5 c 128,-1,10
 158 108 158 108 163 101 c 128,-1,11
 168 94 168 94 171.5 90.5 c 128,-1,12
 175 87 175 87 183.5 79.5 c 0,13,14
 202 63.1764705882 202 63.1764705882 202 56.5882352941 c 128,-1,15
 202 50 202 50 197 44.5 c 128,-1,16
 192 39 192 39 182 31 c 2,17,-1
 167 19 l 2,18,19
 163 15 163 15 156 5 c 0,20,21
 141.3 -16 141.3 -16 132.15 -16 c 128,-1,22
 123 -16 123 -16 116 -9 c 128,-1,23
 109 -2 109 -2 101.5 7.5 c 128,-1,24
 94 17 94 17 89 21 c 0,0,1
96 373 m 0,25,26
 100 377 100 377 106.5 386 c 128,-1,27
 113 395 113 395 119.5 400.5 c 128,-1,28
 126 406 126 406 134 406 c 128,-1,29
 142 406 142 406 170 369 c 0,30,31
 172 366 172 366 179.5 359.5 c 0,32,33
 196 345.2 196 345.2 196 338.1 c 128,-1,34
 196 331 196 331 193 326.5 c 128,-1,35
 190 322 190 322 186.5 319 c 2,36,-1
 176 310 l 2,37,38
 163.895833333 299.625 163.895833333 299.625 156.447916667 289.3125 c 128,-1,39
 149 279 149 279 143 273.5 c 128,-1,40
 137 268 137 268 130 268 c 128,-1,41
 123 268 123 268 116.5 274.5 c 128,-1,42
 110 281 110 281 104.5 290.5 c 128,-1,43
 99 300 99 300 95.5 303.5 c 128,-1,44
 92 307 92 307 85.5 312.5 c 128,-1,45
 79 318 79 318 75.5 321.5 c 0,46,47
 66 331 66 331 66 339 c 128,-1,48
 66 347 66 347 96 373 c 0,25,26
EndSplineSet
EndChar

StartChar: semicolon
Encoding: 59 59 30
Width: 262
GlyphClass: 2
Flags: HW
LayerCount: 2
Fore
SplineSet
90 379 m 0,0,1
 94 383 94 383 100 392 c 0,2,3
 114 413 114 413 128 413 c 0,4,5
 136 413 136 413 165 375 c 0,6,7
 168 372 168 372 175.5 365.5 c 0,8,9
 193 350.333333333 193 350.333333333 193 343.166666667 c 128,-1,10
 193 336 193 336 190 331.5 c 128,-1,11
 187 327 187 327 183.5 324 c 2,12,-1
 173 315 l 2,13,14
 166 309 166 309 162.5 306 c 128,-1,15
 159 303 159 303 152 293.5 c 128,-1,16
 145 284 145 284 138.5 278.5 c 128,-1,17
 132 273 132 273 125 273 c 128,-1,18
 118 273 118 273 111.5 279.5 c 128,-1,19
 105 286 105 286 99 296 c 128,-1,20
 93 306 93 306 89.5 309.5 c 128,-1,21
 86 313 86 313 79.5 318.5 c 128,-1,22
 73 324 73 324 69 327.5 c 0,23,24
 59 336.25 59 336.25 59 344.125 c 128,-1,25
 59 352 59 352 90 379 c 0,0,1
79 33 m 1,26,27
 62 51 62 51 61.5 55.5 c 128,-1,28
 61 60 61 60 65 65.5 c 128,-1,29
 69 71 69 71 79.5 80.5 c 128,-1,30
 90 90 90 90 93 93 c 128,-1,31
 96 96 96 96 103 106 c 0,32,33
 116.3 125 116.3 125 134 125 c 0,34,35
 140.55 125 140.55 125 155.775 110.5 c 128,-1,36
 171 96 171 96 180.5 82 c 0,37,38
 204 47.3684210526 204 47.3684210526 204 -7.81578947368 c 128,-1,39
 204 -63 204 -63 158 -115.5 c 128,-1,40
 112 -168 112 -168 85 -168 c 0,41,42
 82 -168 82 -168 77.5 -163.5 c 128,-1,43
 73 -159 73 -159 73 -152.5 c 128,-1,44
 73 -146 73 -146 88 -133.5 c 0,45,46
 134 -95.1666666667 134 -95.1666666667 134 -48 c 0,47,48
 134 -22 134 -22 121 -5.5 c 128,-1,49
 108 11 108 11 79 33 c 1,26,27
EndSplineSet
EndChar

StartChar: less
Encoding: 60 60 31
Width: 527
GlyphClass: 2
Flags: HW
LayerCount: 2
Fore
SplineSet
43 196 m 128,-1,1
 41 200 41 200 41 208.5 c 128,-1,2
 41 217 41 217 41.5 219.5 c 0,3,4
 42.65625 225.28125 42.65625 225.28125 56 231 c 0,5,6
 394.709677419 353.580645161 394.709677419 353.580645161 430.35483871 367.290322581 c 128,-1,7
 466 381 466 381 468 381 c 0,8,9
 487 381 487 381 487 356 c 0,10,11
 487 344 487 344 471 340 c 1,12,-1
 166 229 l 2,13,14
 124 214 124 214 124 208 c 0,15,16
 124 205 124 205 166 190 c 2,17,-1
 476 78 l 2,18,19
 487 74 487 74 487 65.5 c 128,-1,20
 487 57 487 57 481 49 c 128,-1,21
 475 41 475 41 463 41 c 0,22,23
 460 41 460 41 55 188 c 0,24,0
 45 192 45 192 43 196 c 128,-1,1
EndSplineSet
EndChar

StartChar: greater
Encoding: 62 62 33
Width: 527
GlyphClass: 2
Flags: HW
LayerCount: 2
Fore
SplineSet
46.5 49 m 128,-1,1
 41 57 41 57 41 66 c 128,-1,2
 41 75 41 75 51 78 c 2,3,-1
 362 190 l 2,4,5
 404 205 404 205 404 208 c 0,6,7
 404 214 404 214 362 229 c 2,8,-1
 56 340 l 1,9,10
 41 344 41 344 41 356 c 0,11,12
 41 381 41 381 59 381 c 0,13,14
 62 381 62 381 161.5 344 c 128,-1,15
 261 307 261 307 471 231 c 0,16,17
 487 225 487 225 487 212.5 c 128,-1,18
 487 200 487 200 484.5 196 c 128,-1,19
 482 192 482 192 472 188 c 0,20,21
 67 41 67 41 64 41 c 0,22,0
 52 41 52 41 46.5 49 c 128,-1,1
EndSplineSet
EndChar

StartChar: question
Encoding: 63 63 34
Width: 350
GlyphClass: 2
Flags: HW
LayerCount: 2
Fore
SplineSet
173 251 m 1,0,-1
 178 205 l 1,1,2
 178 195 178 195 170 195 c 0,3,4
 155 195 155 195 146.5 223 c 128,-1,5
 138 251 138 251 138 280.5 c 128,-1,6
 138 310 138 310 184 414 c 128,-1,7
 230 518 230 518 230 552.5 c 128,-1,8
 230 587 230 587 198 607.5 c 128,-1,9
 166 628 166 628 143.5 628 c 128,-1,10
 121 628 121 628 103 615.5 c 128,-1,11
 85 603 85 603 84 603 c 0,12,13
 75 603 75 603 75 612 c 0,14,15
 75 629 75 629 107 651 c 128,-1,16
 139 673 139 673 186 673 c 128,-1,17
 233 673 233 673 273 643 c 128,-1,18
 313 613 313 613 313 559 c 0,19,20
 313 526 313 526 291 484 c 128,-1,21
 269 442 269 442 243 408 c 128,-1,22
 217 374 217 374 195 330 c 128,-1,23
 173 286 173 286 173 251 c 1,0,-1
112 39 m 128,-1,25
 97 51 97 51 97 60 c 128,-1,26
 97 69 97 69 133 100 c 0,27,28
 137 103 137 103 145 112.5 c 0,29,30
 161.421052632 132 161.421052632 132 168.710526316 132 c 0,31,32
 180 132 180 132 200 107 c 1,33,-1
 207 97 l 1,34,-1
 217 89 l 2,35,36
 241 69.8 241 69.8 241 62 c 128,-1,37
 241 54 241 54 235.5 48 c 128,-1,38
 230 42 230 42 220 35.5 c 128,-1,39
 210 29 210 29 206.5 25.5 c 128,-1,40
 203 22 203 22 195.5 12 c 128,-1,41
 188 2 188 2 182 -3.5 c 128,-1,42
 176 -9 176 -9 170 -9 c 128,-1,43
 164 -9 164 -9 151.5 2 c 128,-1,44
 139 13 139 13 133 20 c 128,-1,24
 127 27 127 27 112 39 c 128,-1,25
EndSplineSet
Position2: "'cpsp' Capital Spacing in Latin lookup 0 subtable" dx=10 dy=0 dh=20 dv=0
EndChar

StartChar: at
Encoding: 64 64 35
Width: 821
GlyphClass: 2
Flags: HW
LayerCount: 2
Fore
SplineSet
44 286 m 0,0,1
 44 382 44 382 76.5 458 c 128,-1,2
 109 534 109 534 156.5 577.5 c 128,-1,3
 204 621 204 621 264 649.5 c 0,4,5
 364 697 364 697 463 697 c 0,6,7
 602 697 602 697 689.5 608.5 c 128,-1,8
 777 520 777 520 777 392 c 0,9,10
 777 283 777 283 708.5 206 c 128,-1,11
 640 129 640 129 549 129 c 0,12,13
 517 129 517 129 498 141.5 c 128,-1,14
 479 154 479 154 475 169 c 128,-1,15
 471 184 471 184 469 196.5 c 128,-1,16
 467 209 467 209 465 209 c 128,-1,17
 463 209 463 209 449.5 193.5 c 128,-1,18
 436 178 436 178 418 160 c 128,-1,19
 400 142 400 142 370.5 126.5 c 128,-1,20
 341 111 341 111 302 111 c 128,-1,21
 263 111 263 111 240 137.5 c 128,-1,22
 217 164 217 164 217 214.5 c 128,-1,23
 217 265 217 265 248.5 330 c 128,-1,24
 280 395 280 395 335 441.5 c 128,-1,25
 390 488 390 488 448 488 c 0,26,27
 467 488 467 488 492.5 483.5 c 128,-1,28
 518 479 518 479 520 479 c 0,29,30
 527 479 527 479 539 499 c 128,-1,31
 551 519 551 519 562 519 c 0,32,33
 570 519 570 519 570 507.5 c 128,-1,34
 570 496 570 496 558 447.5 c 0,35,36
 521 297.958333333 521 297.958333333 521 246 c 2,37,-1
 521 233 l 2,38,39
 521 174 521 174 562 174 c 0,40,41
 638 174 638 174 687 231.5 c 128,-1,42
 736 289 736 289 736 404.5 c 128,-1,43
 736 520 736 520 658 589.5 c 128,-1,44
 580 659 580 659 464 659 c 0,45,46
 313 659 313 659 208.5 558.5 c 128,-1,47
 104 458 104 458 104 297 c 0,48,49
 104 155 104 155 192.5 64 c 128,-1,50
 281 -27 281 -27 423 -27 c 0,51,52
 486 -27 486 -27 537 -10.5 c 128,-1,53
 588 6 588 6 614 22 c 128,-1,54
 640 38 640 38 641 38 c 0,55,56
 652 38 652 38 652 26 c 0,57,58
 652 11.5 652 11.5 608 -13.5 c 0,59,60
 519.12 -64 519.12 -64 405 -64 c 0,61,62
 245 -64 245 -64 144.5 29 c 128,-1,63
 44 122 44 122 44 286 c 0,0,1
284 227 m 0,64,65
 284 197 284 197 301.5 182 c 128,-1,66
 319 167 319 167 346.5 167 c 128,-1,67
 374 167 374 167 401 184 c 128,-1,68
 428 201 428 201 439 217.5 c 128,-1,69
 450 234 450 234 476 333 c 128,-1,70
 502 432 502 432 502 437 c 128,-1,71
 502 442 502 442 480 449 c 128,-1,72
 458 456 458 456 440 456 c 0,73,74
 391 456 391 456 337.5 391.5 c 128,-1,75
 284 327 284 327 284 227 c 0,64,65
EndSplineSet
EndChar

StartChar: A
Encoding: 65 65 36
Width: 812
GlyphClass: 2
Flags: HW
LayerCount: 2
Fore
SplineSet
135 0 m 1,0,-1
 49 -4 l 1,1,2
 20 -4 20 -4 20 8 c 0,3,4
 20 22 20 22 35 27 c 0,5,6
 67 39 67 39 91 80.5 c 128,-1,7
 115 122 115 122 211.5 331.5 c 128,-1,8
 308 541 308 541 383 701 c 0,9,10
 390 716 390 716 395.5 720 c 128,-1,11
 401 724 401 724 411.5 724 c 128,-1,12
 422 724 422 724 425 720 c 128,-1,13
 428 716 428 716 436 693 c 128,-1,14
 444 670 444 670 448.5 658 c 128,-1,15
 453 646 453 646 463 619 c 128,-1,16
 473 592 473 592 495 538 c 128,-1,17
 517 484 517 484 595.5 301.5 c 128,-1,18
 674 119 674 119 686 94.5 c 128,-1,19
 698 70 698 70 719 52.5 c 128,-1,20
 740 35 740 35 755.5 33.5 c 128,-1,21
 771 32 771 32 781.5 28.5 c 128,-1,22
 792 25 792 25 792 13 c 0,23,24
 792 -2 792 -2 765 -2 c 1,25,-1
 675 4 l 1,26,-1
 582 0 l 1,27,28
 551 0 551 0 542.5 2.5 c 128,-1,29
 534 5 534 5 534 13 c 128,-1,30
 534 21 534 21 542 25.5 c 128,-1,31
 550 30 550 30 559 31.5 c 128,-1,32
 568 33 568 33 576 40.5 c 128,-1,33
 584 48 584 48 584 65.5 c 128,-1,34
 584 83 584 83 559 151 c 128,-1,35
 534 219 534 219 517 251 c 0,36,37
 508 268 508 268 476 268 c 2,38,-1
 355 266 l 1,39,-1
 302 266 l 2,40,41
 257 266 257 266 245.5 261 c 128,-1,42
 234 256 234 256 226.5 240 c 128,-1,43
 219 224 219 224 205 195.5 c 128,-1,44
 191 167 191 167 186 156 c 128,-1,45
 181 145 181 145 173.5 127.5 c 0,46,47
 161 98.3333333333 161 98.3333333333 161 78.1666666667 c 128,-1,48
 161 58 161 58 172.5 46 c 128,-1,49
 184 34 184 34 198 32.5 c 0,50,51
 235 28.5357142857 235 28.5357142857 235 13 c 0,52,53
 235 6 235 6 232 2.5 c 128,-1,54
 229 -1 229 -1 218 -1 c 2,55,-1
 135 0 l 1,0,-1
319 459.5 m 128,-1,57
 271 349 271 349 271 337 c 128,-1,58
 271 325 271 325 280 322 c 128,-1,59
 289 319 289 319 322 319 c 2,60,-1
 353 319 l 1,61,-1
 448 320 l 2,62,63
 487 320 487 320 487 334.5 c 128,-1,64
 487 349 487 349 438 459.5 c 128,-1,65
 389 570 389 570 376 570 c 0,66,56
 367 570 367 570 319 459.5 c 128,-1,57
EndSplineSet
Substitution2: "'c2sc' Capitals to Small Capitals in Latin lookup 13 subtable" a.sc
AlternateSubs2: "'aalt' Access All Alternates in Latin lookup 1 subtable" a.sc
AlternateSubs2: "'aalt' Access All Alternates lookup 0 subtable" a.sc
Position2: "'cpsp' Capital Spacing in Latin lookup 0 subtable" dx=10 dy=0 dh=20 dv=0
EndChar

StartChar: B
Encoding: 66 66 37
Width: 630
GlyphClass: 2
Flags: HW
LayerCount: 2
Fore
SplineSet
54 28 m 2,0,-1
 77 29 l 2,1,2
 97.8 29 97.8 29 112 64.5 c 0,3,4
 121 87 121 87 123 137 c 128,-1,5
 125 187 125 187 125 434 c 2,6,-1
 125 604 l 2,7,8
 125 619.666666667 125 619.666666667 115 640.333333333 c 0,9,10
 94.8387096774 682 94.8387096774 682 37 682 c 0,11,12
 20 682 20 682 20 694 c 0,13,14
 20 709 20 709 29 709 c 2,15,-1
 69 708 l 1,16,-1
 215 709 l 1,17,-1
 325 712 l 1,18,19
 416 712 416 712 477 668.5 c 128,-1,20
 538 625 538 625 538 545 c 0,21,22
 538 458.904761905 538 458.904761905 448.5 403.5 c 0,23,24
 438 397 438 397 438 396 c 0,25,26
 438 393 438 393 455 388.5 c 128,-1,27
 472 384 472 384 496 373.5 c 128,-1,28
 520 363 520 363 543.5 345 c 128,-1,29
 567 327 567 327 584 291.5 c 128,-1,30
 601 256 601 256 601 210.5 c 128,-1,31
 601 165 601 165 576 116 c 128,-1,32
 551 67 551 67 512 40 c 128,-1,33
 473 13 473 13 435 2.5 c 128,-1,34
 397 -8 397 -8 350 -8 c 128,-1,35
 303 -8 303 -8 237 -2.5 c 128,-1,36
 171 3 171 3 164 3 c 2,37,-1
 78 -1 l 1,38,-1
 64 -1 l 2,39,40
 43 -1 43 -1 43 13.5 c 128,-1,41
 43 28 43 28 54 28 c 2,0,-1
202 136 m 1,42,-1
 201 92 l 1,43,44
 201 32 201 32 299 32 c 2,45,-1
 322 32 l 2,46,47
 376 32 376 32 415.5 38.5 c 128,-1,48
 455 45 455 45 485.5 86 c 128,-1,49
 516 127 516 127 516 180 c 128,-1,50
 516 233 516 233 498 268.5 c 128,-1,51
 480 304 480 304 457 322 c 128,-1,52
 434 340 434 340 402.5 350 c 0,53,54
 358.4 364 358.4 364 320 364 c 2,55,-1
 241.5 365 l 1,56,-1
 227 366 l 2,57,58
 218 366 218 366 214 363.5 c 128,-1,59
 210 361 210 361 206.5 344.5 c 0,60,61
 202 323.285714286 202 323.285714286 202 204 c 2,62,-1
 202 136 l 1,42,-1
207 545 m 2,63,64
 207 419 207 419 214 405 c 0,65,66
 217.5 398 217.5 398 271 398 c 2,67,-1
 335 398 l 2,68,69
 398 398 398 398 429.5 431 c 128,-1,70
 461 464 461 464 461 518 c 128,-1,71
 461 572 461 572 408.5 624.5 c 128,-1,72
 356 677 356 677 259 677 c 0,73,74
 228 677 228 677 217.5 658.5 c 128,-1,75
 207 640 207 640 207 574 c 2,76,-1
 207 545 l 2,63,64
EndSplineSet
Substitution2: "'c2sc' Capitals to Small Capitals in Latin lookup 13 subtable" b.sc
AlternateSubs2: "'aalt' Access All Alternates in Latin lookup 1 subtable" b.sc
AlternateSubs2: "'aalt' Access All Alternates lookup 0 subtable" b.sc
Position2: "'cpsp' Capital Spacing in Latin lookup 0 subtable" dx=10 dy=0 dh=20 dv=0
EndChar

StartChar: C
Encoding: 67 67 38
Width: 807
GlyphClass: 2
Flags: HW
LayerCount: 2
Fore
SplineSet
86 520 m 128,-1,1
 128 607 128 607 215.5 660.5 c 128,-1,2
 303 714 303 714 423 714 c 0,3,4
 484 714 484 714 546 696 c 128,-1,5
 608 678 608 678 645 660 c 2,6,-1
 682 641 l 1,7,8
 685 641 685 641 692 646 c 128,-1,9
 699 651 699 651 703.5 651 c 128,-1,10
 708 651 708 651 713 647 c 128,-1,11
 718 643 718 643 718.5 624.5 c 128,-1,12
 719 606 719 606 722.5 573.5 c 128,-1,13
 726 541 726 541 729 520 c 128,-1,14
 732 499 732 499 732 495 c 0,15,16
 732 477 732 477 720 477 c 0,17,18
 711 477 711 477 703 491 c 0,19,20
 606 673 606 673 423 673 c 0,21,22
 298 673 298 673 218 593 c 128,-1,23
 138 513 138 513 138 384 c 0,24,25
 138 239.813333333 138 239.813333333 212.5 137.5 c 0,26,27
 250 86 250 86 316 56 c 128,-1,28
 382 26 382 26 470 26 c 0,29,30
 614 26 614 26 712 176 c 0,31,32
 716 183 716 183 727 183 c 0,33,34
 736 183 736 183 736 170.5 c 128,-1,35
 736 158 736 158 732.5 139.5 c 128,-1,36
 729 121 729 121 724 98.5 c 128,-1,37
 719 76 719 76 718 71 c 0,38,39
 716 60 716 60 702 53 c 0,40,41
 648 27 648 27 617.5 14 c 0,42,43
 537.730769231 -20 537.730769231 -20 447.365384615 -20 c 128,-1,44
 357 -20 357 -20 287 1 c 128,-1,45
 217 22 217 22 172.5 56 c 128,-1,46
 128 90 128 90 98 135.5 c 0,47,48
 44 217.4 44 217.4 44 325.2 c 128,-1,0
 44 433 44 433 86 520 c 128,-1,1
EndSplineSet
Substitution2: "'c2sc' Capitals to Small Capitals in Latin lookup 13 subtable" c.sc
AlternateSubs2: "'aalt' Access All Alternates in Latin lookup 1 subtable" c.sc
AlternateSubs2: "'aalt' Access All Alternates lookup 0 subtable" c.sc
Position2: "'cpsp' Capital Spacing in Latin lookup 0 subtable" dx=10 dy=0 dh=20 dv=0
EndChar

StartChar: D
Encoding: 68 68 39
Width: 792
GlyphClass: 2
Flags: HW
LayerCount: 2
Fore
SplineSet
114 369 m 1,0,-1
 113 623 l 2,1,2
 113 640 113 640 96.5 657.5 c 128,-1,3
 80 675 80 675 63 676 c 128,-1,4
 46 677 46 677 39.5 678 c 128,-1,5
 33 679 33 679 26.5 684.5 c 128,-1,6
 20 690 20 690 20 699.5 c 128,-1,7
 20 709 20 709 28.5 710.5 c 128,-1,8
 37 712 37 712 71 712 c 2,9,-1
 158 712 l 1,10,-1
 353 716 l 1,11,12
 498.329113924 716 498.329113924 716 618 634.5 c 0,13,14
 676 595 676 595 712 531.5 c 128,-1,15
 748 468 748 468 748 394 c 128,-1,16
 748 320 748 320 738.5 268.5 c 128,-1,17
 729 217 729 217 707 179.5 c 128,-1,18
 685 142 685 142 663 118.5 c 128,-1,19
 641 95 641 95 607 67 c 128,-1,20
 573 39 573 39 516 18 c 128,-1,21
 459 -3 459 -3 399 -3 c 1,22,-1
 159 2 l 2,23,24
 124 2 124 2 94 -0.5 c 128,-1,25
 64 -3 64 -3 59 -3 c 0,26,27
 35 -3 35 -3 35 10 c 0,28,29
 35 18 35 18 38.5 21.5 c 128,-1,30
 42 25 42 25 53.5 28 c 128,-1,31
 65 31 65 31 70 33 c 0,32,33
 86 40 86 40 99.5 59.5 c 128,-1,34
 113 79 113 79 113 98 c 2,35,36
 114 369 l 1,0,-1
198 354 m 1,37,-1
 197 141 l 2,38,39
 197 94 197 94 207 74 c 0,40,41
 211.631578947 64.7368421053 211.631578947 64.7368421053 225.815789474 60.8684210526 c 128,-1,42
 240 57 240 57 258 52 c 128,-1,43
 276 47 276 47 299.5 40.5 c 128,-1,44
 323 34 323 34 361 34 c 2,45,-1
 381 34 l 2,46,47
 449 34 449 34 497 53.5 c 128,-1,48
 545 73 545 73 589 115 c 0,49,50
 663 186 663 186 663 345 c 0,51,52
 663 425 663 425 631.5 490 c 128,-1,53
 600 555 600 555 549 593.5 c 0,54,55
 443.688311688 673 443.688311688 673 320 673 c 2,56,-1
 280.5 673 l 2,57,58
 231.529411765 673 231.529411765 673 216 656.5 c 0,59,60
 208 648 208 648 206.5 642 c 128,-1,61
 205 636 205 636 202.5 618.5 c 128,-1,62
 200 601 200 601 200 588 c 2,63,-1
 200 546 l 1,64,-1
 198 354 l 1,37,-1
EndSplineSet
Substitution2: "'c2sc' Capitals to Small Capitals in Latin lookup 13 subtable" d.sc
AlternateSubs2: "'aalt' Access All Alternates in Latin lookup 1 subtable" d.sc
AlternateSubs2: "'aalt' Access All Alternates lookup 0 subtable" d.sc
Position2: "'cpsp' Capital Spacing in Latin lookup 0 subtable" dx=10 dy=0 dh=20 dv=0
EndChar

StartChar: E
Encoding: 69 69 40
Width: 604
GlyphClass: 2
Flags: HW
LayerCount: 2
Fore
SplineSet
116 355 m 1,0,-1
 119 528 l 2,1,2
 119 555 119 555 117 619 c 0,3,4
 116 648 116 648 92 664 c 128,-1,5
 68 680 68 680 36 681 c 0,6,7
 20 681 20 681 20 699 c 0,8,9
 20 713 20 713 48 713 c 1,10,-1
 75 711 l 1,11,-1
 319 706 l 1,12,-1
 519 710 l 2,13,14
 538 710 538 710 538 687 c 0,15,16
 538 681 538 681 532 647.5 c 128,-1,17
 526 614 526 614 526 595 c 0,18,19
 526 563 526 563 510.5 563 c 128,-1,20
 495 563 495 563 495 587 c 128,-1,21
 495 611 495 611 478 633 c 128,-1,22
 461 655 461 655 436 656 c 0,23,24
 346 663 346 663 298 663 c 2,25,-1
 272 663 l 2,26,27
 220 663 220 663 211.5 655.5 c 0,28,29
 197 642.705882353 197 642.705882353 197 435 c 0,30,31
 197 385 197 385 216 384 c 1,32,-1
 314 384 l 2,33,34
 374 384 374 384 394 388 c 0,35,36
 446.068965517 398.413793103 446.068965517 398.413793103 453 440 c 0,37,38
 456 457 456 457 466 457 c 128,-1,39
 476 457 476 457 478 454 c 128,-1,40
 480 451 480 451 480 441 c 2,41,-1
 472 336 l 1,42,-1
 475 275 l 1,43,44
 475 250 475 250 468 250 c 0,45,46
 453 250 453 250 446 274 c 0,47,48
 432 316 432 316 421 323 c 0,49,50
 400 337 400 337 347.5 337 c 2,51,-1
 276.5 337 l 1,52,-1
 243.5 338 l 1,53,-1
 237 338 l 2,54,55
 196 338 196 338 196 319 c 2,56,-1
 194 175 l 1,57,-1
 194 135 l 2,58,59
 194 63 194 63 218.5 55.5 c 128,-1,60
 243 48 243 48 261 48 c 0,61,62
 411 48 411 48 477.5 72.5 c 0,63,64
 536.860248447 94.3695652174 536.860248447 94.3695652174 549.5 118.5 c 0,65,66
 562.333333333 143 562.333333333 143 572 143 c 0,67,68
 584 143 584 143 584 126 c 0,69,70
 584 83 584 83 541 39 c 128,-1,71
 498 -5 498 -5 466 -5 c 0,72,73
 394 -5 394 -5 303.5 0 c 128,-1,74
 213 5 213 5 191 5 c 1,75,-1
 55 -4 l 1,76,77
 34 -4 34 -4 34 5.5 c 2,78,-1
 34 18 l 2,79,80
 34 24.1428571429 34 24.1428571429 43.5 25.5 c 0,81,82
 55.4583333333 27.2083333333 55.4583333333 27.2083333333 78.2291666667 38.1041666667 c 128,-1,83
 101 49 101 49 108.5 84 c 128,-1,84
 116 119 116 119 116 231 c 2,85,-1
 116 355 l 1,0,-1
EndSplineSet
Substitution2: "'c2sc' Capitals to Small Capitals in Latin lookup 13 subtable" e.sc
AlternateSubs2: "'aalt' Access All Alternates in Latin lookup 1 subtable" e.sc
AlternateSubs2: "'aalt' Access All Alternates lookup 0 subtable" e.sc
Position2: "'cpsp' Capital Spacing in Latin lookup 0 subtable" dx=10 dy=0 dh=20 dv=0
EndChar

StartChar: F
Encoding: 70 70 41
Width: 554
GlyphClass: 2
Flags: HW
LayerCount: 2
Fore
SplineSet
20 697 m 0,0,1
 20 704.153846154 20 704.153846154 28 709.076923077 c 128,-1,2
 36 714 36 714 46 714 c 2,3,-1
 73 714 l 2,4,5
 97 714 97 714 150.5 711 c 128,-1,6
 204 708 204 708 290 708 c 1,7,-1
 517 713 l 2,8,9
 534 713 534 713 534 689 c 0,10,11
 534 675.5 534 675.5 528 641.75 c 128,-1,12
 522 608 522 608 520 587.5 c 128,-1,13
 518 567 518 567 504.5 567 c 128,-1,14
 491 567 491 567 491 587 c 0,15,16
 491 653 491 653 445 656 c 0,17,18
 294 668 294 668 257 668 c 128,-1,19
 220 668 220 668 209.5 657 c 128,-1,20
 199 646 199 646 198 612 c 1,21,-1
 198 604 l 1,22,23
 195 550 195 550 195 437 c 0,24,25
 195 388 195 388 213 387 c 2,26,-1
 238 386 l 1,27,-1
 281 387 l 1,28,-1
 312 387 l 2,29,30
 372 387 372 387 391.5 390.5 c 128,-1,31
 411 394 411 394 423.5 402.5 c 128,-1,32
 436 411 436 411 441 419 c 128,-1,33
 446 427 446 427 448 438 c 128,-1,34
 450 449 450 449 453 454 c 128,-1,35
 456 459 456 459 465 459 c 128,-1,36
 474 459 474 459 476 456 c 128,-1,37
 478 453 478 453 478 444.5 c 128,-1,38
 478 436 478 436 473.5 408 c 128,-1,39
 469 380 469 380 469 360 c 1,40,-1
 476 278 l 1,41,42
 476 262 476 262 472.5 257.5 c 128,-1,43
 469 253 469 253 462 253 c 0,44,45
 445 253 445 253 441 278 c 1,46,47
 441 300.5 441 300.5 435.5 308.75 c 0,48,49
 425.818181818 323.272727273 425.818181818 323.272727273 415.409090909 327.636363636 c 128,-1,50
 405 332 405 332 369 336 c 128,-1,51
 333 340 333 340 322 340 c 2,52,-1
 235 340 l 2,53,54
 194 340 194 340 194 321 c 2,55,-1
 192 177 l 1,56,-1
 191 137 l 2,57,58
 191 117 191 117 195 97 c 128,-1,59
 199 77 199 77 218.5 55 c 128,-1,60
 238 33 238 33 269.5 33 c 128,-1,61
 301 33 301 33 301 15 c 0,62,63
 301 6.13333333333 301 6.13333333333 291.5 1.06666666667 c 128,-1,64
 282 -4 282 -4 270 -4 c 2,65,-1
 173 4 l 1,66,-1
 52 -2 l 2,67,68
 32 -2 32 -2 32 9 c 0,69,70
 32 22 32 22 36.5 25 c 128,-1,71
 41 28 41 28 75 40 c 0,72,73
 101 49 101 49 107 93.5 c 0,74,75
 114 145.416666667 114 145.416666667 114 357 c 1,76,-1
 117 531 l 1,77,-1
 117 589 l 2,78,79
 117 655 117 655 70 677 c 0,80,81
 56 683 56 683 38 683 c 128,-1,82
 20 683 20 683 20 697 c 0,0,1
EndSplineSet
Substitution2: "'c2sc' Capitals to Small Capitals in Latin lookup 13 subtable" f.sc
AlternateSubs2: "'aalt' Access All Alternates in Latin lookup 1 subtable" f.sc
AlternateSubs2: "'aalt' Access All Alternates lookup 0 subtable" f.sc
Position2: "'cpsp' Capital Spacing in Latin lookup 0 subtable" dx=10 dy=0 dh=20 dv=0
EndChar

StartChar: G
Encoding: 71 71 42
Width: 818
GlyphClass: 2
Flags: HW
LayerCount: 2
Fore
SplineSet
678 365 m 1,0,-1
 758 366 l 1,1,-1
 773 366 l 2,2,3
 789 366 789 366 789 357 c 0,4,5
 789 350 789 350 763.5 339 c 128,-1,6
 738 328 738 328 735 311 c 0,7,8
 728 268 728 268 728 218.5 c 128,-1,9
 728 169 728 169 729 146 c 128,-1,10
 730 123 730 123 730.5 113.5 c 128,-1,11
 731 104 731 104 732 97 c 128,-1,12
 733 90 733 90 733 86 c 128,-1,13
 733 82 733 82 725.5 79.5 c 128,-1,14
 718 77 718 77 701 72.5 c 128,-1,15
 684 68 684 68 670 59.5 c 128,-1,16
 656 51 656 51 649 47 c 128,-1,17
 642 43 642 43 630.5 37 c 128,-1,18
 619 31 619 31 607 25 c 128,-1,19
 595 19 595 19 580 12.5 c 128,-1,20
 565 6 565 6 549 1 c 128,-1,21
 533 -4 533 -4 516 -8 c 0,22,23
 477.75 -17 477.75 -17 444 -17 c 0,24,25
 335 -17 335 -17 254.5 12.5 c 128,-1,26
 174 42 174 42 130 92.5 c 0,27,28
 44 191.204545455 44 191.204545455 44 329 c 0,29,30
 44 438 44 438 87.5 525 c 128,-1,31
 131 612 131 612 221 665.5 c 128,-1,32
 311 719 311 719 435 719 c 0,33,34
 554.333333333 719 554.333333333 719 641 673.5 c 0,35,36
 661 663 661 663 671.5 655.5 c 128,-1,37
 682 648 682 648 684.5 648 c 128,-1,38
 687 648 687 648 697.5 655.5 c 128,-1,39
 708 663 708 663 712 663 c 0,40,41
 727 663 727 663 727.5 638.5 c 128,-1,42
 728 614 728 614 731.5 582 c 128,-1,43
 735 550 735 550 738 529 c 128,-1,44
 741 508 741 508 741 504 c 0,45,46
 741 487 741 487 729 487 c 128,-1,47
 717 487 717 487 712 499 c 0,48,49
 677 575 677 575 595 627.5 c 128,-1,50
 513 680 513 680 426 680 c 0,51,52
 301 680 301 680 219.5 601.5 c 128,-1,53
 138 523 138 523 138 384 c 0,54,55
 138 292 138 292 172 211 c 128,-1,56
 206 130 206 130 275.5 77 c 128,-1,57
 345 24 345 24 428.5 24 c 128,-1,58
 512 24 512 24 574.5 59 c 128,-1,59
 637 94 637 94 644 139 c 0,60,61
 647 163 647 163 647 265 c 0,62,63
 647 304 647 304 632.5 318.5 c 128,-1,64
 618 333 618 333 587 336.5 c 128,-1,65
 556 340 556 340 552.5 346.5 c 128,-1,66
 549 353 549 353 549 359 c 0,67,68
 549 370 549 370 567 370 c 2,69,-1
 678 365 l 1,0,-1
EndSplineSet
Substitution2: "'c2sc' Capitals to Small Capitals in Latin lookup 13 subtable" g.sc
AlternateSubs2: "'aalt' Access All Alternates in Latin lookup 1 subtable" g.sc
AlternateSubs2: "'aalt' Access All Alternates lookup 0 subtable" g.sc
Position2: "'cpsp' Capital Spacing in Latin lookup 0 subtable" dx=10 dy=0 dh=20 dv=0
EndChar

StartChar: H
Encoding: 72 72 43
Width: 791
GlyphClass: 2
Flags: HW
LayerCount: 2
Fore
SplineSet
121 402 m 1,0,-1
 122 510 l 2,1,2
 122 586 122 586 116 629 c 0,3,4
 113 654 113 654 89.5 668 c 128,-1,5
 66 682 66 682 48.5 682 c 128,-1,6
 31 682 31 682 25.5 688.5 c 128,-1,7
 20 695 20 695 20 699 c 0,8,9
 20 710 20 710 48 710 c 2,10,-1
 161 706 l 1,11,-1
 249 708 l 2,12,13
 271 708 271 708 271 694 c 0,14,15
 271 677 271 677 236 677 c 0,16,17
 216 677 216 677 207 636 c 128,-1,18
 198 595 198 595 198 552 c 2,19,-1
 198 515 l 1,20,-1
 196 423 l 2,21,22
 196 398 196 398 202 391 c 128,-1,23
 208 384 208 384 230 384 c 2,24,-1
 394 385 l 1,25,26
 583 383 l 2,27,28
 594 383 594 383 594 522 c 2,29,-1
 594 576 l 2,30,31
 594 651.48 594 651.48 564.5 668 c 0,32,33
 552 675 552 675 539.5 677 c 128,-1,34
 527 679 527 679 518.5 682.5 c 128,-1,35
 510 686 510 686 510 696 c 128,-1,36
 510 706 510 706 549 706 c 2,37,-1
 646 704 l 1,38,-1
 724 706 l 2,39,40
 747 706 747 706 747 693 c 128,-1,41
 747 680 747 680 733 680 c 0,42,43
 705 680 705 680 690.5 663 c 128,-1,44
 676 646 676 646 676 618 c 2,45,-1
 671 225 l 1,46,-1
 671 188 l 1,47,-1
 675 96 l 1,48,49
 675 31 675 31 759 22 c 1,50,51
 771 22 771 22 771 11 c 0,52,53
 771 4 771 4 761 2 c 128,-1,54
 751 0 751 0 722 0 c 1,55,-1
 645 5 l 1,56,-1
 551 0 l 1,57,-1
 534 0 l 2,58,59
 519.8 0 519.8 0 517.4 4 c 128,-1,60
 515 8 515 8 515 13.5 c 128,-1,61
 515 19 515 19 525 24 c 128,-1,62
 535 29 535 29 547 32 c 128,-1,63
 559 35 559 35 570.5 43.5 c 0,64,65
 591 58.652173913 591 58.652173913 591 138 c 1,66,-1
 594 315 l 2,67,68
 594 330 594 330 582 336 c 128,-1,69
 570 342 570 342 543 342 c 128,-1,70
 516 342 516 342 462 340 c 2,71,-1
 408 339 l 1,72,-1
 224 342 l 2,73,74
 209 342 209 342 204 336 c 128,-1,75
 199 330 199 330 199 305 c 2,76,-1
 195 182 l 1,77,-1
 195 139 l 2,78,79
 195 96 195 96 203 75 c 128,-1,80
 211 54 211 54 242 34 c 0,81,82
 250 29 250 29 271 29 c 0,83,84
 304 29 304 29 304 18 c 0,85,86
 304 0 304 0 272 0 c 1,87,-1
 189 4 l 1,88,-1
 81 -1 l 1,89,90
 34 -1 34 -1 34 14 c 0,91,92
 34 27.625 34 27.625 65 31.5 c 0,93,94
 77 33 77 33 90 44.5 c 128,-1,95
 103 56 103 56 107 75.5 c 128,-1,96
 111 95 111 95 116 181 c 128,-1,97
 121 267 121 267 121 345 c 2,98,-1
 121 402 l 1,0,-1
EndSplineSet
Substitution2: "'c2sc' Capitals to Small Capitals in Latin lookup 13 subtable" h.sc
AlternateSubs2: "'aalt' Access All Alternates in Latin lookup 1 subtable" h.sc
AlternateSubs2: "'aalt' Access All Alternates lookup 0 subtable" h.sc
Position2: "'cpsp' Capital Spacing in Latin lookup 0 subtable" dx=10 dy=0 dh=20 dv=0
EndChar

StartChar: I
Encoding: 73 73 44
Width: 328
GlyphClass: 2
Flags: HW
LayerCount: 2
Fore
SplineSet
119 402 m 1,0,-1
 120 510 l 1,1,-1
 120 556 l 2,2,3
 120 600 120 600 116.5 626.5 c 128,-1,4
 113 653 113 653 89.5 666 c 128,-1,5
 66 679 66 679 43 680 c 128,-1,6
 20 681 20 681 20 695.5 c 128,-1,7
 20 710 20 710 48 710 c 2,8,-1
 161 706 l 1,9,-1
 249 708 l 2,10,11
 276 708 276 708 276 694 c 0,12,13
 276 686 276 686 230 667 c 0,14,15
 198 654 198 654 198 552 c 2,16,-1
 195 182 l 2,17,18
 195 98 195 98 218.5 64 c 128,-1,19
 242 30 242 30 268 30 c 1,20,-1
 288 29 l 2,21,22
 295 29 295 29 302 25.5 c 128,-1,23
 309 22 309 22 309 14.5 c 0,24,25
 309 0 309 0 284 0 c 1,26,-1
 189 4 l 1,27,-1
 79 -1 l 1,28,29
 34 -1 34 -1 34 14 c 0,30,31
 34 27.625 34 27.625 65 31.5 c 0,32,33
 77 33 77 33 90 44.5 c 128,-1,34
 103 56 103 56 106.5 70.5 c 128,-1,35
 110 85 110 85 114.5 191.5 c 128,-1,36
 119 298 119 298 119 345 c 2,37,-1
 119 402 l 1,0,-1
EndSplineSet
Substitution2: "'c2sc' Capitals to Small Capitals in Latin lookup 13 subtable" i.sc
AlternateSubs2: "'aalt' Access All Alternates in Latin lookup 1 subtable" i.sc
AlternateSubs2: "'aalt' Access All Alternates lookup 0 subtable" i.sc
Position2: "'cpsp' Capital Spacing in Latin lookup 0 subtable" dx=10 dy=0 dh=20 dv=0
EndChar

StartChar: J
Encoding: 74 74 45
Width: 290
GlyphClass: 2
Flags: HW
LayerCount: 2
Fore
SplineSet
203 146 m 1,0,-1
 202 69 l 1,1,2
 202 -45 202 -45 140.5 -118.5 c 128,-1,3
 79 -192 79 -192 -5 -192 c 0,4,5
 -45 -192 -45 -192 -45 -154 c 0,6,7
 -45 -139 -45 -139 -33.5 -119 c 128,-1,8
 -22 -99 -22 -99 -15 -99 c 128,-1,9
 -8 -99 -8 -99 7.5 -116 c 128,-1,10
 23 -133 23 -133 44 -133 c 0,11,12
 99 -133 99 -133 113 -55 c 0,13,14
 126 13 126 13 126 45 c 2,15,-1
 126 163 l 1,16,-1
 125 189 l 2,17,18
 125 209 125 209 124.5 224 c 128,-1,19
 124 239 124 239 123.5 256 c 0,20,21
 122 307 122 307 122 450.5 c 128,-1,22
 122 594 122 594 118.5 623.5 c 128,-1,23
 115 653 115 653 91.5 665 c 128,-1,24
 68 677 68 677 44 678 c 128,-1,25
 20 679 20 679 20 696 c 128,-1,26
 20 713 20 713 49 713 c 0,27,28
 59 713 59 713 94.5 710 c 128,-1,29
 130 707 130 707 162 707 c 2,30,31
 243 708 l 2,32,33
 271 708 271 708 271 695 c 0,34,35
 271 686 271 686 225 667 c 0,36,37
 204 659 204 659 204 599 c 2,38,-1
 204 553 l 1,39,-1
 203 146 l 1,0,-1
EndSplineSet
Substitution2: "'c2sc' Capitals to Small Capitals in Latin lookup 13 subtable" j.sc
AlternateSubs2: "'aalt' Access All Alternates in Latin lookup 1 subtable" j.sc
AlternateSubs2: "'aalt' Access All Alternates lookup 0 subtable" j.sc
Position2: "'cpsp' Capital Spacing in Latin lookup 0 subtable" dx=10 dy=0 dh=20 dv=0
EndChar

StartChar: K
Encoding: 75 75 46
Width: 724
GlyphClass: 2
Flags: HW
LayerCount: 2
Fore
SplineSet
119 402 m 1,0,-1
 117 510 l 1,1,-1
 117 556 l 2,2,3
 117 607 117 607 114 630 c 128,-1,4
 111 653 111 653 88.5 666 c 128,-1,5
 66 679 66 679 43 680 c 128,-1,6
 20 681 20 681 20 694.5 c 128,-1,7
 20 708 20 708 48 708 c 2,8,-1
 161 706 l 1,9,-1
 247 708 l 2,10,11
 264 708 264 708 264 695 c 0,12,13
 264 689.210526316 264 689.210526316 249.5 683.105263158 c 128,-1,14
 235 677 235 677 229 674 c 0,15,16
 198 656 198 656 198 552 c 1,17,-1
 195 396 l 2,18,19
 195 375 195 375 203 375 c 128,-1,20
 211 375 211 375 284 434.5 c 128,-1,21
 357 494 357 494 429 563.5 c 128,-1,22
 501 633 501 633 501 655 c 0,23,24
 501 667.428571429 501 667.428571429 491 671.714285714 c 128,-1,25
 481 676 481 676 476 677.5 c 128,-1,26
 471 679 471 679 462 680.5 c 128,-1,27
 453 682 453 682 451 683 c 0,28,29
 440 685 440 685 440 696.5 c 128,-1,30
 440 708 440 708 456 708 c 2,31,-1
 481 707 l 1,32,-1
 541 705 l 1,33,-1
 665 708 l 2,34,35
 685 708 685 708 685 695 c 0,36,37
 685 688 685 688 679 684.5 c 128,-1,38
 673 681 673 681 656 676 c 128,-1,39
 639 671 639 671 630.5 667.5 c 128,-1,40
 622 664 622 664 578 636 c 0,41,42
 569 630 569 630 479.5 554.5 c 128,-1,43
 390 479 390 479 291 396 c 1,44,-1
 280 382 l 1,45,46
 280 377 280 377 309 348 c 128,-1,47
 338 319 338 319 445 213 c 128,-1,48
 552 107 552 107 593 72.5 c 128,-1,49
 634 38 634 38 667 33 c 128,-1,50
 700 28 700 28 704 20 c 0,51,52
 705 18 705 18 705 11.5 c 128,-1,53
 705 5 705 5 696.5 3 c 128,-1,54
 688 1 688 1 647 1 c 2,55,-1
 550 1 l 2,56,57
 534.076923077 1 534.076923077 1 526.038461538 10.5 c 128,-1,58
 518 20 518 20 510.5 28.5 c 0,59,60
 473 71 473 71 453 91 c 0,61,62
 241 306 241 306 230 315 c 256,63,64
 219 324 219 324 211 324 c 0,65,66
 197 324 197 324 197 297 c 2,67,-1
 197 294 l 1,68,-1
 198 271 l 1,69,-1
 198 220 l 2,70,71
 198 89 198 89 215 59.5 c 128,-1,72
 232 30 232 30 280 30 c 1,73,-1
 288 29 l 2,74,75
 295 29 295 29 302 25.5 c 128,-1,76
 309 22 309 22 309 14.5 c 0,77,78
 309 0 309 0 284 0 c 1,79,-1
 189 4 l 1,80,-1
 79 -1 l 1,81,82
 43 -1 43 -1 43 10 c 2,83,-1
 43 14 l 2,84,85
 43 21 43 21 52.5 23.5 c 0,86,87
 89.1428571429 33.1428571429 89.1428571429 33.1428571429 100.571428571 44.5714285714 c 128,-1,88
 112 56 112 56 115.5 106.5 c 128,-1,89
 119 157 119 157 119 268 c 2,90,-1
 119 402 l 1,0,-1
EndSplineSet
Substitution2: "'c2sc' Capitals to Small Capitals in Latin lookup 13 subtable" k.sc
AlternateSubs2: "'aalt' Access All Alternates in Latin lookup 1 subtable" k.sc
AlternateSubs2: "'aalt' Access All Alternates lookup 0 subtable" k.sc
Position2: "'cpsp' Capital Spacing in Latin lookup 0 subtable" dx=10 dy=0 dh=20 dv=0
EndChar

StartChar: L
Encoding: 76 76 47
Width: 603
GlyphClass: 2
Flags: HW
LayerCount: 2
Fore
SplineSet
115 355 m 1,0,-1
 118 528 l 2,1,2
 118 555 118 555 116 619 c 0,3,4
 115 648 115 648 91 664 c 128,-1,5
 67 680 67 680 46 680.5 c 128,-1,6
 25 681 25 681 22.5 684.5 c 128,-1,7
 20 688 20 688 20 695 c 0,8,9
 20 713 20 713 47 713 c 1,10,-1
 74 711 l 1,11,-1
 161 707 l 1,12,-1
 266 711 l 2,13,14
 283 711 283 711 283 701 c 0,15,16
 283 687 283 687 271 682.5 c 128,-1,17
 259 678 259 678 244.5 676.5 c 128,-1,18
 230 675 230 675 216.5 654.5 c 128,-1,19
 203 634 203 634 201 594 c 128,-1,20
 199 554 199 554 196 375 c 128,-1,21
 193 196 193 196 193 175 c 2,22,-1
 193 135 l 2,23,24
 193 63 193 63 217.5 55.5 c 128,-1,25
 242 48 242 48 260 48 c 0,26,27
 410 48 410 48 476.5 72.5 c 0,28,29
 535.860248447 94.3695652174 535.860248447 94.3695652174 548.5 118.5 c 0,30,31
 561.333333333 143 561.333333333 143 571 143 c 0,32,33
 583 143 583 143 583 126 c 0,34,35
 583 83 583 83 540 39 c 128,-1,36
 497 -5 497 -5 465 -5 c 0,37,38
 393 -5 393 -5 302.5 0 c 128,-1,39
 212 5 212 5 190 5 c 1,40,-1
 65 -3 l 1,41,42
 36 -3 36 -3 36 9 c 0,43,44
 36 16 36 16 41.5 20.5 c 128,-1,45
 47 25 47 25 57 25 c 128,-1,46
 67 25 67 25 83 37 c 128,-1,47
 99 49 99 49 107 86.5 c 128,-1,48
 115 124 115 124 115 231 c 2,49,-1
 115 355 l 1,0,-1
EndSplineSet
Substitution2: "'c2sc' Capitals to Small Capitals in Latin lookup 13 subtable" l.sc
AlternateSubs2: "'aalt' Access All Alternates in Latin lookup 1 subtable" l.sc
AlternateSubs2: "'aalt' Access All Alternates lookup 0 subtable" l.sc
Position2: "'cpsp' Capital Spacing in Latin lookup 0 subtable" dx=10 dy=0 dh=20 dv=0
EndChar

StartChar: M
Encoding: 77 77 48
Width: 919
GlyphClass: 2
Flags: HW
LayerCount: 2
Fore
SplineSet
63 -2 m 2,0,1
 42 -2 42 -2 42 14 c 0,2,3
 42 27.2173913043 42 27.2173913043 71.5 28.5 c 0,4,5
 83 29 83 29 97 44.5 c 128,-1,6
 111 60 111 60 117 86 c 128,-1,7
 123 112 123 112 130 264 c 128,-1,8
 137 416 137 416 137 502.5 c 128,-1,9
 137 589 137 589 117.5 627 c 128,-1,10
 98 665 98 665 33 680 c 0,11,12
 20 683 20 683 20 695 c 0,13,14
 20 710 20 710 38 710 c 1,15,-1
 91 706 l 1,16,-1
 166 708 l 2,17,18
 185 708 185 708 190 694 c 1,19,20
 202 668 202 668 233 600.5 c 128,-1,21
 264 533 264 533 282.5 493 c 128,-1,22
 301 453 301 453 330 391 c 128,-1,23
 359 329 359 329 377 290.5 c 128,-1,24
 395 252 395 252 414.5 213 c 128,-1,25
 434 174 434 174 444.5 155.5 c 128,-1,26
 455 137 455 137 458 137 c 128,-1,27
 461 137 461 137 464.5 140.5 c 128,-1,28
 468 144 468 144 471.5 150 c 128,-1,29
 475 156 475 156 477.5 162 c 128,-1,30
 480 168 480 168 484.5 177.5 c 128,-1,31
 489 187 489 187 491 192 c 2,32,-1
 620 458 l 2,33,34
 672.918918919 566.243243243 672.918918919 566.243243243 691.459459459 608.621621622 c 2,35,-1
 713.5 659 l 2,36,37
 717 667 717 667 718.5 671.5 c 128,-1,38
 720 676 720 676 721 678.5 c 128,-1,39
 722 681 722 681 723 683 c 128,-1,40
 724 685 724 685 726.5 692 c 128,-1,41
 729 699 729 699 731.5 701.5 c 0,42,43
 740 710 740 710 761 710 c 2,44,-1
 847 708 l 2,45,46
 864 708 864 708 864 695 c 0,47,48
 864 685 864 685 857.5 680.5 c 128,-1,49
 851 676 851 676 828.5 673 c 128,-1,50
 806 670 806 670 796 648 c 128,-1,51
 786 626 786 626 786 527.5 c 128,-1,52
 786 429 786 429 792 319.5 c 128,-1,53
 798 210 798 210 798 182 c 0,54,55
 798 82 798 82 814 54.5 c 128,-1,56
 830 27 830 27 881 27 c 0,57,58
 888 27 888 27 893.5 22 c 128,-1,59
 899 17 899 17 899 13 c 0,60,61
 899 -3 899 -3 888 -3 c 2,62,-1
 877 -3 l 1,63,-1
 775 1 l 1,64,65
 671 -4 l 2,66,67
 653 -4 653 -4 653 10 c 0,68,69
 653 25.4761904762 653 25.4761904762 679.5 28 c 0,70,71
 690 29 690 29 701.5 40.5 c 128,-1,72
 713 52 713 52 717.5 73.5 c 128,-1,73
 722 95 722 95 722 133 c 128,-1,74
 722 171 722 171 720.5 216 c 128,-1,75
 719 261 719 261 717 303.5 c 128,-1,76
 715 346 715 346 713 383.5 c 128,-1,77
 711 421 711 421 710 445 c 2,78,-1
 708 469 l 1,79,80
 708 512 708 512 699 512 c 0,81,82
 695.5 512 695.5 512 693.25 509 c 128,-1,83
 691 506 691 506 689 504 c 128,-1,84
 687 502 687 502 685 497.5 c 128,-1,85
 683 493 683 493 681 490 c 128,-1,86
 679 487 679 487 676 481.5 c 128,-1,87
 673 476 673 476 671 472 c 2,88,-1
 665.5 461 l 2,89,90
 662 454 662 454 660 449 c 2,91,-1
 521 168 l 2,92,93
 497 119 497 119 474.5 72 c 128,-1,94
 452 25 452 25 448 18.5 c 128,-1,95
 444 12 444 12 436.5 12 c 128,-1,96
 429 12 429 12 423 20.5 c 128,-1,97
 417 29 417 29 405 58 c 128,-1,98
 393 87 393 87 384 106 c 0,99,100
 201 478 201 478 197 483.5 c 128,-1,101
 193 489 193 489 190 489 c 0,102,103
 182 489 182 489 182 449 c 1,104,-1
 173 185 l 1,105,-1
 173 140 l 2,106,107
 173 58.4117647059 173 58.4117647059 206 39 c 0,108,109
 223 29 223 29 239 27.5 c 0,110,111
 264 25.15625 264 25.15625 264 14.578125 c 128,-1,112
 264 4 264 4 261 0.5 c 128,-1,113
 258 -3 258 -3 249 -3 c 2,114,-1
 145 1 l 1,115,-1
 63 -2 l 2,0,1
EndSplineSet
Substitution2: "'c2sc' Capitals to Small Capitals in Latin lookup 13 subtable" m.sc
AlternateSubs2: "'aalt' Access All Alternates in Latin lookup 1 subtable" m.sc
AlternateSubs2: "'aalt' Access All Alternates lookup 0 subtable" m.sc
Position2: "'cpsp' Capital Spacing in Latin lookup 0 subtable" dx=10 dy=0 dh=20 dv=0
EndChar

StartChar: N
Encoding: 78 78 49
Width: 798
GlyphClass: 2
Flags: HW
LayerCount: 2
Fore
SplineSet
144 -2 m 1,0,-1
 59 -4 l 2,1,2
 37 -4 37 -4 37 12 c 0,3,4
 37 21 37 21 50 23.5 c 128,-1,5
 63 26 63 26 82 39 c 128,-1,6
 101 52 101 52 109 81.5 c 128,-1,7
 117 111 117 111 126 274 c 128,-1,8
 135 437 135 437 135 511 c 128,-1,9
 135 585 135 585 111 627.5 c 128,-1,10
 87 670 87 670 33 676 c 0,11,12
 20 677 20 677 20 691 c 0,13,14
 20 697 20 697 27 702.5 c 128,-1,15
 34 708 34 708 45 708 c 2,16,-1
 83 707 l 1,17,-1
 132 709 l 2,18,19
 141 709 141 709 153 703.5 c 128,-1,20
 165 698 165 698 167 693.5 c 128,-1,21
 169 689 169 689 178 678.5 c 128,-1,22
 187 668 187 668 202 651 c 128,-1,23
 217 634 217 634 229 618 c 0,24,25
 365 441 365 441 593 191 c 0,26,27
 599 184 599 184 607.5 175 c 128,-1,28
 616 166 616 166 619.5 161.5 c 128,-1,29
 623 157 623 157 627 153 c 0,30,31
 634 146 634 146 638 146 c 0,32,33
 648 146 648 146 648 208 c 2,34,-1
 648 325 l 1,35,-1
 646 530 l 1,36,-1
 646 537 l 2,37,38
 646 628.565217391 646 628.565217391 613.5 654 c 0,39,40
 602 663 602 663 594 665.5 c 128,-1,41
 586 668 586 668 571 671 c 0,42,43
 530 679.2 530 679.2 530 693.6 c 128,-1,44
 530 708 530 708 549 708 c 2,45,-1
 644 707 l 1,46,47
 734 709 l 2,48,49
 751 709 751 709 757.5 705.5 c 128,-1,50
 764 702 764 702 764 695 c 128,-1,51
 764 688 764 688 758.5 684.5 c 0,52,53
 749.7 678.9 749.7 678.9 729 672 c 1,54,55
 696 654 696 654 696 559 c 2,56,-1
 696 521 l 1,57,-1
 685 26 l 1,58,-1
 685 6 l 2,59,60
 685 -17 685 -17 671 -17 c 0,61,62
 662 -17 662 -17 655 -10 c 0,63,64
 323 375 323 375 258.5 447.5 c 128,-1,65
 194 520 194 520 187 520 c 0,66,67
 177 520 177 520 177 438.5 c 128,-1,68
 177 357 177 357 173 247.5 c 128,-1,69
 169 138 169 138 169 128 c 0,70,71
 169 83 169 83 184.5 59.5 c 128,-1,72
 200 36 200 36 218 33 c 128,-1,73
 236 30 236 30 251.5 26.5 c 128,-1,74
 267 23 267 23 267 12.5 c 128,-1,75
 267 2 267 2 263.5 -1 c 128,-1,76
 260 -4 260 -4 251 -4 c 2,77,-1
 144 -2 l 1,0,-1
EndSplineSet
Substitution2: "'c2sc' Capitals to Small Capitals in Latin lookup 13 subtable" n.sc
AlternateSubs2: "'aalt' Access All Alternates in Latin lookup 1 subtable" n.sc
AlternateSubs2: "'aalt' Access All Alternates lookup 0 subtable" n.sc
Position2: "'cpsp' Capital Spacing in Latin lookup 0 subtable" dx=10 dy=0 dh=20 dv=0
EndChar

StartChar: O
Encoding: 79 79 50
Width: 853
GlyphClass: 2
Flags: HW
LayerCount: 2
Fore
SplineSet
44 339 m 0,0,1
 44 507 44 507 145 614.5 c 128,-1,2
 246 722 246 722 431 722 c 0,3,4
 517 722 517 722 586 697 c 128,-1,5
 655 672 655 672 695 635.5 c 128,-1,6
 735 599 735 599 762 552 c 0,7,8
 809 470.185185185 809 470.185185185 809 392 c 0,9,10
 809 256 809 256 756 162.5 c 0,11,12
 654.818181818 -16 654.818181818 -16 417 -16 c 0,13,14
 298 -16 298 -16 211.5 36 c 128,-1,15
 125 88 125 88 84.5 167 c 128,-1,16
 44 246 44 246 44 339 c 0,0,1
132 390 m 0,17,18
 132 300.56 132 300.56 179 207.5 c 0,19,20
 204 158 204 158 239.5 118.5 c 128,-1,21
 275 79 275 79 329.5 53.5 c 128,-1,22
 384 28 384 28 449 28 c 0,23,24
 522.681818182 28 522.681818182 28 595 71 c 0,25,26
 674.710144928 118.395221308 674.710144928 118.395221308 708.5 201.5 c 0,27,28
 727 247 727 247 727 300 c 0,29,30
 727 481 727 481 632 581.5 c 128,-1,31
 537 682 537 682 397 682 c 0,32,33
 287 682 287 682 209.5 608 c 128,-1,34
 132 534 132 534 132 390 c 0,17,18
EndSplineSet
Substitution2: "'c2sc' Capitals to Small Capitals in Latin lookup 13 subtable" o.sc
AlternateSubs2: "'aalt' Access All Alternates in Latin lookup 1 subtable" o.sc
AlternateSubs2: "'aalt' Access All Alternates lookup 0 subtable" o.sc
Position2: "'cpsp' Capital Spacing in Latin lookup 0 subtable" dx=10 dy=0 dh=20 dv=0
EndChar

StartChar: P
Encoding: 80 80 51
Width: 564
GlyphClass: 2
Flags: HW
LayerCount: 2
Fore
SplineSet
114 431 m 2,0,-1
 113 601 l 2,1,2
 113 628 113 628 96 654.5 c 128,-1,3
 79 681 79 681 40 681 c 0,4,5
 20 681 20 681 20 694 c 0,6,7
 20 710 20 710 43 710 c 2,8,-1
 80 711 l 1,9,-1
 140 708 l 1,10,-1
 305 711 l 1,11,12
 399 711 399 711 467 663.5 c 128,-1,13
 535 616 535 616 535 527 c 0,14,15
 535 478 535 478 517 439.5 c 128,-1,16
 499 401 499 401 473.5 379 c 128,-1,17
 448 357 448 357 416.5 342.5 c 0,18,19
 365.448275862 319 365.448275862 319 325.224137931 319 c 128,-1,20
 285 319 285 319 252 326.5 c 128,-1,21
 219 334 219 334 219 342 c 0,22,23
 219 357 219 357 232 357 c 0,24,25
 237 357 237 357 252.5 353 c 128,-1,26
 268 349 268 349 287 349 c 128,-1,27
 306 349 306 349 332 355.5 c 128,-1,28
 358 362 358 362 386 376.5 c 128,-1,29
 414 391 414 391 432 420.5 c 128,-1,30
 450 450 450 450 450 489 c 0,31,32
 450 556 450 556 396 613.5 c 128,-1,33
 342 671 342 671 247 671 c 0,34,35
 216 671 216 671 205 652.5 c 128,-1,36
 194 634 194 634 194 569 c 2,37,-1
 192 156 l 2,38,39
 192 40.303030303 192 40.303030303 260.5 32 c 0,40,41
 277 30 277 30 288 30.5 c 0,42,43
 316 31.7727272727 316 31.7727272727 316 10 c 0,44,45
 316 -7 316 -7 293 -7 c 2,46,-1
 150 -2 l 1,47,-1
 57 -6 l 1,48,49
 26 -6 26 -6 26 5 c 0,50,51
 26 21.6 26 21.6 37 26 c 0,52,53
 42 28 42 28 44 29 c 128,-1,54
 46 30 46 30 53.5 31.5 c 128,-1,55
 61 33 61 33 63.5 34 c 128,-1,56
 66 35 66 35 70 35.5 c 128,-1,57
 74 36 74 36 75.5 36.5 c 128,-1,58
 77 37 77 37 80.5 39.5 c 128,-1,59
 84 42 84 42 86 46.5 c 128,-1,60
 88 51 88 51 91.5 58.5 c 128,-1,61
 95 66 95 66 100.5 81.5 c 128,-1,62
 106 97 106 97 110 228 c 128,-1,63
 114 359 114 359 114 431 c 2,0,-1
EndSplineSet
Substitution2: "'c2sc' Capitals to Small Capitals in Latin lookup 13 subtable" p.sc
AlternateSubs2: "'aalt' Access All Alternates in Latin lookup 1 subtable" p.sc
AlternateSubs2: "'aalt' Access All Alternates lookup 0 subtable" p.sc
Position2: "'cpsp' Capital Spacing in Latin lookup 0 subtable" dx=10 dy=0 dh=20 dv=0
EndChar

StartChar: Q
Encoding: 81 81 52
Width: 839
GlyphClass: 2
Flags: HW
LayerCount: 2
Fore
SplineSet
174 78 m 0,0,1
 45 171 45 171 45 340.5 c 128,-1,2
 45 510 45 510 139.5 616 c 128,-1,3
 234 722 234 722 432 722 c 0,4,5
 515 722 515 722 581.5 695 c 128,-1,6
 648 668 648 668 686.5 628.5 c 128,-1,7
 725 589 725 589 751 538.5 c 0,8,9
 795 453.038461538 795 453.038461538 795 374.519230769 c 128,-1,10
 795 296 795 296 771 224.5 c 128,-1,11
 747 153 747 153 696.5 95.5 c 128,-1,12
 646 38 646 38 578 19 c 128,-1,13
 510 0 510 0 510 -3 c 0,14,15
 510 -14 510 -14 529 -22 c 0,16,17
 541.666666667 -28.3333333333 541.666666667 -28.3333333333 595.833333333 -52.1666666667 c 128,-1,18
 650 -76 650 -76 663.5 -81 c 128,-1,19
 677 -86 677 -86 700 -95 c 128,-1,20
 723 -104 723 -104 738.5 -108.5 c 128,-1,21
 754 -113 754 -113 773 -118 c 0,22,23
 807.2 -127 807.2 -127 836 -127 c 128,-1,24
 865 -127 865 -127 882 -118.5 c 128,-1,25
 899 -110 899 -110 908.5 -102 c 128,-1,26
 918 -94 918 -94 925 -94 c 128,-1,27
 932 -94 932 -94 935.5 -98.5 c 128,-1,28
 939 -103 939 -103 939 -106 c 0,29,30
 939 -141 939 -141 885 -167.5 c 128,-1,31
 831 -194 831 -194 766.5 -194 c 128,-1,32
 702 -194 702 -194 587.5 -143 c 128,-1,33
 473 -92 473 -92 372.5 -41 c 128,-1,34
 272 10 272 10 242 10 c 0,35,36
 196 10 196 10 174 -22 c 128,-1,37
 152 -54 152 -54 152 -96 c 2,38,-1
 152 -114 l 2,39,40
 152 -140 152 -140 134 -140 c 0,41,42
 124 -140 124 -140 117 -127 c 128,-1,43
 110 -114 110 -114 110 -98 c 0,44,45
 110 -54 110 -54 130 -15 c 128,-1,46
 150 24 150 24 173 40.5 c 128,-1,47
 196 57 196 57 196 59 c 0,48,49
 196 63 196 63 174 78 c 0,0,1
212 608 m 128,-1,51
 136 534 136 534 136 394 c 128,-1,52
 136 254 136 254 210 152 c 0,53,54
 249 97 249 97 321.5 62.5 c 128,-1,55
 394 28 394 28 456 28 c 128,-1,56
 518 28 518 28 592 66 c 0,57,58
 634 88 634 88 675.5 152.5 c 128,-1,59
 717 217 717 217 717 300 c 0,60,61
 717 461 717 461 624 571.5 c 128,-1,62
 531 682 531 682 398 682 c 0,63,50
 288 682 288 682 212 608 c 128,-1,51
EndSplineSet
Substitution2: "'c2sc' Capitals to Small Capitals in Latin lookup 13 subtable" q.sc
AlternateSubs2: "'aalt' Access All Alternates in Latin lookup 1 subtable" q.sc
AlternateSubs2: "'aalt' Access All Alternates lookup 0 subtable" q.sc
Position2: "'cpsp' Capital Spacing in Latin lookup 0 subtable" dx=10 dy=0 dh=20 dv=0
EndChar

StartChar: R
Encoding: 82 82 53
Width: 718
GlyphClass: 2
Flags: HW
LayerCount: 2
Fore
SplineSet
118 428 m 1,0,-1
 117 597 l 2,1,2
 117 634 117 634 102 653.5 c 128,-1,3
 87 673 87 673 68.5 675.5 c 128,-1,4
 50 678 50 678 35 682 c 128,-1,5
 20 686 20 686 20 696 c 0,6,7
 20 712 20 712 49 712 c 2,8,-1
 215 712 l 1,9,-1
 315 715 l 1,10,11
 405 715 405 715 469 669.5 c 128,-1,12
 533 624 533 624 533 547 c 0,13,14
 533 496 533 496 513.5 457.5 c 128,-1,15
 494 419 494 419 470.5 402 c 128,-1,16
 447 385 447 385 427.5 372.5 c 128,-1,17
 408 360 408 360 408 356 c 0,18,19
 408 344 408 344 492 226.5 c 128,-1,20
 576 109 576 109 607 76 c 1,21,22
 645 29 645 29 699 29 c 0,23,24
 713 29 713 29 713 17 c 0,25,26
 713 2 713 2 701 -3 c 128,-1,27
 689 -8 689 -8 640.5 -8 c 128,-1,28
 592 -8 592 -8 553 15 c 0,29,30
 499.319018405 46.1349693252 499.319018405 46.1349693252 374 255 c 1,31,32
 326 333 326 333 300 333 c 2,33,-1
 218 333 l 2,34,35
 206 333 206 333 203.5 323 c 128,-1,36
 201 313 201 313 201 263.5 c 2,37,38
 201 183 l 1,39,-1
 202 129.5 l 1,40,41
 202 121 l 2,42,43
 202 80 202 80 221 57.5 c 128,-1,44
 240 35 240 35 263.5 31.5 c 128,-1,45
 287 28 287 28 306 23.5 c 128,-1,46
 325 19 325 19 325 9 c 0,47,48
 325 -7 325 -7 307 -7 c 2,49,50
 164 0 l 1,51,-1
 54 -4 l 2,52,53
 33 -4 33 -4 33 12 c 0,54,55
 33 28.75 33 28.75 75 34 c 0,56,57
 91 36 91 36 104 56 c 128,-1,58
 117 76 117 76 117 113 c 2,59,-1
 118 428 l 1,0,-1
201 536 m 2,60,61
 201 433 201 433 202 408.5 c 128,-1,62
 203 384 203 384 209 380 c 0,63,64
 224 371 224 371 252 371 c 2,65,-1
 291 371 l 2,66,67
 376 371 376 371 412.5 410 c 128,-1,68
 449 449 449 449 449 510.5 c 128,-1,69
 449 572 449 572 400.5 623 c 128,-1,70
 352 674 352 674 254 674 c 0,71,72
 217 674 217 674 209 654.5 c 128,-1,73
 201 635 201 635 201 564 c 2,74,-1
 201 536 l 2,60,61
EndSplineSet
Substitution2: "'c2sc' Capitals to Small Capitals in Latin lookup 13 subtable" r.sc
AlternateSubs2: "'aalt' Access All Alternates in Latin lookup 1 subtable" r.sc
AlternateSubs2: "'aalt' Access All Alternates lookup 0 subtable" r.sc
Position2: "'cpsp' Capital Spacing in Latin lookup 0 subtable" dx=10 dy=0 dh=20 dv=0
EndChar

StartChar: S
Encoding: 83 83 54
Width: 596
GlyphClass: 2
Flags: HW
LayerCount: 2
Fore
SplineSet
455 689 m 2,0,-1
 478 697 l 1,1,2
 491 697 491 697 493 689 c 0,3,4
 514 568 514 568 514 546.5 c 128,-1,5
 514 525 514 525 500 525 c 0,6,7
 491 525 491 525 482.5 546.5 c 128,-1,8
 474 568 474 568 462.5 586 c 128,-1,9
 451 604 451 604 446 609 c 128,-1,10
 441 614 441 614 420 633 c 0,11,12
 366 681 366 681 296.5 681 c 128,-1,13
 227 681 227 681 185 651 c 128,-1,14
 143 621 143 621 143 573 c 128,-1,15
 143 525 143 525 167.5 496 c 128,-1,16
 192 467 192 467 233 451 c 128,-1,17
 274 435 274 435 319 421 c 0,18,19
 440.212938005 383.289308176 440.212938005 383.289308176 498 322 c 0,20,21
 538 279 538 279 538 215 c 0,22,23
 538 110 538 110 471 48.5 c 128,-1,24
 404 -13 404 -13 305 -13 c 0,25,26
 236 -13 236 -13 194 -5.5 c 128,-1,27
 152 2 152 2 108 25 c 1,28,29
 95 33 95 33 77 103 c 128,-1,30
 59 173 59 173 59 190.5 c 128,-1,31
 59 208 59 208 72.5 208 c 128,-1,32
 86 208 86 208 89 198 c 1,33,34
 126.121212121 108.909090909 126.121212121 108.909090909 176 71.5 c 0,35,36
 230 31 230 31 306.5 31 c 128,-1,37
 383 31 383 31 428.5 70.5 c 128,-1,38
 474 110 474 110 474 174 c 0,39,40
 474 221 474 221 443 252.5 c 128,-1,41
 412 284 412 284 372 297.5 c 0,42,43
 222.82592122 347.846251588 222.82592122 347.846251588 170 379 c 0,44,45
 79 433 79 433 79 524 c 128,-1,46
 79 615 79 615 143.5 668.5 c 128,-1,47
 208 722 208 722 311 722 c 0,48,49
 349 722 349 722 401.5 705.5 c 128,-1,50
 454 689 454 689 455 689 c 2,0,-1
EndSplineSet
Substitution2: "'c2sc' Capitals to Small Capitals in Latin lookup 13 subtable" s.sc
AlternateSubs2: "'aalt' Access All Alternates in Latin lookup 1 subtable" s.sc
AlternateSubs2: "'aalt' Access All Alternates lookup 0 subtable" s.sc
Position2: "'cpsp' Capital Spacing in Latin lookup 0 subtable" dx=10 dy=0 dh=20 dv=0
EndChar

StartChar: T
Encoding: 84 84 55
Width: 703
GlyphClass: 2
Flags: HW
LayerCount: 2
Fore
SplineSet
145.5 714 m 128,-1,1
 214 710 214 710 415 710 c 128,-1,2
 616 710 616 710 658 716 c 1,3,4
 669 716 669 716 673 710 c 128,-1,5
 677 704 677 704 677 699 c 2,6,-1
 683 618 l 1,7,8
 683 593 683 593 680 586.5 c 128,-1,9
 677 580 677 580 667 580 c 0,10,11
 659 580 659 580 653.5 600.5 c 128,-1,12
 648 621 648 621 642 631.5 c 0,13,14
 626.857142857 658 626.857142857 658 555 658 c 2,15,-1
 425 658 l 2,16,17
 401 658 401 658 395.5 648.5 c 128,-1,18
 390 639 390 639 390 594 c 2,19,-1
 390 545 l 1,20,-1
 387 179 l 1,21,-1
 386 114 l 2,22,23
 386 71 386 71 399.5 58 c 128,-1,24
 413 45 413 45 429 38.5 c 128,-1,25
 445 32 445 32 456.5 31 c 0,26,27
 484 28.6086956522 484 28.6086956522 484 13 c 0,28,29
 484 2 484 2 479 -1 c 128,-1,30
 474 -4 474 -4 460 -4 c 1,31,-1
 349 4 l 1,32,-1
 247 -3 l 1,33,34
 210 -3 210 -3 210 13 c 0,35,36
 210 23 210 23 216 26.5 c 128,-1,37
 222 30 222 30 239.5 32.5 c 128,-1,38
 257 35 257 35 262 36 c 0,39,40
 296 44 296 44 300 76 c 0,41,42
 310 164 310 164 310 454 c 1,43,-1
 309 633 l 2,44,45
 309 652 309 652 298 656.5 c 128,-1,46
 287 661 287 661 225 661 c 128,-1,47
 163 661 163 661 127.5 657 c 128,-1,48
 92 653 92 653 86 649.5 c 128,-1,49
 80 646 80 646 71.5 635 c 128,-1,50
 63 624 63 624 57.5 609.5 c 128,-1,51
 52 595 52 595 50.5 585.5 c 0,52,53
 46.9473684211 563 46.9473684211 563 31 563 c 0,54,55
 20 563 20 563 20 580 c 0,56,57
 20 620 20 620 25 652.5 c 128,-1,58
 30 685 30 685 30.5 690 c 128,-1,59
 31 695 31 695 31.5 696.5 c 128,-1,60
 32 698 32 698 32.5 701.5 c 128,-1,61
 33 705 33 705 34 706.5 c 128,-1,62
 35 708 35 708 36.5 710.5 c 128,-1,63
 38 713 38 713 40 714 c 128,-1,64
 42 715 42 715 45 716 c 0,65,66
 51 718 51 718 64 718 c 128,-1,0
 77 718 77 718 145.5 714 c 128,-1,1
EndSplineSet
Substitution2: "'c2sc' Capitals to Small Capitals in Latin lookup 13 subtable" t.sc
AlternateSubs2: "'aalt' Access All Alternates in Latin lookup 1 subtable" t.sc
AlternateSubs2: "'aalt' Access All Alternates lookup 0 subtable" t.sc
Position2: "'cpsp' Capital Spacing in Latin lookup 0 subtable" dx=10 dy=0 dh=20 dv=0
EndChar

StartChar: U
Encoding: 85 85 56
Width: 815
GlyphClass: 2
Flags: HW
LayerCount: 2
Fore
SplineSet
114 431 m 1,0,-1
 116 575 l 2,1,2
 116 630 116 630 103 650.5 c 128,-1,3
 90 671 90 671 42 678 c 0,4,5
 20 681 20 681 20 697 c 0,6,7
 20 705.2 20 705.2 26 707.6 c 128,-1,8
 32 710 32 710 43 710 c 2,9,-1
 156 706 l 1,10,-1
 250 708 l 2,11,12
 271 708 271 708 271 694 c 0,13,14
 271 685 271 685 264 683 c 128,-1,15
 257 681 257 681 246.5 680 c 128,-1,16
 236 679 236 679 225.5 673 c 0,17,18
 201 659 201 659 201 580 c 2,19,-1
 201 552 l 1,20,-1
 200 336 l 2,21,22
 200 237 200 237 206 207 c 128,-1,23
 212 177 212 177 220 151.5 c 128,-1,24
 228 126 228 126 239.5 111 c 128,-1,25
 251 96 251 96 268.5 78 c 128,-1,26
 286 60 286 60 309 50.5 c 0,27,28
 363.473684211 28 363.473684211 28 432 28 c 0,29,30
 540.095238095 28 540.095238095 28 581.5 51.5 c 0,31,32
 600 62 600 62 623.5 83.5 c 128,-1,33
 647 105 647 105 660 136 c 0,34,35
 691 209.923076923 691 209.923076923 691 324 c 2,36,-1
 690 536 l 2,37,38
 690 571 690 571 688.5 591 c 128,-1,39
 687 611 687 611 678.5 635 c 128,-1,40
 670 659 670 659 657 668 c 128,-1,41
 644 677 644 677 628 679.5 c 128,-1,42
 612 682 612 682 602 683.5 c 128,-1,43
 592 685 592 685 592 692 c 0,44,45
 592 708 592 708 612 708 c 2,46,-1
 689 706 l 1,47,-1
 774 709 l 2,48,49
 795 709 795 709 795 696 c 0,50,51
 795 688 795 688 773.5 675.5 c 128,-1,52
 752 663 752 663 747 653 c 0,53,54
 736 632 736 632 736 587 c 2,55,-1
 737 520 l 1,56,57
 737 328 737 328 721 226 c 128,-1,58
 705 124 705 124 672.5 77.5 c 0,59,60
 605.053763441 -19 605.053763441 -19 435.02688172 -19 c 128,-1,61
 265 -19 265 -19 195 45 c 0,62,63
 140 96 140 96 127 167.5 c 128,-1,64
 114 239 114 239 114 414 c 2,65,-1
 114 431 l 1,0,-1
EndSplineSet
Substitution2: "'c2sc' Capitals to Small Capitals in Latin lookup 13 subtable" u.sc
AlternateSubs2: "'aalt' Access All Alternates in Latin lookup 1 subtable" u.sc
AlternateSubs2: "'aalt' Access All Alternates lookup 0 subtable" u.sc
Position2: "'cpsp' Capital Spacing in Latin lookup 0 subtable" dx=10 dy=0 dh=20 dv=0
EndChar

StartChar: V
Encoding: 86 86 57
Width: 807
GlyphClass: 2
Flags: HW
LayerCount: 2
Fore
SplineSet
679 709 m 1,0,-1
 768 711 l 2,1,2
 787 711 787 711 787 697 c 0,3,4
 787 685.777777778 787 685.777777778 765 676 c 0,5,6
 756 672 756 672 744 659 c 128,-1,7
 732 646 732 646 723 625 c 2,8,-1
 500 117 l 2,9,10
 476 63 476 63 459 21.5 c 128,-1,11
 442 -20 442 -20 439 -25 c 128,-1,12
 436 -30 436 -30 431 -30 c 0,13,14
 413 -30 413 -30 386.5 37 c 128,-1,15
 360 104 360 104 302.5 229 c 128,-1,16
 245 354 245 354 214 424 c 128,-1,17
 183 494 183 494 169.5 527 c 128,-1,18
 156 560 156 560 144.5 586 c 0,19,20
 125.516746411 628.918660287 125.516746411 628.918660287 110.758373206 645.459330144 c 128,-1,21
 96 662 96 662 77.5 670 c 128,-1,22
 59 678 59 678 47.5 677.5 c 0,23,24
 20 676.304347826 20 676.304347826 20 696 c 0,25,26
 20 710 20 710 48 710 c 1,27,-1
 158 706 l 1,28,-1
 223 708 l 2,29,30
 246 708 246 708 251 706 c 128,-1,31
 256 704 256 704 256 697.5 c 128,-1,32
 256 691 256 691 246 686 c 0,33,34
 215 670.5 215 670.5 215 653.75 c 128,-1,35
 215 637 215 637 218.5 623.5 c 128,-1,36
 222 610 222 610 234 582 c 128,-1,37
 246 554 246 554 258.5 526 c 128,-1,38
 271 498 271 498 299.5 435.5 c 128,-1,39
 328 373 328 373 355 312 c 0,40,41
 439 119 439 119 455 119 c 0,42,43
 460 119 460 119 512.5 240 c 128,-1,44
 565 361 565 361 616 493 c 128,-1,45
 667 625 667 625 667 645 c 128,-1,46
 667 665 667 665 655.5 673.5 c 128,-1,47
 644 682 644 682 631 683.5 c 0,48,49
 595 687.653846154 595 687.653846154 595 700 c 0,50,51
 595 707 595 707 598.5 708.5 c 128,-1,52
 602 710 602 710 616 710 c 2,53,-1
 679 709 l 1,0,-1
EndSplineSet
Substitution2: "'c2sc' Capitals to Small Capitals in Latin lookup 13 subtable" v.sc
AlternateSubs2: "'aalt' Access All Alternates in Latin lookup 1 subtable" v.sc
AlternateSubs2: "'aalt' Access All Alternates lookup 0 subtable" v.sc
Position2: "'cpsp' Capital Spacing in Latin lookup 0 subtable" dx=10 dy=0 dh=20 dv=0
EndChar

StartChar: W
Encoding: 87 87 58
Width: 1110
GlyphClass: 2
Flags: HW
LayerCount: 2
Fore
SplineSet
982 709 m 1,0,-1
 1071 711 l 2,1,2
 1091 711 1091 711 1091 697 c 0,3,4
 1091 690 1091 690 1085.5 686 c 128,-1,5
 1080 682 1080 682 1069 676 c 128,-1,6
 1058 670 1058 670 1051.5 663.5 c 128,-1,7
 1045 657 1045 657 1041.5 652 c 128,-1,8
 1038 647 1038 647 1034 639.5 c 128,-1,9
 1030 632 1030 632 1027.5 627 c 0,10,11
 1021.08333333 614.166666667 1021.08333333 614.166666667 892.041666667 322.583333333 c 128,-1,12
 763 31 763 31 749 2 c 128,-1,13
 735 -27 735 -27 727 -27 c 0,14,15
 716.6 -27 716.6 -27 681 62 c 1,16,17
 671 84 671 84 654.5 123 c 128,-1,18
 638 162 638 162 626.5 189 c 128,-1,19
 615 216 615 216 603 244 c 0,20,21
 578.571428571 301 578.571428571 301 572 301 c 0,22,23
 562 301 562 301 504.5 163 c 128,-1,24
 447 25 447 25 444.5 15 c 128,-1,25
 442 5 442 5 440.5 1 c 128,-1,26
 439 -3 439 -3 438 -6 c 128,-1,27
 437 -9 437 -9 436 -12 c 128,-1,28
 435 -15 435 -15 434 -17 c 128,-1,29
 433 -19 433 -19 432.5 -21 c 128,-1,30
 432 -23 432 -23 431 -24.5 c 128,-1,31
 430 -26 430 -26 429 -27 c 128,-1,32
 428 -28 428 -28 427 -28.5 c 0,33,34
 424 -30 424 -30 422 -30 c 0,35,36
 413 -30 413 -30 400 -1.5 c 128,-1,37
 387 27 387 27 353 110.5 c 128,-1,38
 319 194 319 194 272.5 296 c 128,-1,39
 226 398 226 398 161 558 c 0,40,41
 142 606 142 606 120 633.5 c 128,-1,42
 98 661 98 661 81 668 c 128,-1,43
 64 675 64 675 50 676 c 128,-1,44
 36 677 36 677 28 680 c 128,-1,45
 20 683 20 683 20 696 c 128,-1,46
 20 709 20 709 47 709 c 2,47,-1
 157 706 l 1,48,-1
 243 709 l 2,49,50
 252 709 252 709 254.5 706.5 c 128,-1,51
 257 704 257 704 257 697.5 c 128,-1,52
 257 691 257 691 235.5 680 c 128,-1,53
 214 669 214 669 214 650 c 0,54,55
 214 630.111111111 214 630.111111111 243.5 564.555555556 c 0,56,57
 344.1 341 344.1 341 375.55 267 c 128,-1,58
 407 193 407 193 417 170.5 c 0,59,60
 436.777777778 126 436.777777778 126 443 126 c 0,61,62
 447 126 447 126 475 188 c 128,-1,63
 503 250 503 250 516 282 c 128,-1,64
 529 314 529 314 534.5 325 c 0,65,66
 545 346 545 346 545 358.5 c 128,-1,67
 545 371 545 371 485 505.5 c 0,68,69
 419.469273743 652.398044693 419.469273743 652.398044693 400 667 c 0,70,71
 384 679 384 679 374.5 679 c 2,72,-1
 363 680 l 2,73,74
 335 683 335 683 329 685.5 c 128,-1,75
 323 688 323 688 323 696 c 0,76,77
 323 710 323 710 352 710 c 1,78,-1
 462 706 l 1,79,-1
 528 710 l 1,80,81
 558 710 558 710 558 703 c 128,-1,82
 558 696 558 696 547 690 c 0,83,84
 515 672.545454545 515 672.545454545 515 652.272727273 c 128,-1,85
 515 632 515 632 546 562 c 0,86,87
 548 558 548 558 559.5 529 c 0,88,89
 586.465517241 461 586.465517241 461 593.732758621 461 c 128,-1,90
 601 461 601 461 633 548.5 c 128,-1,91
 665 636 665 636 665 653 c 128,-1,92
 665 670 665 670 650 677.5 c 128,-1,93
 635 685 635 685 620 688.5 c 128,-1,94
 605 692 605 692 605 700 c 0,95,96
 605 711 605 711 627 711 c 2,97,-1
 691 709 l 1,98,-1
 708 709 l 2,99,100
 722 709 722 709 761 712 c 1,101,-1
 770 712 l 2,102,103
 783 712 783 712 783 702 c 128,-1,104
 783 692 783 692 764 686 c 128,-1,105
 745 680 745 680 733.5 668.5 c 128,-1,106
 722 657 722 657 705.5 616.5 c 128,-1,107
 689 576 689 576 659.5 507 c 128,-1,108
 630 438 630 438 625 424 c 128,-1,109
 620 410 620 410 620 400.5 c 128,-1,110
 620 391 620 391 681 255 c 128,-1,111
 742 119 742 119 753.5 119 c 128,-1,112
 765 119 765 119 869.5 371.5 c 128,-1,113
 974 624 974 624 974 644.5 c 128,-1,114
 974 665 974 665 962.5 673.5 c 128,-1,115
 951 682 951 682 937 683.5 c 0,116,117
 900 687.464285714 900 687.464285714 900 700 c 0,118,119
 900 707 900 707 903 708.5 c 128,-1,120
 906 710 906 710 919 710 c 2,121,-1
 982 709 l 1,0,-1
EndSplineSet
Substitution2: "'c2sc' Capitals to Small Capitals in Latin lookup 13 subtable" w.sc
AlternateSubs2: "'aalt' Access All Alternates in Latin lookup 1 subtable" w.sc
AlternateSubs2: "'aalt' Access All Alternates lookup 0 subtable" w.sc
Position2: "'cpsp' Capital Spacing in Latin lookup 0 subtable" dx=10 dy=0 dh=20 dv=0
EndChar

StartChar: X
Encoding: 88 88 59
Width: 751
GlyphClass: 2
Flags: HW
LayerCount: 2
Fore
SplineSet
134 3 m 1,0,-1
 54 -1 l 2,1,2
 35 -1 35 -1 30 4 c 128,-1,3
 25 9 25 9 25 17 c 128,-1,4
 25 25 25 25 31 27.5 c 128,-1,5
 37 30 37 30 45.5 30.5 c 0,6,7
 71.3248407643 32.0191082803 71.3248407643 32.0191082803 88.6624203822 45.5095541401 c 128,-1,8
 106 59 106 59 117.5 70 c 128,-1,9
 129 81 129 81 141.5 96.5 c 128,-1,10
 154 112 154 112 164 124 c 128,-1,11
 174 136 174 136 189 156.5 c 128,-1,12
 204 177 204 177 211.5 187.5 c 128,-1,13
 219 198 219 198 235.5 221.5 c 128,-1,14
 252 245 252 245 262.5 259.5 c 128,-1,15
 273 274 273 274 294 301.5 c 128,-1,16
 315 329 315 329 323.5 341 c 128,-1,17
 332 353 332 353 332 356 c 128,-1,18
 332 359 332 359 328 365.5 c 128,-1,19
 324 372 324 372 313 387.5 c 128,-1,20
 302 403 302 403 288.5 421.5 c 0,21,22
 233 497.555555556 233 497.555555556 196 551 c 0,23,24
 116 669 116 669 60 681 c 1,25,26
 37.5 681 37.5 681 28.75 688 c 128,-1,27
 20 695 20 695 20 702 c 128,-1,28
 20 709 20 709 27 711.5 c 128,-1,29
 34 714 34 714 62 714 c 1,30,-1
 151 710 l 1,31,-1
 256 712 l 2,32,33
 278 712 278 712 278 703 c 128,-1,34
 278 694 278 694 271 690 c 128,-1,35
 264 686 264 686 255.5 685.5 c 0,36,37
 233 684.176470588 233 684.176470588 233 664.588235294 c 128,-1,38
 233 645 233 645 287 567 c 1,39,40
 368 444 368 444 376 436 c 128,-1,41
 384 428 384 428 387 428 c 0,42,43
 395 428 395 428 407 445.5 c 128,-1,44
 419 463 419 463 439 491.5 c 128,-1,45
 459 520 459 520 474.5 542.5 c 128,-1,46
 490 565 490 565 506.5 589.5 c 0,47,48
 542 642.212121212 542 642.212121212 542 656.606060606 c 128,-1,49
 542 671 542 671 533.5 678.5 c 128,-1,50
 525 686 525 686 515.5 687 c 0,51,52
 489 689.789473684 489 689.789473684 489 704 c 0,53,54
 489 714 489 714 504 714 c 2,55,-1
 585 710 l 1,56,57
 641 710 641 710 658.5 712 c 128,-1,58
 676 714 676 714 679 714 c 0,59,60
 695 714 695 714 695 704 c 128,-1,61
 695 694 695 694 686 690.5 c 128,-1,62
 677 687 677 687 657 680 c 128,-1,63
 637 673 637 673 619 660.5 c 128,-1,64
 601 648 601 648 567 602 c 0,65,66
 412 394 412 394 412 392 c 0,67,68
 412 385 412 385 453.5 326 c 128,-1,69
 495 267 495 267 538 205 c 0,70,71
 630 71 630 71 668 40 c 0,72,73
 671 37 671 37 687.5 34 c 0,74,75
 731 26.0909090909 731 26.0909090909 731 13 c 0,76,77
 731 8 731 8 729.5 5.5 c 0,78,79
 725.6 -1 725.6 -1 699 -1 c 1,80,-1
 592 6 l 1,81,82
 542 6 542 6 518 3 c 128,-1,83
 494 0 494 0 490 0 c 0,84,85
 477 0 477 0 477 12.5 c 128,-1,86
 477 25 477 25 502.5 31 c 128,-1,87
 528 37 528 37 528 56 c 0,88,89
 528 74.5806451613 528 74.5806451613 469.5 159.5 c 0,90,91
 400.06 260.3 400.06 260.3 381.03 290.15 c 128,-1,92
 362 320 362 320 355 320 c 0,93,94
 353 320 353 320 332.5 287 c 128,-1,95
 312 254 312 254 270.5 198.5 c 128,-1,96
 229 143 229 143 208 109 c 128,-1,97
 187 75 187 75 187 55 c 0,98,99
 187 28 187 28 241 28 c 0,100,101
 253 28 253 28 253 11 c 0,102,103
 253 0 253 0 222 0 c 1,104,-1
 134 3 l 1,0,-1
EndSplineSet
Substitution2: "'c2sc' Capitals to Small Capitals in Latin lookup 13 subtable" x.sc
AlternateSubs2: "'aalt' Access All Alternates in Latin lookup 1 subtable" x.sc
AlternateSubs2: "'aalt' Access All Alternates lookup 0 subtable" x.sc
Position2: "'cpsp' Capital Spacing in Latin lookup 0 subtable" dx=10 dy=0 dh=20 dv=0
EndChar

StartChar: Y
Encoding: 89 89 60
Width: 712
GlyphClass: 2
Flags: HW
LayerCount: 2
Fore
SplineSet
326 89 m 2,0,-1
 328 292 l 2,1,2
 328 334.333333333 328 334.333333333 302.5 374 c 0,3,4
 278.166666667 411.851851852 278.166666667 411.851851852 239.083333333 468.925925926 c 128,-1,5
 200 526 200 526 170 571.5 c 128,-1,6
 140 617 140 617 115 641.5 c 128,-1,7
 90 666 90 666 76.5 670.5 c 128,-1,8
 63 675 63 675 41.5 675 c 128,-1,9
 20 675 20 675 20 687 c 128,-1,10
 20 699 20 699 31.5 702 c 128,-1,11
 43 705 43 705 82 705 c 1,12,-1
 140 703 l 1,13,-1
 225 704 l 2,14,15
 275 704 275 704 275 692.5 c 128,-1,16
 275 681 275 681 254 673.5 c 128,-1,17
 233 666 233 666 233 656.5 c 128,-1,18
 233 647 233 647 239.5 631 c 128,-1,19
 246 615 246 615 252.5 605 c 128,-1,20
 259 595 259 595 272 576 c 128,-1,21
 285 557 285 557 303 528 c 128,-1,22
 321 499 321 499 357.5 450 c 128,-1,23
 394 401 394 401 399.5 401 c 128,-1,24
 405 401 405 401 414 412.5 c 128,-1,25
 423 424 423 424 439 451 c 128,-1,26
 455 478 455 478 462 488.5 c 128,-1,27
 469 499 469 499 480.5 516 c 128,-1,28
 492 533 492 533 496.5 540 c 128,-1,29
 501 547 501 547 510 561.5 c 128,-1,30
 519 576 519 576 523 583.5 c 128,-1,31
 527 591 527 591 532.5 601.5 c 0,32,33
 542 619.636363636 542 619.636363636 542 632 c 0,34,35
 542 667.933333333 542 667.933333333 496.5 674 c 0,36,37
 474.309278351 676.958762887 474.309278351 676.958762887 471.154639175 682.479381443 c 128,-1,38
 468 688 468 688 468 693 c 0,39,40
 468 705 468 705 496 705 c 2,41,-1
 537 704 l 1,42,-1
 643 703 l 2,43,44
 692 703 692 703 692 688 c 0,45,46
 692 684 692 684 686 681 c 128,-1,47
 680 678 680 678 669 673 c 128,-1,48
 658 668 658 668 649 661 c 0,49,50
 608 629 608 629 528.5 509 c 128,-1,51
 449 389 449 389 435.5 372 c 128,-1,52
 422 355 422 355 418 331 c 128,-1,53
 414 307 414 307 414 249 c 2,54,-1
 415 133 l 1,55,-1
 415 109 l 2,56,57
 415 76 415 76 426.5 57 c 128,-1,58
 438 38 438 38 448 34.5 c 128,-1,59
 458 31 458 31 468 31 c 2,60,-1
 488 30 l 2,61,62
 495 30 495 30 499 25.5 c 128,-1,63
 503 21 503 21 503 13.5 c 128,-1,64
 503 6 503 6 498 3 c 128,-1,65
 493 0 493 0 479 0 c 2,66,-1
 379 1 l 1,67,-1
 269 -3 l 1,68,69
 241 -3 241 -3 241 7 c 128,-1,70
 241 17 241 17 246.5 20.5 c 128,-1,71
 252 24 252 24 265 25 c 128,-1,72
 278 26 278 26 284 28 c 0,73,74
 326 41 326 41 326 89 c 2,0,-1
EndSplineSet
Substitution2: "'c2sc' Capitals to Small Capitals in Latin lookup 13 subtable" y.sc
AlternateSubs2: "'aalt' Access All Alternates in Latin lookup 1 subtable" y.sc
AlternateSubs2: "'aalt' Access All Alternates lookup 0 subtable" y.sc
Position2: "'cpsp' Capital Spacing in Latin lookup 0 subtable" dx=10 dy=0 dh=20 dv=0
EndChar

StartChar: Z
Encoding: 90 90 61
Width: 563
GlyphClass: 2
Flags: HW
LayerCount: 2
Fore
SplineSet
287 -1 m 1,0,-1
 40 -2 l 2,1,2
 20 -2 20 -2 20 14 c 0,3,4
 20 19.5 20 19.5 48.5 62.25 c 128,-1,5
 77 105 77 105 100.5 147 c 128,-1,6
 124 189 124 189 202.5 317.5 c 128,-1,7
 281 446 281 446 337 540.5 c 128,-1,8
 393 635 393 635 393 646 c 128,-1,9
 393 657 393 657 354 657 c 128,-1,10
 315 657 315 657 167 653 c 0,11,12
 135 652 135 652 111.5 637 c 128,-1,13
 88 622 88 622 78.5 604.5 c 128,-1,14
 69 587 69 587 61 572.5 c 128,-1,15
 53 558 53 558 48 558 c 0,16,17
 35 558 35 558 35 576 c 128,-1,18
 35 594 35 594 39 614 c 128,-1,19
 43 634 43 634 43 639.5 c 128,-1,20
 43 645 43 645 46 672.5 c 128,-1,21
 49 700 49 700 55 704 c 128,-1,22
 61 708 61 708 71.5 708 c 128,-1,23
 82 708 82 708 109.5 707 c 0,24,25
 164.5 705 164.5 705 292 705 c 2,26,-1
 472 706 l 2,27,28
 515 706 515 706 515 692 c 128,-1,29
 515 678 515 678 331.5 376 c 128,-1,30
 148 74 148 74 148 65.5 c 128,-1,31
 148 57 148 57 156 52.5 c 128,-1,32
 164 48 164 48 183.5 46.5 c 0,33,34
 216 44 216 44 290.5 44 c 128,-1,35
 365 44 365 44 410 49.5 c 128,-1,36
 455 55 455 55 479 68.5 c 128,-1,37
 503 82 503 82 511.5 91 c 128,-1,38
 520 100 520 100 525 105 c 128,-1,39
 530 110 530 110 535 110 c 0,40,41
 543 110 543 110 543 95.5 c 128,-1,42
 543 81 543 81 512 31 c 0,43,44
 510 28 510 28 507 22.5 c 128,-1,45
 504 17 504 17 502.5 15 c 0,46,47
 495 5 495 5 491.5 3.5 c 0,48,49
 483.333333333 1.64313007645e-14 483.333333333 1.64313007645e-14 470 0 c 2,50,-1
 287 -1 l 1,0,-1
EndSplineSet
Substitution2: "'c2sc' Capitals to Small Capitals in Latin lookup 13 subtable" z.sc
AlternateSubs2: "'aalt' Access All Alternates in Latin lookup 1 subtable" z.sc
AlternateSubs2: "'aalt' Access All Alternates lookup 0 subtable" z.sc
Position2: "'cpsp' Capital Spacing in Latin lookup 0 subtable" dx=10 dy=0 dh=20 dv=0
EndChar

StartChar: bracketleft
Encoding: 91 91 62
Width: 287
GlyphClass: 2
Flags: HW
LayerCount: 2
Fore
SplineSet
139 -159 m 2,0,-1
 229 -158 l 2,1,2
 243 -158 243 -158 248 -162.5 c 128,-1,3
 253 -167 253 -167 253 -181.5 c 128,-1,4
 253 -196 253 -196 242.5 -200 c 128,-1,5
 232 -204 232 -204 201 -204 c 2,6,-1
 111 -204 l 2,7,8
 89 -204 89 -204 83.5 -194 c 128,-1,9
 78 -184 78 -184 78 -143 c 2,10,-1
 78 -82 l 1,11,-1
 84 570 l 1,12,-1
 84 652 l 1,13,-1
 83 738 l 2,14,15
 83 754 83 754 93 758.5 c 128,-1,16
 103 763 103 763 132 763 c 2,17,-1
 175 763 l 1,18,-1
 233.5 764 l 1,19,-1
 241 764 l 2,20,21
 248 764 248 764 252.5 757.5 c 128,-1,22
 257 751 257 751 257 743 c 0,23,24
 257 723 257 723 245 723 c 2,25,-1
 153 722 l 1,26,-1
 137 722 l 2,27,28
 129 722 129 722 129 714 c 2,29,-1
 131 559 l 1,30,31
 126 15 l 2,32,33
 126 -82 126 -82 126.5 -120.5 c 128,-1,34
 127 -159 127 -159 139 -159 c 2,0,-1
EndSplineSet
Substitution2: "'case' Case-Sensitive Forms in Latin lookup 15 subtable" bracketleft.uppercase
Substitution2: "'subs' Subscript in Latin lookup 10 subtable" bracketleft.sub
Substitution2: "'sups' Superscript in Latin lookup 9 subtable" bracketleft.sup
AlternateSubs2: "'aalt' Access All Alternates in Latin lookup 1 subtable" bracketleft.uppercase bracketleft.sub bracketleft.sup
AlternateSubs2: "'aalt' Access All Alternates lookup 0 subtable" bracketleft.uppercase bracketleft.sub bracketleft.sup
EndChar

StartChar: backslash
Encoding: 92 92 63
Width: 416
GlyphClass: 2
Flags: HW
LayerCount: 2
Fore
SplineSet
20 723 m 0,0,1
 20 735 20 735 37.5 735 c 128,-1,2
 55 735 55 735 60.5 731.5 c 128,-1,3
 66 728 66 728 70 717 c 2,4,-1
 377 -113 l 2,5,6
 380 -121 380 -121 385 -134 c 0,7,8
 396 -162.6 396 -162.6 396 -167 c 0,9,10
 396 -183 396 -183 363 -183 c 0,11,12
 355 -183 355 -183 350.5 -177.5 c 128,-1,13
 346 -172 346 -172 338 -152 c 2,14,-1
 34 679 l 2,15,16
 20 715 20 715 20 723 c 0,0,1
EndSplineSet
EndChar

StartChar: bracketright
Encoding: 93 93 64
Width: 287
GlyphClass: 2
Flags: HW
LayerCount: 2
Fore
SplineSet
203 -10 m 1,0,-1
 204 -151.5 l 1,1,-1
 204 -178 l 2,2,3
 204 -194 204 -194 194 -199 c 128,-1,4
 184 -204 184 -204 155 -204 c 2,5,-1
 46 -204 l 2,6,7
 39 -204 39 -204 34 -198 c 128,-1,8
 29 -192 29 -192 29 -184 c 0,9,10
 29 -163 29 -163 42 -163 c 2,11,-1
 150 -163 l 2,12,13
 157 -163 157 -163 157 -154 c 2,14,-1
 156 -75 l 1,15,-1
 156 1 l 1,16,-1
 160 545 l 2,17,18
 160 641 160 641 159.5 679.5 c 128,-1,19
 159 718 159 718 147 718 c 2,20,-1
 57 718 l 2,21,22
 43 718 43 718 38 722 c 128,-1,23
 33 726 33 726 33 739 c 0,24,25
 33 762 33 762 50 762 c 0,26,27
 150 764 150 764 173.5 764 c 128,-1,28
 197 764 197 764 202.5 754 c 128,-1,29
 208 744 208 744 208 703 c 2,30,-1
 208 642 l 1,31,-1
 203 -10 l 1,0,-1
EndSplineSet
Substitution2: "'case' Case-Sensitive Forms in Latin lookup 15 subtable" bracketright.uppercase
Substitution2: "'subs' Subscript in Latin lookup 10 subtable" bracketright.sub
Substitution2: "'sups' Superscript in Latin lookup 9 subtable" bracketright.sup
AlternateSubs2: "'aalt' Access All Alternates in Latin lookup 1 subtable" bracketright.uppercase bracketright.sub bracketright.sup
AlternateSubs2: "'aalt' Access All Alternates lookup 0 subtable" bracketright.uppercase bracketright.sub bracketright.sup
EndChar

StartChar: asciicircum
Encoding: 94 94 65
Width: 333
GlyphClass: 2
Flags: HW
LayerCount: 2
Fore
SplineSet
29 331 m 0,0,1
 29 336 29 336 42.5 358 c 128,-1,2
 56 380 56 380 88 434 c 128,-1,3
 120 488 120 488 133 504.5 c 128,-1,4
 146 521 146 521 162.5 521 c 128,-1,5
 179 521 179 521 191.5 504.5 c 128,-1,6
 204 488 204 488 235.5 434.5 c 128,-1,7
 267 381 267 381 280 360 c 128,-1,8
 293 339 293 339 293 329 c 0,9,10
 293 321 293 321 275 321 c 2,11,-1
 260 321 l 2,12,13
 249 321 249 321 245 327 c 2,14,-1
 239 336 l 2,15,16
 233 345 233 345 230 354 c 1,17,18
 219.5 372 219.5 372 209.75 391.5 c 128,-1,19
 200 411 200 411 194.5 420.5 c 128,-1,20
 189 430 189 430 186 436 c 128,-1,21
 183 442 183 442 179.5 448 c 128,-1,22
 176 454 176 454 173.5 457 c 128,-1,23
 171 460 171 460 169 463 c 128,-1,24
 167 466 167 466 165.5 467 c 128,-1,25
 164 468 164 468 162 468 c 128,-1,26
 160 468 160 468 157.5 466 c 128,-1,27
 155 464 155 464 152 459.5 c 128,-1,28
 149 455 149 455 145.5 449.5 c 128,-1,29
 142 444 142 444 136.5 433.5 c 128,-1,30
 131 423 131 423 125.5 413 c 128,-1,31
 120 403 120 403 111 386 c 128,-1,32
 102 369 102 369 97.5 360.5 c 128,-1,33
 93 352 93 352 90 346.5 c 128,-1,34
 87 341 87 341 86 339 c 128,-1,35
 85 337 85 337 82 332.5 c 128,-1,36
 79 328 79 328 76.5 326.5 c 0,37,38
 69 322 69 322 63 322 c 2,39,-1
 49 322 l 2,40,41
 29 322 29 322 29 331 c 0,0,1
EndSplineSet
EndChar

StartChar: underscore
Encoding: 95 95 66
Width: 213
GlyphClass: 2
Flags: HW
LayerCount: 2
Fore
SplineSet
3 -57 m 128,-1,1
 0 -52 0 -52 0 -41 c 128,-1,2
 0 -30 0 -30 1 -26.5 c 0,3,4
 3.71428571429 -17 3.71428571429 -17 19 -17 c 2,5,-1
 197 -17 l 2,6,7
 211.285714286 -17 211.285714286 -17 212.5 -25.5 c 0,8,9
 213 -29 213 -29 213 -40.5 c 128,-1,10
 213 -52 213 -52 210 -57 c 128,-1,11
 207 -62 207 -62 192 -62 c 2,12,-1
 18 -62 l 2,13,0
 6 -62 6 -62 3 -57 c 128,-1,1
EndSplineSet
EndChar

StartChar: a
Encoding: 97 97 68
Width: 461
GlyphClass: 2
Flags: HW
LayerCount: 2
Fore
SplineSet
166 -15 m 0,0,1
 48 -15 48 -15 48 85 c 0,2,3
 48 156.721311475 48 156.721311475 108.5 183.5 c 0,4,5
 157.722772277 205.287128713 157.722772277 205.287128713 261 222.5 c 0,6,7
 264 223 264 223 269 223.5 c 128,-1,8
 274 224 274 224 279.5 225 c 128,-1,9
 285 226 285 226 287.5 227 c 0,10,11
 295 230 295 230 295 241 c 2,12,-1
 297 293 l 1,13,14
 297 350 297 350 264 375.5 c 128,-1,15
 231 401 231 401 200 401 c 0,16,17
 128 401 128 401 128 341 c 1,18,-1
 132 305 l 1,19,20
 132 285 132 285 114 285 c 0,21,22
 99.8571428571 285 99.8571428571 285 83.4285714286 290 c 0,23,24
 52 299.565217391 52 299.565217391 52 324 c 0,25,26
 52 363 52 363 104.5 398.5 c 128,-1,27
 157 434 157 434 210 434 c 128,-1,28
 263 434 263 434 293 424 c 128,-1,29
 323 414 323 414 337.5 401.5 c 128,-1,30
 352 389 352 389 360 368.5 c 0,31,32
 370 342.875 370 342.875 370 289.4375 c 128,-1,33
 370 236 370 236 367.5 194.5 c 128,-1,34
 365 153 365 153 365 119 c 128,-1,35
 365 85 365 85 373 63.5 c 128,-1,36
 381 42 381 42 392 36 c 128,-1,37
 403 30 403 30 414 29 c 0,38,39
 441 26.5454545455 441 26.5454545455 441 13 c 0,40,41
 441 -8 441 -8 378 -8 c 0,42,43
 352 -8 352 -8 333.5 6 c 128,-1,44
 315 20 315 20 307 33.5 c 128,-1,45
 299 47 299 47 298 47 c 128,-1,46
 297 47 297 47 290 40.5 c 128,-1,47
 283 34 283 34 270.5 25 c 128,-1,48
 258 16 258 16 242.5 7 c 0,49,50
 204.611111111 -15 204.611111111 -15 166 -15 c 0,0,1
288 208 m 1,51,-1
 278 206 l 2,52,53
 255 202 255 202 249 201 c 128,-1,54
 243 200 243 200 221 195 c 128,-1,55
 199 190 199 190 190.5 186 c 128,-1,56
 182 182 182 182 166.5 173.5 c 128,-1,57
 151 165 151 165 144.5 155.5 c 0,58,59
 126 128.461538462 126 128.461538462 126 97.2307692308 c 128,-1,60
 126 66 126 66 146 45.5 c 128,-1,61
 166 25 166 25 197.5 25 c 128,-1,62
 229 25 229 25 247.5 33 c 128,-1,63
 266 41 266 41 275 51 c 128,-1,64
 284 61 284 61 289 77.5 c 0,65,66
 295 97.3 295 97.3 295 127 c 2,67,-1
 295 199 l 2,68,69
 295 208 295 208 288 208 c 1,51,-1
EndSplineSet
Substitution2: "'smcp' Lowercase to Small Capitals in Latin lookup 12 subtable" a.sc
AlternateSubs2: "'aalt' Access All Alternates in Latin lookup 1 subtable" a.sc
AlternateSubs2: "'aalt' Access All Alternates lookup 0 subtable" a.sc
EndChar

StartChar: b
Encoding: 98 98 69
Width: 547
GlyphClass: 2
Flags: HW
LayerCount: 2
Fore
SplineSet
70 -4 m 2,0,-1
 74 78 l 1,1,2
 74 111 74 111 78.5 196 c 128,-1,3
 83 281 83 281 83 342 c 2,4,-1
 83 589 l 2,5,6
 83 680 83 680 38 680 c 2,7,-1
 28 680 l 2,8,9
 12 680 12 680 12 690 c 128,-1,10
 12 700 12 700 22 707 c 128,-1,11
 32 714 32 714 54 721.5 c 128,-1,12
 76 729 76 729 80 730.5 c 128,-1,13
 84 732 84 732 99.5 739.5 c 0,14,15
 133.6 756 133.6 756 139.8 756 c 128,-1,16
 146 756 146 756 151 751 c 128,-1,17
 156 746 156 746 156 737.5 c 2,18,-1
 156 717.5 l 1,19,-1
 155 596 l 1,20,-1
 155 411 l 2,21,22
 155 375 155 375 162 375 c 0,23,24
 166 375 166 375 174 385.5 c 128,-1,25
 182 396 182 396 193.5 408.5 c 128,-1,26
 205 421 205 421 238 431.5 c 128,-1,27
 271 442 271 442 320 442 c 0,28,29
 409 442 409 442 458.5 380 c 128,-1,30
 508 318 508 318 508 235 c 0,31,32
 508 188 508 188 483.5 126.5 c 128,-1,33
 459 65 459 65 417 33 c 0,34,35
 359 -11 359 -11 278 -11 c 0,36,37
 237 -11 237 -11 202 3.5 c 128,-1,38
 167 18 167 18 149.5 32.5 c 128,-1,39
 132 47 132 47 131 47 c 0,40,41
 127 47 127 47 111.5 15 c 128,-1,42
 96 -17 96 -17 82 -17 c 0,43,44
 70 -17 70 -17 70 -4 c 2,0,-1
155 132 m 2,45,46
 155 105 155 105 194.5 65 c 128,-1,47
 234 25 234 25 302 25 c 128,-1,48
 370 25 370 25 406.5 71.5 c 128,-1,49
 443 118 443 118 443 191 c 128,-1,50
 443 264 443 264 395.5 326 c 128,-1,51
 348 388 348 388 267 388 c 0,52,53
 220 388 220 388 187.5 361 c 128,-1,54
 155 334 155 334 155 313 c 2,55,-1
 155 132 l 2,45,46
EndSplineSet
Substitution2: "'smcp' Lowercase to Small Capitals in Latin lookup 12 subtable" b.sc
AlternateSubs2: "'aalt' Access All Alternates in Latin lookup 1 subtable" b.sc
AlternateSubs2: "'aalt' Access All Alternates lookup 0 subtable" b.sc
EndChar

StartChar: c
Encoding: 99 99 70
Width: 452
GlyphClass: 2
Flags: HW
LayerCount: 2
Fore
SplineSet
95.5 36 m 128,-1,1
 39 93 39 93 39 190.5 c 128,-1,2
 39 288 39 288 103.5 358.5 c 128,-1,3
 168 429 168 429 271 429 c 0,4,5
 306 429 306 429 346.5 419 c 128,-1,6
 387 409 387 409 388 396 c 0,7,8
 390 372 390 372 390 338.5 c 128,-1,9
 390 305 390 305 379 305 c 0,10,11
 369.5 305 369.5 305 361.25 318.5 c 0,12,13
 343.825819672 347.012295082 343.825819672 347.012295082 296.412909836 368.506147541 c 128,-1,14
 249 390 249 390 213 390 c 0,15,16
 192.826086957 390 192.826086957 390 173.913043478 375 c 128,-1,17
 155 360 155 360 143 342.5 c 0,18,19
 114 300.208333333 114 300.208333333 114 223.104166667 c 128,-1,20
 114 146 114 146 163.5 88.5 c 128,-1,21
 213 31 213 31 285 31 c 0,22,23
 320 31 320 31 350 44 c 128,-1,24
 380 57 380 57 396.5 70 c 128,-1,25
 413 83 413 83 417 83 c 0,26,27
 428 83 428 83 428 73 c 0,28,29
 428 62.5517241379 428 62.5517241379 407 42.275862069 c 128,-1,30
 386 22 386 22 366 9.5 c 0,31,32
 317.2 -21 317.2 -21 246 -21 c 0,33,0
 152 -21 152 -21 95.5 36 c 128,-1,1
EndSplineSet
Substitution2: "'smcp' Lowercase to Small Capitals in Latin lookup 12 subtable" c.sc
AlternateSubs2: "'aalt' Access All Alternates in Latin lookup 1 subtable" c.sc
AlternateSubs2: "'aalt' Access All Alternates lookup 0 subtable" c.sc
EndChar

StartChar: d
Encoding: 100 100 71
Width: 565
GlyphClass: 2
Flags: HW
LayerCount: 2
Fore
SplineSet
394 -3 m 2,0,-1
 391 34 l 1,1,2
 391 51 391 51 382 51 c 0,3,4
 379 51 379 51 367.5 41 c 128,-1,5
 356 31 356 31 341 18.5 c 128,-1,6
 326 6 326 6 297.5 -4 c 128,-1,7
 269 -14 269 -14 236 -14 c 0,8,9
 143 -14 143 -14 91 47.5 c 128,-1,10
 39 109 39 109 39 200.5 c 128,-1,11
 39 292 39 292 103.5 365 c 128,-1,12
 168 438 168 438 282 438 c 0,13,14
 308 438 308 438 350.5 423.5 c 128,-1,15
 393 409 393 409 397 409 c 128,-1,16
 401 409 401 409 401 445 c 2,17,-1
 403 574 l 2,18,19
 403 628 403 628 397.5 650 c 128,-1,20
 392 672 392 672 380.5 679 c 128,-1,21
 369 686 369 686 350 686 c 2,22,-1
 339 686 l 2,23,24
 324 686 324 686 321 687 c 128,-1,25
 318 688 318 688 318 694 c 2,26,-1
 318 695 l 2,27,28
 318 702 318 702 328 705.5 c 128,-1,29
 338 709 338 709 368.5 718.5 c 128,-1,30
 399 728 399 728 416.5 736 c 128,-1,31
 434 744 434 744 443 748.5 c 0,32,33
 462 758 462 758 470 758 c 0,34,35
 482 758 482 758 482 738 c 0,36,37
 482 735 482 735 475.5 653 c 128,-1,38
 469 571 469 571 469 521 c 2,39,-1
 467 156 l 2,40,41
 467 88 467 88 473.5 65 c 128,-1,42
 480 42 480 42 502 35 c 0,43,44
 505 34 505 34 519 31.5 c 128,-1,45
 533 29 533 29 539 25.5 c 128,-1,46
 545 22 545 22 545 14 c 0,47,48
 545 2 545 2 468 -4 c 0,49,50
 452 -5 452 -5 431 -9.5 c 128,-1,51
 410 -14 410 -14 405 -14 c 0,52,53
 394 -14 394 -14 394 -3 c 2,0,-1
148 361.5 m 128,-1,55
 111 314 111 314 111 240 c 128,-1,56
 111 166 111 166 157.5 102 c 128,-1,57
 204 38 204 38 277 38 c 0,58,59
 322 38 322 38 359 61 c 128,-1,60
 396 84 396 84 396 117 c 2,61,-1
 397 288 l 2,62,63
 397 349 397 349 369 365 c 0,64,65
 295 409 295 409 250 409 c 0,66,54
 185 409 185 409 148 361.5 c 128,-1,55
EndSplineSet
Substitution2: "'smcp' Lowercase to Small Capitals in Latin lookup 12 subtable" d.sc
AlternateSubs2: "'aalt' Access All Alternates in Latin lookup 1 subtable" d.sc
AlternateSubs2: "'aalt' Access All Alternates lookup 0 subtable" d.sc
EndChar

StartChar: e
Encoding: 101 101 72
Width: 466
GlyphClass: 2
Flags: HW
LayerCount: 2
Fore
SplineSet
100.5 35 m 128,-1,1
 39 89 39 89 39 191.5 c 128,-1,2
 39 294 39 294 95.5 363 c 128,-1,3
 152 432 152 432 242 432 c 0,4,5
 284 432 284 432 318.5 417 c 128,-1,6
 353 402 353 402 372 380.5 c 128,-1,7
 391 359 391 359 404 335 c 0,8,9
 426 294.384615385 426 294.384615385 426 273 c 0,10,11
 426 255 426 255 385 255 c 2,12,-1
 128 255 l 2,13,14
 120 255 120 255 118.5 253.5 c 128,-1,15
 117 252 117 252 117 244 c 0,16,17
 117 150 117 150 167.5 96 c 128,-1,18
 218 42 218 42 286 42 c 0,19,20
 328 42 328 42 371.5 64.5 c 128,-1,21
 415 87 415 87 417 87 c 0,22,23
 427 87 427 87 427 78 c 0,24,25
 427 66.0666666667 427 66.0666666667 405 45.5333333333 c 128,-1,26
 383 25 383 25 363 12 c 0,27,28
 315.307692308 -19 315.307692308 -19 250 -19 c 0,29,0
 162 -19 162 -19 100.5 35 c 128,-1,1
136 279 m 2,30,-1
 312 285 l 2,31,32
 326 285 326 285 329.5 287.5 c 128,-1,33
 333 290 333 290 333 297 c 0,34,35
 333 327 333 327 305 367 c 128,-1,36
 277 407 277 407 227 407 c 128,-1,37
 177 407 177 407 150 367.5 c 128,-1,38
 123 328 123 328 123 293 c 0,39,40
 123 279 123 279 136 279 c 2,30,-1
EndSplineSet
Substitution2: "'smcp' Lowercase to Small Capitals in Latin lookup 12 subtable" e.sc
AlternateSubs2: "'aalt' Access All Alternates in Latin lookup 1 subtable" e.sc
AlternateSubs2: "'aalt' Access All Alternates lookup 0 subtable" e.sc
EndChar

StartChar: f
Encoding: 102 102 73
Width: 345
GlyphClass: 2
Flags: HW
LayerCount: 2
Fore
SplineSet
91 375 m 2,0,-1
 51 372 l 1,1,2
 29 372 29 372 29 385 c 0,3,4
 29 403 29 403 37.5 409 c 128,-1,5
 46 415 46 415 71 415 c 2,6,-1
 92 415 l 2,7,8
 104 415 104 415 107 420.5 c 128,-1,9
 110 426 110 426 110 438 c 0,10,11
 110 511 110 511 134 572.5 c 128,-1,12
 158 634 158 634 193.5 670.5 c 0,13,14
 267.904109589 747 267.904109589 747 330 747 c 0,15,16
 353 747 353 747 367.5 739.5 c 128,-1,17
 382 732 382 732 382 719 c 0,18,19
 382 715 382 715 378.5 701.5 c 128,-1,20
 375 688 375 688 374 684 c 128,-1,21
 373 680 373 680 372 677.5 c 128,-1,22
 371 675 371 675 370 672 c 128,-1,23
 369 669 369 669 368 667.5 c 128,-1,24
 367 666 367 666 365.5 664 c 128,-1,25
 364 662 364 662 362.5 661 c 0,26,27
 359.5 659 359.5 659 354.25 659 c 128,-1,28
 349 659 349 659 344 665.5 c 0,29,30
 329 685 329 685 290.5 685 c 128,-1,31
 252 685 252 685 230.5 664 c 128,-1,32
 209 643 209 643 198 607.5 c 0,33,34
 177 539.727272727 177 539.727272727 177 458 c 2,35,-1
 177 433 l 2,36,37
 177 414 177 414 189 414 c 0,38,39
 277 414 277 414 296.5 427.5 c 0,40,41
 303 432 303 432 307 432 c 128,-1,42
 311 432 311 432 311 421.5 c 128,-1,43
 311 411 311 411 297 386 c 0,44,45
 291 377 291 377 272 377 c 2,46,-1
 194 376 l 2,47,48
 178 376 178 376 178 366 c 2,49,-1
 178 308 l 1,50,-1
 183 110 l 1,51,52
 183 57 183 57 197 39.5 c 0,53,54
 213.4 19 213.4 19 246 19 c 0,55,56
 263 19 263 19 263 4 c 0,57,58
 263 -6 263 -6 252 -6 c 2,59,-1
 152 -1 l 1,60,-1
 78 -6 l 1,61,62
 63 -6 63 -6 63 8 c 0,63,64
 63 13 63 13 75.5 18 c 128,-1,65
 88 23 88 23 100 36.5 c 128,-1,66
 112 50 112 50 112 67 c 128,-1,67
 112 84 112 84 111 116.5 c 0,68,69
 108 214 108 214 108 359 c 0,70,71
 108 370 108 370 104.5 372.5 c 128,-1,72
 101 375 101 375 91 375 c 2,0,-1
EndSplineSet
Substitution2: "'smcp' Lowercase to Small Capitals in Latin lookup 12 subtable" f.sc
AlternateSubs2: "'aalt' Access All Alternates in Latin lookup 1 subtable" f.sc
AlternateSubs2: "'aalt' Access All Alternates lookup 0 subtable" f.sc
EndChar

StartChar: g
Encoding: 103 103 74
Width: 488
GlyphClass: 2
Flags: HW
LayerCount: 2
Fore
SplineSet
70.5 -164 m 128,-1,1
 39 -138 39 -138 39 -104 c 128,-1,2
 39 -70 39 -70 57 -51.5 c 128,-1,3
 75 -33 75 -33 93 -24 c 128,-1,4
 111 -15 111 -15 111 -12.5 c 128,-1,5
 111 -10 111 -10 106 -6 c 128,-1,6
 101 -2 101 -2 94.5 3 c 0,7,8
 78 15.6923076923 78 15.6923076923 78 46.3461538462 c 128,-1,9
 78 77 78 77 91 99 c 128,-1,10
 104 121 104 121 117 132 c 128,-1,11
 130 143 130 143 130 146.5 c 128,-1,12
 130 150 130 150 119.5 159 c 128,-1,13
 109 168 109 168 96 179.5 c 128,-1,14
 83 191 83 191 72.5 217.5 c 128,-1,15
 62 244 62 244 62 273.5 c 128,-1,16
 62 303 62 303 69.5 326.5 c 128,-1,17
 77 350 77 350 94.5 375.5 c 128,-1,18
 112 401 112 401 148.5 417 c 128,-1,19
 185 433 185 433 229.5 433 c 128,-1,20
 274 433 274 433 302 423 c 128,-1,21
 330 413 330 413 343.5 403 c 128,-1,22
 357 393 357 393 363 393 c 128,-1,23
 369 393 369 393 412 411 c 0,24,25
 426 417 426 417 433 438 c 128,-1,26
 440 459 440 459 448 459 c 0,27,28
 461 459 461 459 461 451 c 0,29,30
 461 427 461 427 454 399.5 c 128,-1,31
 447 372 447 372 437 356.5 c 128,-1,32
 427 341 427 341 398 329 c 1,33,34
 409 299 409 299 409 279 c 0,35,36
 409 215 409 215 361 171 c 128,-1,37
 313 127 313 127 244 127 c 0,38,39
 218 127 218 127 194.5 131.5 c 128,-1,40
 171 136 171 136 166.5 136 c 128,-1,41
 162 136 162 136 154 134 c 128,-1,42
 146 132 146 132 134 120 c 128,-1,43
 122 108 122 108 122 87 c 0,44,45
 122 53 122 53 153 44 c 128,-1,46
 184 35 184 35 256 35 c 2,47,-1
 302 35 l 2,48,49
 447 35 447 35 447 -53 c 0,50,51
 447 -84 447 -84 440 -100 c 0,52,53
 421 -149 421 -149 362 -178 c 128,-1,54
 303 -207 303 -207 225 -207 c 0,55,56
 180 -207 180 -207 141 -198.5 c 128,-1,0
 102 -190 102 -190 70.5 -164 c 128,-1,1
97 -91 m 0,57,58
 97 -135 97 -135 134 -157.5 c 128,-1,59
 171 -180 171 -180 229 -180 c 128,-1,60
 287 -180 287 -180 336.5 -154.5 c 128,-1,61
 386 -129 386 -129 386 -89 c 0,62,63
 386 -52.7894736842 386 -52.7894736842 351 -44.5 c 0,64,65
 323.555555556 -38 323.555555556 -38 275 -38 c 2,66,-1
 266 -38 l 2,67,68
 234 -38 234 -38 188 -31 c 2,69,-1
 143 -24 l 1,70,71
 133 -24 133 -24 115 -44 c 128,-1,72
 97 -64 97 -64 97 -91 c 0,57,58
164 379.5 m 128,-1,74
 138 348 138 348 138 289 c 128,-1,75
 138 230 138 230 166.5 190 c 128,-1,76
 195 150 195 150 239 150 c 128,-1,77
 283 150 283 150 307 184.5 c 128,-1,78
 331 219 331 219 331 272 c 128,-1,79
 331 325 331 325 303 368 c 128,-1,80
 275 411 275 411 232.5 411 c 128,-1,73
 190 411 190 411 164 379.5 c 128,-1,74
EndSplineSet
Substitution2: "'smcp' Lowercase to Small Capitals in Latin lookup 12 subtable" g.sc
AlternateSubs2: "'aalt' Access All Alternates in Latin lookup 1 subtable" g.sc
AlternateSubs2: "'aalt' Access All Alternates lookup 0 subtable" g.sc
EndChar

StartChar: h
Encoding: 104 104 75
Width: 587
GlyphClass: 2
Flags: HW
LayerCount: 2
Fore
SplineSet
132 5 m 2,0,-1
 61 0 l 1,1,2
 36 0 36 0 35 3 c 128,-1,3
 34 6 34 6 34 10 c 0,4,5
 34 20 34 20 46 23 c 0,6,7
 75 31 75 31 83.5 48.5 c 128,-1,8
 92 66 92 66 92 100 c 2,9,-1
 96 441 l 1,10,-1
 96 490 l 2,11,12
 96 626 96 626 90 656 c 128,-1,13
 84 686 84 686 54 686 c 2,14,-1
 41 686 l 1,15,-1
 37 687 l 1,16,17
 20 687 20 687 20 696 c 128,-1,18
 20 705 20 705 30.5 710.5 c 128,-1,19
 41 716 41 716 60.5 721 c 128,-1,20
 80 726 80 726 116 742 c 128,-1,21
 152 758 152 758 161 758 c 0,22,23
 174 758 174 758 174 735 c 0,24,25
 174 730 174 730 170.5 711 c 128,-1,26
 167 692 167 692 166.5 637.5 c 128,-1,27
 166 583 166 583 164.5 520.5 c 128,-1,28
 163 458 163 458 162 436.5 c 0,29,30
 160 393.5 160 393.5 160 376.75 c 128,-1,31
 160 360 160 360 168 360 c 0,32,33
 170 360 170 360 188.5 378.5 c 128,-1,34
 207 397 207 397 239.5 415.5 c 128,-1,35
 272 434 272 434 309 434 c 0,36,37
 390 434 390 434 435 386 c 128,-1,38
 480 338 480 338 480 237 c 2,39,-1
 480 92 l 2,40,41
 480 65 480 65 490 50 c 128,-1,42
 500 35 500 35 513 34 c 0,43,44
 567 29 567 29 567 13 c 128,-1,45
 567 -3 567 -3 536 -3 c 1,46,-1
 452 2 l 1,47,-1
 375 -1 l 2,48,49
 352 -1 352 -1 352 9 c 0,50,51
 352 27 352 27 379 27 c 0,52,53
 389 27 389 27 397.5 38 c 128,-1,54
 406 49 406 49 406 72 c 2,55,-1
 407 98.5 l 1,56,-1
 408 238 l 2,57,58
 408 299 408 299 371 343.5 c 128,-1,59
 334 388 334 388 285.5 388 c 128,-1,60
 237 388 237 388 187 349 c 0,61,62
 169 335 169 335 164 303.5 c 128,-1,63
 159 272 159 272 159 164 c 2,64,-1
 159 141 l 2,65,66
 159 96 159 96 166.5 68.5 c 0,67,68
 177.238410596 29.1258278146 177.238410596 29.1258278146 221 26 c 0,69,70
 235 25 235 25 242.5 22.5 c 128,-1,71
 250 20 250 20 250 12 c 0,72,73
 250 0 250 0 239 0 c 2,74,-1
 213 1 l 2,75,76
 187 2 187 2 160.5 3.5 c 128,-1,77
 134 5 134 5 132 5 c 2,0,-1
EndSplineSet
Substitution2: "'smcp' Lowercase to Small Capitals in Latin lookup 12 subtable" h.sc
AlternateSubs2: "'aalt' Access All Alternates in Latin lookup 1 subtable" h.sc
AlternateSubs2: "'aalt' Access All Alternates lookup 0 subtable" h.sc
EndChar

StartChar: i
Encoding: 105 105 76
Width: 284
GlyphClass: 2
Flags: HW
LayerCount: 2
Fore
SplineSet
159 -4 m 1,0,-1
 88 -6 l 1,1,2
 48 -6 48 -6 48 7.5 c 128,-1,3
 48 21 48 21 63 26 c 0,4,5
 64 26 64 26 67 27 c 0,6,7
 90 35 90 35 97 51 c 128,-1,8
 104 67 104 67 104 206 c 2,9,-1
 104 294 l 2,10,11
 104 323 104 323 97 340 c 128,-1,12
 90 357 90 357 84 361 c 128,-1,13
 78 365 78 365 63.5 367.5 c 128,-1,14
 49 370 49 370 42.5 372.5 c 128,-1,15
 36 375 36 375 36 380.5 c 128,-1,16
 36 386 36 386 38.5 389 c 128,-1,17
 41 392 41 392 48.5 395.5 c 128,-1,18
 56 399 56 399 64 401.5 c 0,19,20
 91.6923076923 410.153846154 91.6923076923 410.153846154 109.846153846 418.076923077 c 128,-1,21
 128 426 128 426 137.5 430 c 128,-1,22
 147 434 147 434 150 435.5 c 0,23,24
 157 439 157 439 167 439 c 0,25,26
 182 439 182 439 182 420 c 1,27,-1
 176 372 l 1,28,-1
 176 98 l 2,29,30
 176 68 176 68 185.5 51 c 128,-1,31
 195 34 195 34 205.5 30 c 128,-1,32
 216 26 216 26 230 25 c 128,-1,33
 244 24 244 24 248 23.5 c 0,34,35
 262 21.75 262 21.75 262 10 c 0,36,37
 262 -7 262 -7 245 -7 c 1,38,-1
 230 -6 l 1,39,-1
 159 -4 l 1,0,-1
107.5 554 m 128,-1,41
 93 575 93 575 93 588.5 c 128,-1,42
 93 602 93 602 110.5 623.5 c 128,-1,43
 128 645 128 645 143.5 645 c 128,-1,44
 159 645 159 645 174 624.5 c 128,-1,45
 189 604 189 604 189 588 c 128,-1,46
 189 572 189 572 170 552.5 c 128,-1,47
 151 533 151 533 142 533 c 0,48,40
 122 533 122 533 107.5 554 c 128,-1,41
EndSplineSet
Substitution2: "'smcp' Lowercase to Small Capitals in Latin lookup 12 subtable" i.sc
Substitution2: "'locl' Localized Forms in Latin lookup 2 subtable" i.TRK
AlternateSubs2: "'aalt' Access All Alternates in Latin lookup 1 subtable" i.sc i.TRK
AlternateSubs2: "'aalt' Access All Alternates lookup 0 subtable" i.sc
EndChar

StartChar: k
Encoding: 107 107 78
Width: 545
GlyphClass: 2
Flags: HW
LayerCount: 2
Fore
SplineSet
40 679 m 1,0,-1
 20 678 l 2,1,2
 0 678 0 678 0 689 c 128,-1,3
 0 700 0 700 49 715 c 0,4,5
 56 717 56 717 65.5 720 c 128,-1,6
 75 723 75 723 77 723.5 c 128,-1,7
 79 724 79 724 84.5 726 c 128,-1,8
 90 728 90 728 90.5 728.5 c 128,-1,9
 91 729 91 729 95.5 731 c 128,-1,10
 100 733 100 733 102 734.5 c 128,-1,11
 104 736 104 736 110 739.5 c 128,-1,12
 116 743 116 743 129.5 751.5 c 128,-1,13
 143 760 143 760 156 760 c 128,-1,14
 169 760 169 760 169 741 c 0,15,16
 169 739 169 739 168 729.5 c 128,-1,17
 167 720 167 720 165.5 701.5 c 128,-1,18
 164 683 164 683 163 656.5 c 0,19,20
 160 577 160 577 160 488 c 1,21,22
 157 283 l 1,23,-1
 157 262 l 2,24,25
 157 220 157 220 161 220 c 0,26,27
 170.428571429 220 170.428571429 220 179.714285714 230 c 128,-1,28
 189 240 189 240 193 243 c 0,29,30
 333 355 333 355 333 369 c 128,-1,31
 333 383 333 383 310.5 392 c 128,-1,32
 288 401 288 401 288 409 c 0,33,34
 288 419 288 419 300 419 c 2,35,-1
 318 418 l 1,36,-1
 465 423 l 2,37,38
 491 423 491 423 491 415 c 128,-1,39
 491 407 491 407 485 404 c 128,-1,40
 479 401 479 401 469 399.5 c 0,41,42
 436.419354839 394.612903226 436.419354839 394.612903226 395 367 c 0,43,44
 392 365 392 365 388.5 362 c 128,-1,45
 385 359 385 359 375.5 352 c 128,-1,46
 366 345 366 345 353 335 c 128,-1,47
 340 325 340 325 305 298.5 c 128,-1,48
 270 272 270 272 262 265 c 128,-1,49
 254 258 254 258 254 250 c 128,-1,50
 254 242 254 242 265 227 c 1,51,52
 356 116 356 116 421 59 c 0,53,54
 448 35 448 35 475.5 28 c 128,-1,55
 503 21 503 21 515 21 c 128,-1,56
 527 21 527 21 527 12 c 0,57,58
 527 0 527 0 518.5 -2.5 c 128,-1,59
 510 -5 510 -5 486 -5 c 2,60,-1
 382 -4 l 2,61,62
 357.4375 -4 357.4375 -4 225 159 c 0,63,64
 199 191 199 191 196.5 195 c 128,-1,65
 194 199 194 199 185.5 199 c 128,-1,66
 177 199 177 199 166.5 185 c 128,-1,67
 156 171 156 171 156 153 c 1,68,-1
 157 136 l 1,69,70
 157 63.6 157 63.6 165 54 c 0,71,72
 166 53 166 53 174.5 41.5 c 128,-1,73
 183 30 183 30 216.5 24 c 128,-1,74
 250 18 250 18 250 9 c 0,75,76
 250 -7 250 -7 219 -7 c 1,77,-1
 122 -1 l 1,78,-1
 49 -5 l 1,79,80
 25 -5 25 -5 25 7 c 0,81,82
 25 17 25 17 50 24 c 1,83,84
 73 33 73 33 79 50 c 128,-1,85
 85 67 85 67 85 116 c 1,86,-1
 86 160 l 1,87,-1
 87 604 l 2,88,89
 87 679 87 679 40 679 c 1,0,-1
EndSplineSet
Substitution2: "'smcp' Lowercase to Small Capitals in Latin lookup 12 subtable" k.sc
AlternateSubs2: "'aalt' Access All Alternates in Latin lookup 1 subtable" k.sc
AlternateSubs2: "'aalt' Access All Alternates lookup 0 subtable" k.sc
EndChar

StartChar: l
Encoding: 108 108 79
Width: 279
GlyphClass: 2
Flags: HW
LayerCount: 2
Fore
SplineSet
91 192 m 1,0,-1
 95 617 l 2,1,2
 95 640 95 640 87.5 658.5 c 128,-1,3
 80 677 80 677 71 681 c 128,-1,4
 62 685 62 685 31 685 c 0,5,6
 20 685 20 685 20 692 c 128,-1,7
 20 699 20 699 21.5 702 c 128,-1,8
 23 705 23 705 28 707.5 c 128,-1,9
 33 710 33 710 39.5 711.5 c 0,10,11
 69.0566037736 718.320754717 69.0566037736 718.320754717 99.5283018868 732.660377358 c 0,12,13
 149.125 756 149.125 756 164 756 c 0,14,15
 176 756 176 756 176 737 c 0,16,17
 176 733 176 733 174 713.5 c 0,18,19
 168 655 168 655 168 585 c 2,20,-1
 168 529 l 1,21,-1
 166 396 l 1,22,-1
 166 98 l 2,23,24
 166 77 166 77 169.5 63.5 c 128,-1,25
 173 50 173 50 192.5 37.5 c 128,-1,26
 212 25 212 25 247 25 c 0,27,28
 252 25 252 25 256 20 c 128,-1,29
 260 15 260 15 260 10 c 0,30,31
 260 -4 260 -4 229 -4 c 1,32,-1
 128 3 l 1,33,34
 102 3 102 3 78.5 -1 c 128,-1,35
 55 -5 55 -5 47.5 -5 c 128,-1,36
 40 -5 40 -5 35.5 -1.5 c 128,-1,37
 31 2 31 2 31 7.5 c 128,-1,38
 31 13 31 13 35.5 16.5 c 128,-1,39
 40 20 40 20 50.5 22.5 c 0,40,41
 80.0483271375 29.5353159851 80.0483271375 29.5353159851 86.0241635688 46.2676579926 c 128,-1,42
 92 63 92 63 92 92 c 1,43,-1
 91 118 l 1,44,-1
 91 192 l 1,0,-1
EndSplineSet
Substitution2: "'smcp' Lowercase to Small Capitals in Latin lookup 12 subtable" l.sc
AlternateSubs2: "'aalt' Access All Alternates in Latin lookup 1 subtable" l.sc
AlternateSubs2: "'aalt' Access All Alternates lookup 0 subtable" l.sc
EndChar

StartChar: m
Encoding: 109 109 80
Width: 827
GlyphClass: 2
Flags: HW
LayerCount: 2
Fore
SplineSet
99 208 m 1,0,-1
 98 330 l 2,1,2
 98 354 98 354 87.5 364 c 128,-1,3
 77 374 77 374 64.5 373.5 c 0,4,5
 31 372.16 31 372.16 31 388 c 0,6,7
 31 397 31 397 43 401.5 c 128,-1,8
 55 406 55 406 79 411 c 128,-1,9
 103 416 103 416 114 420.5 c 128,-1,10
 125 425 125 425 132 429 c 128,-1,11
 139 433 139 433 142.5 434.5 c 0,12,13
 150.666666667 438 150.666666667 438 162.833333333 438 c 128,-1,14
 175 438 175 438 175 409 c 1,15,-1
 170 367 l 1,16,17
 170 355 170 355 176 355 c 0,18,19
 177 355 177 355 182.5 362.5 c 128,-1,20
 188 370 188 370 197.5 380.5 c 128,-1,21
 207 391 207 391 221 401.5 c 0,22,23
 255 427 255 427 301.5 427 c 128,-1,24
 348 427 348 427 375 414.5 c 128,-1,25
 402 402 402 402 412.5 387.5 c 128,-1,26
 423 373 423 373 430 360.5 c 128,-1,27
 437 348 437 348 438.5 348 c 128,-1,28
 440 348 440 348 457.5 368.5 c 128,-1,29
 475 389 475 389 507.5 409.5 c 128,-1,30
 540 430 540 430 576 430 c 0,31,32
 649 430 649 430 688.5 387 c 128,-1,33
 728 344 728 344 734.5 282.5 c 128,-1,34
 741 221 741 221 741 153 c 2,35,-1
 741 121 l 2,36,37
 741 76 741 76 746 56 c 128,-1,38
 751 36 751 36 769 30 c 0,39,40
 770 30 770 30 778 28.5 c 128,-1,41
 786 27 786 27 791.5 26 c 0,42,43
 807 23.1818181818 807 23.1818181818 807 11 c 0,44,45
 807 -4 807 -4 774 -4 c 1,46,-1
 708 0 l 1,47,-1
 636 -4 l 1,48,49
 612 -4 612 -4 612 6.5 c 128,-1,50
 612 17 612 17 633 25 c 128,-1,51
 654 33 654 33 658 42 c 0,52,53
 662 53 662 53 662 88 c 2,54,-1
 662 104 l 1,55,-1
 661 210.5 l 1,56,-1
 658 275.5 l 2,57,58
 658 287 658 287 655 296.5 c 128,-1,59
 652 306 652 306 651.5 311 c 128,-1,60
 651 316 651 316 646 323 c 128,-1,61
 641 330 641 330 640 332 c 0,62,63
 636 340 636 340 624 352 c 1,64,65
 598 383 598 383 549 383 c 0,66,67
 526 383 526 383 501 371 c 128,-1,68
 476 359 476 359 461 346.5 c 128,-1,69
 446 334 446 334 446 330 c 128,-1,70
 446 326 446 326 447.5 315 c 0,71,72
 452 282 452 282 452 202 c 2,73,-1
 452 117 l 2,74,75
 452 71 452 71 465 49.5 c 128,-1,76
 478 28 478 28 521 22 c 0,77,78
 531 21 531 21 535 15.5 c 128,-1,79
 539 10 539 10 539 6 c 0,80,81
 539 -5 539 -5 520 -5 c 1,82,-1
 447 0 l 1,83,-1
 356 -5 l 1,84,85
 334 -5 334 -5 334 8 c 0,86,87
 334 15 334 15 338 18.5 c 128,-1,88
 342 22 342 22 352.5 26 c 128,-1,89
 363 30 363 30 366.5 32 c 128,-1,90
 370 34 370 34 375 49 c 128,-1,91
 380 64 380 64 380 79 c 2,92,-1
 380 98 l 1,93,-1
 381 138.5 l 1,94,-1
 381 199 l 1,95,-1
 380 252 l 1,96,-1
 379 262 l 1,97,98
 379 315 379 315 352 347 c 128,-1,99
 325 379 325 379 280 379 c 128,-1,100
 235 379 235 379 202 357 c 128,-1,101
 169 335 169 335 169 306 c 2,102,-1
 169 104 l 2,103,104
 169 68 169 68 182 49 c 128,-1,105
 195 30 195 30 211 27.5 c 128,-1,106
 227 25 227 25 240 22 c 128,-1,107
 253 19 253 19 253 12 c 0,108,109
 253 3 253 3 250 0 c 128,-1,110
 247 -3 247 -3 232 -3 c 2,111,-1
 148 0 l 1,112,-1
 69 -3 l 2,113,114
 45 -3 45 -3 45 12 c 0,115,116
 45 23.4285714286 45 23.4285714286 63 26 c 0,117,118
 70 27 70 27 78 34.5 c 128,-1,119
 86 42 86 42 92.5 63 c 128,-1,120
 99 84 99 84 99 208 c 1,0,-1
EndSplineSet
Substitution2: "'smcp' Lowercase to Small Capitals in Latin lookup 12 subtable" m.sc
AlternateSubs2: "'aalt' Access All Alternates in Latin lookup 1 subtable" m.sc
AlternateSubs2: "'aalt' Access All Alternates lookup 0 subtable" m.sc
EndChar

StartChar: n
Encoding: 110 110 81
Width: 591
GlyphClass: 2
Flags: HW
LayerCount: 2
Fore
SplineSet
248 0 m 1,0,-1
 175 4 l 1,1,2
 149 4 149 4 106 2 c 2,3,-1
 63 0 l 2,4,5
 48 0 48 0 48 9 c 128,-1,6
 48 18 48 18 53 20 c 128,-1,7
 58 22 58 22 65.5 23 c 128,-1,8
 73 24 73 24 80.5 29 c 0,9,10
 99.0412371134 41.3608247423 99.0412371134 41.3608247423 101.020618557 101.680412371 c 128,-1,11
 103 162 103 162 103 181 c 2,12,-1
 103 325 l 2,13,14
 103 357 103 357 91.5 368 c 128,-1,15
 80 379 80 379 60 379 c 2,16,-1
 50 379 l 2,17,18
 31 379 31 379 31 390 c 0,19,20
 31 400.266666667 31 400.266666667 52.5 403.133333333 c 128,-1,21
 74 406 74 406 86.5 409.5 c 128,-1,22
 99 413 99 413 119.5 421.5 c 128,-1,23
 140 430 140 430 152.5 436 c 128,-1,24
 165 442 165 442 169 442 c 2,25,-1
 171 442 l 2,26,27
 180 442 180 442 180 430 c 2,28,-1
 178 387 l 1,29,30
 178 361 178 361 182 361 c 128,-1,31
 186 361 186 361 190 366.5 c 0,32,33
 204.838709677 386.903225806 204.838709677 386.903225806 230 402 c 0,34,35
 275 430 275 430 316 430 c 128,-1,36
 357 430 357 430 389 417.5 c 128,-1,37
 421 405 421 405 439 386.5 c 128,-1,38
 457 368 457 368 469 344 c 0,39,40
 489 304 489 304 489 262 c 2,41,-1
 489 252.5 l 1,42,-1
 490 199 l 1,43,-1
 490 97 l 2,44,45
 490 59 490 59 500.5 44.5 c 128,-1,46
 511 30 511 30 551 24 c 0,47,48
 571 21 571 21 571 9 c 0,49,50
 571 -1 571 -1 551 -1 c 1,51,-1
 469 4 l 1,52,-1
 392 0 l 1,53,54
 372 0 372 0 372 13 c 0,55,56
 372 22.4444444444 372 22.4444444444 383.5 25 c 2,57,-1
 397 28 l 1,58,59
 419 35 419 35 419 95 c 2,60,-1
 419 230 l 2,61,62
 419 307 419 307 381 346.5 c 128,-1,63
 343 386 343 386 295 386 c 128,-1,64
 247 386 247 386 215 363 c 128,-1,65
 183 340 183 340 176 320 c 128,-1,66
 169 300 169 300 169 167 c 2,67,-1
 169 129 l 2,68,69
 169 79 169 79 179.5 55 c 128,-1,70
 190 31 190 31 226 28 c 0,71,72
 236 28 236 28 251.5 24.5 c 128,-1,73
 267 21 267 21 267 13 c 0,74,75
 267 0 267 0 248 0 c 1,0,-1
EndSplineSet
Substitution2: "'smcp' Lowercase to Small Capitals in Latin lookup 12 subtable" n.sc
AlternateSubs2: "'aalt' Access All Alternates in Latin lookup 1 subtable" n.sc
AlternateSubs2: "'aalt' Access All Alternates lookup 0 subtable" n.sc
EndChar

StartChar: o
Encoding: 111 111 82
Width: 547
GlyphClass: 2
Flags: HW
LayerCount: 2
Fore
SplineSet
99.5 47.5 m 128,-1,1
 39 113 39 113 39 204 c 128,-1,2
 39 295 39 295 101.5 363 c 128,-1,3
 164 431 164 431 266.5 431 c 128,-1,4
 369 431 369 431 438.5 372 c 128,-1,5
 508 313 508 313 508 208 c 128,-1,6
 508 103 508 103 436.5 42.5 c 128,-1,7
 365 -18 365 -18 262.5 -18 c 128,-1,0
 160 -18 160 -18 99.5 47.5 c 128,-1,1
158.5 363 m 128,-1,9
 118 322 118 322 118 228 c 128,-1,10
 118 134 118 134 173 73 c 128,-1,11
 228 12 228 12 291.5 12 c 128,-1,12
 355 12 355 12 394 55.5 c 128,-1,13
 433 99 433 99 433 183 c 128,-1,14
 433 267 433 267 385 335.5 c 128,-1,15
 337 404 337 404 251 404 c 0,16,8
 199 404 199 404 158.5 363 c 128,-1,9
EndSplineSet
Substitution2: "'smcp' Lowercase to Small Capitals in Latin lookup 12 subtable" o.sc
AlternateSubs2: "'aalt' Access All Alternates in Latin lookup 1 subtable" o.sc
AlternateSubs2: "'aalt' Access All Alternates lookup 0 subtable" o.sc
EndChar

StartChar: p
Encoding: 112 112 83
Width: 555
GlyphClass: 2
Flags: HW
LayerCount: 2
Fore
SplineSet
100 -62 m 1,0,-1
 103 214 l 1,1,-1
 103 236 l 2,2,3
 103 319 103 319 95.5 346.5 c 128,-1,4
 88 374 88 374 56 374 c 0,5,6
 39 374 39 374 35 376.5 c 128,-1,7
 31 379 31 379 31 384.5 c 128,-1,8
 31 390 31 390 39.5 393 c 128,-1,9
 48 396 48 396 74 404 c 128,-1,10
 100 412 100 412 134 428.5 c 128,-1,11
 168 445 168 445 171 445 c 0,12,13
 184 445 184 445 184 432 c 2,14,-1
 180 373 l 2,15,16
 180 365 180 365 182 365 c 128,-1,17
 184 365 184 365 191.5 372 c 128,-1,18
 199 379 199 379 211 389.5 c 128,-1,19
 223 400 223 400 239.5 410 c 0,20,21
 279.1 434 279.1 434 333 434 c 0,22,23
 422 434 422 434 469 375.5 c 128,-1,24
 516 317 516 317 516 228.5 c 128,-1,25
 516 140 516 140 457.5 65.5 c 128,-1,26
 399 -9 399 -9 301 -9 c 0,27,28
 255 -9 255 -9 226.5 0.5 c 128,-1,29
 198 10 198 10 187 19.5 c 128,-1,30
 176 29 176 29 172.5 29 c 128,-1,31
 169 29 169 29 169 21 c 2,32,-1
 169 -102 l 2,33,34
 169 -121 169 -121 186 -149 c 0,35,36
 197 -167 197 -167 219.5 -170 c 128,-1,37
 242 -173 242 -173 257.5 -174 c 128,-1,38
 273 -175 273 -175 273 -187.5 c 128,-1,39
 273 -200 273 -200 239 -200 c 0,40,41
 233 -200 233 -200 207 -198 c 128,-1,42
 181 -196 181 -196 135 -196 c 1,43,-1
 72 -199 l 1,44,45
 50 -199 50 -199 44 -197 c 128,-1,46
 38 -195 38 -195 38 -187.5 c 128,-1,47
 38 -180 38 -180 47.5 -176 c 128,-1,48
 57 -172 57 -172 69 -169 c 128,-1,49
 81 -166 81 -166 90.5 -144.5 c 128,-1,50
 100 -123 100 -123 100 -82 c 2,51,-1
 100 -62 l 1,0,-1
169 192 m 1,52,-1
 170 142 l 2,53,54
 170 107 170 107 185 82 c 128,-1,55
 200 57 200 57 223.5 44.5 c 0,56,57
 267.68 21 267.68 21 317 21 c 0,58,59
 382 21 382 21 416.5 68.5 c 128,-1,60
 451 116 451 116 451 190 c 128,-1,61
 451 264 451 264 408.5 324 c 128,-1,62
 366 384 366 384 294 384 c 0,63,64
 243 384 243 384 203 352 c 0,65,66
 182 336 182 336 175.5 308.5 c 128,-1,67
 169 281 169 281 169 192 c 1,52,-1
EndSplineSet
Substitution2: "'smcp' Lowercase to Small Capitals in Latin lookup 12 subtable" p.sc
AlternateSubs2: "'aalt' Access All Alternates in Latin lookup 1 subtable" p.sc
AlternateSubs2: "'aalt' Access All Alternates lookup 0 subtable" p.sc
EndChar

StartChar: q
Encoding: 113 113 84
Width: 559
GlyphClass: 2
Flags: HW
LayerCount: 2
Fore
SplineSet
399 -81 m 1,0,-1
 401 11 l 2,1,2
 401 57 401 57 395.5 57 c 128,-1,3
 390 57 390 57 378 44.5 c 128,-1,4
 366 32 366 32 350.5 16.5 c 128,-1,5
 335 1 335 1 303.5 -11.5 c 128,-1,6
 272 -24 272 -24 233 -24 c 0,7,8
 160 -24 160 -24 112 16 c 0,9,10
 39 77 39 77 39 176 c 0,11,12
 39 241 39 241 62 292 c 128,-1,13
 85 343 85 343 122 372.5 c 0,14,15
 196.627118644 432 196.627118644 432 287 432 c 0,16,17
 340.8 432 340.8 432 393.5 401 c 0,18,19
 402 396 402 396 408 391.5 c 2,20,-1
 418 384 l 1,21,-1
 421 381 l 1,22,23
 425 381 425 381 441 413 c 128,-1,24
 457 445 457 445 470 445 c 0,25,26
 479 445 479 445 479 432.5 c 128,-1,27
 479 420 479 420 476.5 401.5 c 0,28,29
 470 353.4 470 353.4 470 232 c 1,30,-1
 473 -80 l 2,31,32
 473 -142.772727273 473 -142.772727273 499 -160.5 c 0,33,34
 510 -168 510 -168 520.5 -171 c 128,-1,35
 531 -174 531 -174 538.5 -177 c 128,-1,36
 546 -180 546 -180 546 -187 c 0,37,38
 546 -199 546 -199 528 -199 c 2,39,-1
 492 -198 l 1,40,-1
 458 -198 l 2,41,42
 388 -198 388 -198 375.5 -200.5 c 128,-1,43
 363 -203 363 -203 360 -203 c 0,44,45
 336 -203 336 -203 336 -188 c 0,46,47
 336 -176.666666667 336 -176.666666667 358.5 -173.333333333 c 128,-1,48
 381 -170 381 -170 387.5 -165.5 c 128,-1,49
 394 -161 394 -161 396.5 -146 c 128,-1,50
 399 -131 399 -131 399 -81 c 1,0,-1
126 309 m 128,-1,52
 109 270 109 270 109 211.5 c 128,-1,53
 109 153 109 153 138.5 108 c 0,54,55
 190.288888889 29 190.288888889 29 270 29 c 0,56,57
 357.025641026 29 357.025641026 29 381.5 70.5 c 0,58,59
 399 100.173913043 399 100.173913043 399 139 c 2,60,-1
 399 302 l 2,61,62
 399 342 399 342 354.5 372.5 c 128,-1,63
 310 403 310 403 264 403 c 0,64,65
 218.263157895 403 218.263157895 403 169 367 c 0,66,51
 143 348 143 348 126 309 c 128,-1,52
EndSplineSet
Substitution2: "'smcp' Lowercase to Small Capitals in Latin lookup 12 subtable" q.sc
AlternateSubs2: "'aalt' Access All Alternates in Latin lookup 1 subtable" q.sc
AlternateSubs2: "'aalt' Access All Alternates lookup 0 subtable" q.sc
EndChar

StartChar: r
Encoding: 114 114 85
Width: 375
GlyphClass: 2
Flags: HW
LayerCount: 2
Fore
SplineSet
52 363 m 1,0,-1
 41 364 l 1,1,2
 22 364 22 364 22 380 c 0,3,4
 22 391 22 391 35.5 396.5 c 128,-1,5
 49 402 49 402 85.5 413.5 c 128,-1,6
 122 425 122 425 143 434.5 c 128,-1,7
 164 444 164 444 168 444 c 0,8,9
 181 444 181 444 181 424 c 2,10,-1
 180 397 l 1,11,12
 180 360.666666667 180 360.666666667 182.5 357.333333333 c 128,-1,13
 185 354 185 354 187.5 354 c 128,-1,14
 190 354 190 354 203 374 c 128,-1,15
 216 394 216 394 240 414.5 c 128,-1,16
 264 435 264 435 287.5 435 c 128,-1,17
 311 435 311 435 336 418.5 c 128,-1,18
 361 402 361 402 361 385.5 c 128,-1,19
 361 369 361 369 353 355 c 0,20,21
 339.285714286 331 339.285714286 331 327 331 c 0,22,23
 319 331 319 331 298.5 343 c 128,-1,24
 278 355 278 355 251 355 c 128,-1,25
 224 355 224 355 200.5 333 c 128,-1,26
 177 311 177 311 177 293 c 2,27,-1
 177 189 l 1,28,-1
 178 102.5 l 1,29,-1
 179 84 l 1,30,31
 179 63 179 63 193 48 c 128,-1,32
 207 33 207 33 219.5 31 c 128,-1,33
 232 29 232 29 241 28 c 128,-1,34
 250 27 250 27 255 26.5 c 128,-1,35
 260 26 260 26 266 24.5 c 0,36,37
 277 21.75 277 21.75 277 9.375 c 128,-1,38
 277 -3 277 -3 265 -3 c 2,39,-1
 180 2 l 1,40,-1
 76 -3 l 2,41,42
 58 -3 58 -3 56 1 c 128,-1,43
 54 5 54 5 54 9 c 0,44,45
 54 22 54 22 67 26 c 0,46,47
 93 32 93 32 98.5 51.5 c 128,-1,48
 104 71 104 71 104 135 c 2,49,-1
 103 295.5 l 1,50,-1
 102 326 l 2,51,52
 102 337 102 337 99 344 c 0,53,54
 90.8571428571 363 90.8571428571 363 52 363 c 1,0,-1
EndSplineSet
Substitution2: "'smcp' Lowercase to Small Capitals in Latin lookup 12 subtable" r.sc
AlternateSubs2: "'aalt' Access All Alternates in Latin lookup 1 subtable" r.sc
AlternateSubs2: "'aalt' Access All Alternates lookup 0 subtable" r.sc
EndChar

StartChar: s
Encoding: 115 115 86
Width: 393
GlyphClass: 2
Flags: HW
LayerCount: 2
Fore
SplineSet
328 401 m 2,0,-1
 332 341 l 1,1,2
 332 324 332 324 328 318 c 128,-1,3
 324 312 324 312 316.5 312 c 128,-1,4
 309 312 309 312 300.5 326.5 c 128,-1,5
 292 341 292 341 281.5 358 c 128,-1,6
 271 375 271 375 247.5 389.5 c 128,-1,7
 224 404 224 404 194 404 c 128,-1,8
 164 404 164 404 145 389.5 c 128,-1,9
 126 375 126 375 126 358 c 128,-1,10
 126 341 126 341 129 330.5 c 128,-1,11
 132 320 132 320 139.5 312 c 128,-1,12
 147 304 147 304 152.5 298.5 c 128,-1,13
 158 293 158 293 171 287 c 128,-1,14
 184 281 184 281 190.5 278.5 c 128,-1,15
 197 276 197 276 212.5 270.5 c 0,16,17
 302.967161845 238.398749023 302.967161845 238.398749023 328.983580923 207.699374511 c 128,-1,18
 355 177 355 177 355 120 c 128,-1,19
 355 63 355 63 302 15 c 1,20,21
 266 -16 266 -16 203 -16 c 0,22,23
 159.5 -16 159.5 -16 107 5 c 0,24,25
 92 11 92 11 89.5 11.5 c 128,-1,26
 87 12 87 12 81.5 14 c 128,-1,27
 76 16 76 16 73.5 16.5 c 128,-1,28
 71 17 71 17 67 19 c 128,-1,29
 63 21 63 21 61.5 22.5 c 128,-1,30
 60 24 60 24 58 27 c 0,31,32
 55 31.5 55 31.5 55 43 c 2,33,-1
 55 130 l 2,34,35
 55 141 55 141 59.5 148.5 c 128,-1,36
 64 156 64 156 72 156 c 128,-1,37
 80 156 80 156 83.5 151.5 c 128,-1,38
 87 147 87 147 90 133 c 128,-1,39
 93 119 93 119 96 113 c 0,40,41
 133 21 133 21 200 21 c 0,42,43
 231 21 231 21 259 37.5 c 128,-1,44
 287 54 287 54 287 89.5 c 128,-1,45
 287 125 287 125 264 147 c 128,-1,46
 241 169 241 169 208 181.5 c 128,-1,47
 175 194 175 194 142 207.5 c 128,-1,48
 109 221 109 221 86 247.5 c 128,-1,49
 63 274 63 274 63 314 c 0,50,51
 63 370 63 370 108 404 c 128,-1,52
 153 438 153 438 207 438 c 128,-1,53
 261 438 261 438 289 429.5 c 128,-1,54
 317 421 317 421 322.5 414 c 128,-1,55
 328 407 328 407 328 401 c 2,0,-1
EndSplineSet
Substitution2: "'hist' Historical Forms in Latin lookup 14 subtable" longs
Substitution2: "'smcp' Lowercase to Small Capitals in Latin lookup 12 subtable" s.sc
AlternateSubs2: "'aalt' Access All Alternates in Latin lookup 1 subtable" longs s.sc
AlternateSubs2: "'aalt' Access All Alternates lookup 0 subtable" longs s.sc
EndChar

StartChar: t
Encoding: 116 116 87
Width: 342
GlyphClass: 2
Flags: HW
LayerCount: 2
Fore
SplineSet
63 371 m 2,0,-1
 44 370 l 2,1,2
 27 370 27 370 27 384 c 0,3,4
 27 394.333333333 27 394.333333333 36.5 400.666666667 c 0,5,6
 74.4347826087 425.956521739 74.4347826087 425.956521739 111.5 476.5 c 0,7,8
 128 499 128 499 137.5 509.5 c 128,-1,9
 147 520 147 520 157 520 c 128,-1,10
 167 520 167 520 167 497 c 1,11,12
 163 440 l 2,13,14
 163 426 163 426 168.5 423 c 128,-1,15
 174 420 174 420 204 420 c 2,16,-1
 239 420 l 2,17,18
 284 420 284 420 294 425 c 0,19,20
 312 434 312 434 316 434 c 0,21,22
 326 434 326 434 326 423 c 0,23,24
 326 415 326 415 313 391.5 c 128,-1,25
 300 368 300 368 294 368 c 0,26,27
 249 368 249 368 231 370 c 128,-1,28
 213 372 213 372 207 372.5 c 128,-1,29
 201 373 201 373 196.5 373.5 c 128,-1,30
 192 374 192 374 190 374 c 2,31,-1
 188 375 l 1,32,33
 169 375 169 375 163.5 369 c 128,-1,34
 158 363 158 363 158 342 c 2,35,-1
 154 156 l 1,36,37
 154 91 154 91 170.5 65.5 c 128,-1,38
 187 40 187 40 240 40 c 0,39,40
 261 40 261 40 286.5 49.5 c 128,-1,41
 312 59 312 59 314 59 c 0,42,43
 324 59 324 59 324 46 c 128,-1,44
 324 33 324 33 289.5 11.5 c 128,-1,45
 255 -10 255 -10 215 -10 c 0,46,47
 80 -10 80 -10 80 107 c 2,48,-1
 80 122 l 1,49,-1
 84 355 l 2,50,51
 84 365 84 365 80 368 c 128,-1,52
 76 371 76 371 63 371 c 2,0,-1
EndSplineSet
Substitution2: "'smcp' Lowercase to Small Capitals in Latin lookup 12 subtable" t.sc
AlternateSubs2: "'aalt' Access All Alternates in Latin lookup 1 subtable" t.sc
AlternateSubs2: "'aalt' Access All Alternates lookup 0 subtable" t.sc
EndChar

StartChar: u
Encoding: 117 117 88
Width: 576
GlyphClass: 2
Flags: HW
LayerCount: 2
Fore
SplineSet
94 156 m 2,0,-1
 95 336 l 2,1,2
 95 356 95 356 84.5 368 c 128,-1,3
 74 380 74 380 65 380 c 2,4,-1
 47 380 l 2,5,6
 29 380 29 380 29 394 c 128,-1,7
 29 408.2 29 408.2 48.5 412.1 c 128,-1,8
 68 416 68 416 96 416 c 1,9,-1
 153 421 l 1,10,11
 170 421 170 421 173 414 c 128,-1,12
 176 407 176 407 176 379 c 128,-1,13
 176 351 176 351 173.5 302.5 c 128,-1,14
 171 254 171 254 171 195 c 0,15,16
 171 107 171 107 205 70.5 c 128,-1,17
 239 34 239 34 282 34 c 0,18,19
 346 34 346 34 375 61 c 128,-1,20
 404 88 404 88 404 156 c 2,21,-1
 402 294 l 2,22,23
 402 344 402 344 394 361.5 c 128,-1,24
 386 379 386 379 360 381.5 c 128,-1,25
 334 384 334 384 334 395 c 0,26,27
 334 418 334 418 422 418 c 1,28,-1
 458 423 l 1,29,30
 473 423 473 423 477.5 418 c 128,-1,31
 482 413 482 413 482 403.5 c 128,-1,32
 482 394 482 394 481.5 379.5 c 128,-1,33
 481 365 481 365 480.5 341 c 128,-1,34
 480 317 480 317 479 287 c 0,35,36
 477 227 477 227 477 153 c 128,-1,37
 477 79 477 79 483 57 c 128,-1,38
 489 35 489 35 505 35 c 2,39,-1
 531 36 l 2,40,41
 555 36 555 36 555 24 c 128,-1,42
 555 12 555 12 548 9 c 128,-1,43
 541 6 541 6 521 6 c 128,-1,44
 501 6 501 6 460.5 0.5 c 128,-1,45
 420 -5 420 -5 417 -5 c 0,46,47
 410 -5 410 -5 405.5 20.5 c 128,-1,48
 401 46 401 46 399.5 46 c 128,-1,49
 398 46 398 46 380 30 c 128,-1,50
 362 14 362 14 328.5 -2 c 128,-1,51
 295 -18 295 -18 255 -18 c 0,52,53
 94 -18 94 -18 94 156 c 2,0,-1
EndSplineSet
Substitution2: "'smcp' Lowercase to Small Capitals in Latin lookup 12 subtable" u.sc
AlternateSubs2: "'aalt' Access All Alternates in Latin lookup 1 subtable" u.sc
AlternateSubs2: "'aalt' Access All Alternates lookup 0 subtable" u.sc
EndChar

StartChar: v
Encoding: 118 118 89
Width: 523
GlyphClass: 2
Flags: HW
LayerCount: 2
Fore
SplineSet
430 424 m 1,0,-1
 476 425 l 2,1,2
 493 425 493 425 498.5 422 c 128,-1,3
 504 419 504 419 504 412 c 128,-1,4
 504 405 504 405 499 402 c 0,5,6
 475.363636364 387.818181818 475.363636364 387.818181818 465 374 c 0,7,8
 440 340 440 340 393 240 c 128,-1,9
 346 140 346 140 307 63 c 128,-1,10
 268 -14 268 -14 253 -14 c 0,11,12
 243 -14 243 -14 237 -3.5 c 128,-1,13
 231 7 231 7 197.5 85 c 128,-1,14
 164 163 164 163 129 241 c 128,-1,15
 94 319 94 319 73 352.5 c 128,-1,16
 52 386 52 386 41.5 393 c 128,-1,17
 31 400 31 400 25.5 404.5 c 128,-1,18
 20 409 20 409 20 416 c 0,19,20
 20 427 20 427 39 427 c 1,21,-1
 110 423 l 1,22,-1
 168 422 l 1,23,-1
 207 425 l 1,24,25
 225 425 225 425 225 414 c 0,26,27
 225 397 225 397 201 397 c 0,28,29
 159 397 159 397 159 369 c 0,30,31
 159 352.571428571 159 352.571428571 175 318.285714286 c 128,-1,32
 191 284 191 284 204 256.5 c 128,-1,33
 217 229 217 229 225.5 210.5 c 128,-1,34
 234 192 234 192 248 159 c 0,35,36
 275.151515152 95 275.151515152 95 282 95 c 0,37,38
 292 95 292 95 343 216 c 128,-1,39
 394 337 394 337 394 358.5 c 128,-1,40
 394 380 394 380 384.5 388.5 c 128,-1,41
 375 397 375 397 363 395.5 c 0,42,43
 332 391.625 332 391.625 332 412 c 0,44,45
 332 425 332 425 363 425 c 2,46,-1
 430 424 l 1,0,-1
EndSplineSet
Substitution2: "'smcp' Lowercase to Small Capitals in Latin lookup 12 subtable" v.sc
AlternateSubs2: "'aalt' Access All Alternates in Latin lookup 1 subtable" v.sc
AlternateSubs2: "'aalt' Access All Alternates lookup 0 subtable" v.sc
EndChar

StartChar: w
Encoding: 119 119 90
Width: 748
GlyphClass: 2
Flags: HW
LayerCount: 2
Fore
SplineSet
410 422 m 1,0,-1
 441 423 l 2,1,2
 463 423 463 423 463 409 c 0,3,4
 463 402.4 463 402.4 460 401.2 c 0,5,6
 454.5 399 454.5 399 448 399 c 0,7,8
 418 397 418 397 418 371 c 0,9,10
 418 334 418 334 477 204 c 0,11,12
 485 188 485 188 496 160 c 0,13,14
 518.392857143 103 518.392857143 103 524 103 c 0,15,16
 534 103 534 103 576.5 212.5 c 128,-1,17
 619 322 619 322 619 348 c 128,-1,18
 619 374 619 374 610.5 383.5 c 128,-1,19
 602 393 602 393 591.5 394.5 c 0,20,21
 564 398.428571429 564 398.428571429 564 414 c 0,22,23
 564 422 564 422 585 422 c 2,24,-1
 700 422 l 2,25,26
 719 422 719 422 724 420 c 128,-1,27
 729 418 729 418 729 409 c 128,-1,28
 729 400 729 400 712.5 393.5 c 128,-1,29
 696 387 696 387 686 373 c 128,-1,30
 676 359 676 359 668 342.5 c 128,-1,31
 660 326 660 326 650 301.5 c 0,32,33
 619.615384615 227.057692308 619.615384615 227.057692308 574.807692308 132.028846154 c 128,-1,34
 530 37 530 37 525.5 28 c 128,-1,35
 521 19 521 19 514.5 7 c 0,36,37
 503.666666667 -13 503.666666667 -13 495 -13 c 0,38,39
 478 -13 478 -13 431 116.5 c 128,-1,40
 384 246 384 246 376 246 c 0,41,42
 373 246 373 246 312 118 c 128,-1,43
 251 -10 251 -10 232 -10 c 0,44,45
 224 -10 224 -10 217 4 c 128,-1,46
 210 18 210 18 178.5 100 c 128,-1,47
 147 182 147 182 127 231.5 c 128,-1,48
 107 281 107 281 98.5 305.5 c 128,-1,49
 90 330 90 330 85.5 339.5 c 0,50,51
 71.8341013825 368.350230415 71.8341013825 368.350230415 39 396 c 0,52,53
 35 400 35 400 30 402.5 c 128,-1,54
 25 405 25 405 23 406.5 c 0,55,56
 20 408.75 20 408.75 20 416 c 0,57,58
 20 427 20 427 39 427 c 1,59,-1
 110 423 l 1,60,-1
 159 424 l 2,61,62
 189 424 189 424 197.5 422.5 c 128,-1,63
 206 421 206 421 206 413 c 128,-1,64
 206 405 206 405 195 402.5 c 0,65,66
 162 395 162 395 162 362.5 c 128,-1,67
 162 330 162 330 218 204 c 0,68,69
 225 190 225 190 237 160.5 c 128,-1,70
 249 131 249 131 256 117.5 c 128,-1,71
 263 104 263 104 267 104 c 128,-1,72
 271 104 271 104 292.5 144.5 c 128,-1,73
 314 185 314 185 321.5 200 c 128,-1,74
 329 215 329 215 333 222.5 c 128,-1,75
 337 230 337 230 342 239.5 c 128,-1,76
 347 249 347 249 349 253.5 c 128,-1,77
 351 258 351 258 353.5 264 c 128,-1,78
 356 270 356 270 357 272.5 c 128,-1,79
 358 275 358 275 359 279.5 c 128,-1,80
 360 284 360 284 360 287 c 2,81,-1
 360 294 l 2,82,83
 360 301 360 301 350.5 324 c 128,-1,84
 341 347 341 347 330.5 362.5 c 128,-1,85
 320 378 320 378 308 388 c 128,-1,86
 296 398 296 398 289.5 400.5 c 0,87,88
 274 406.461538462 274 406.461538462 274 415.230769231 c 128,-1,89
 274 424 274 424 289 424 c 2,90,-1
 410 422 l 1,0,-1
EndSplineSet
Substitution2: "'smcp' Lowercase to Small Capitals in Latin lookup 12 subtable" w.sc
AlternateSubs2: "'aalt' Access All Alternates in Latin lookup 1 subtable" w.sc
AlternateSubs2: "'aalt' Access All Alternates lookup 0 subtable" w.sc
EndChar

StartChar: x
Encoding: 120 120 91
Width: 548
GlyphClass: 2
Flags: HW
LayerCount: 2
Fore
SplineSet
126 2 m 1,0,-1
 73 -2 l 1,1,2
 29 -2 29 -2 29 14 c 0,3,4
 29 19 29 19 32 21 c 128,-1,5
 35 23 35 23 48 27.5 c 128,-1,6
 61 32 61 32 76.5 42 c 128,-1,7
 92 52 92 52 110.5 67 c 128,-1,8
 129 82 129 82 148 101 c 128,-1,9
 167 120 167 120 179 132.5 c 128,-1,10
 191 145 191 145 209.5 166 c 128,-1,11
 228 187 228 187 232 192 c 128,-1,12
 236 197 236 197 236 201.5 c 128,-1,13
 236 206 236 206 224.5 220.5 c 128,-1,14
 213 235 213 235 190 262.5 c 128,-1,15
 167 290 167 290 147.5 315.5 c 128,-1,16
 128 341 128 341 105 361.5 c 128,-1,17
 82 382 82 382 68.5 384.5 c 128,-1,18
 55 387 55 387 43 395.5 c 128,-1,19
 31 404 31 404 31 413 c 0,20,21
 31 425 31 425 45 425 c 2,22,-1
 123 420 l 1,23,-1
 204 424 l 2,24,25
 220 424 220 424 225 421 c 128,-1,26
 230 418 230 418 230 411.5 c 128,-1,27
 230 405 230 405 213.5 399 c 128,-1,28
 197 393 197 393 197 382 c 0,29,30
 197 373.333333333 197 373.333333333 216.5 347.166666667 c 128,-1,31
 236 321 236 321 253 296.5 c 0,32,33
 283.183673469 253 283.183673469 253 289 253 c 0,34,35
 292 253 292 253 299 261 c 0,36,37
 369 350 369 350 372 357 c 128,-1,38
 375 364 375 364 375 373 c 0,39,40
 375 388 375 388 352 397 c 128,-1,41
 329 406 329 406 329 412 c 0,42,43
 329 424 329 424 355 424 c 2,44,-1
 418 423 l 1,45,-1
 487 425 l 2,46,47
 494 425 494 425 500 421 c 128,-1,48
 506 417 506 417 506 411.5 c 128,-1,49
 506 406 506 406 500.5 402.5 c 128,-1,50
 495 399 495 399 485.5 396.5 c 0,51,52
 458.357142857 389.357142857 458.357142857 389.357142857 421 352 c 0,53,54
 306 237 306 237 306 226 c 0,55,56
 306 223 306 223 328 198.5 c 128,-1,57
 350 174 350 174 374 144.5 c 128,-1,58
 398 115 398 115 407.5 103.5 c 128,-1,59
 417 92 417 92 421 87.5 c 128,-1,60
 425 83 425 83 434.5 72.5 c 128,-1,61
 444 62 444 62 451 56.5 c 128,-1,62
 458 51 458 51 467.5 43.5 c 0,63,64
 485.172043011 29.5483870968 485.172043011 29.5483870968 498.586021505 25.7741935484 c 128,-1,65
 512 22 512 22 514 21 c 0,66,67
 519 18.5 519 18.5 519 11.25 c 128,-1,68
 519 4 519 4 513 1.5 c 128,-1,69
 507 -1 507 -1 485 -1 c 2,70,-1
 426 1 l 1,71,-1
 367 -1 l 1,72,-1
 356 -1 l 2,73,74
 322 -1 322 -1 322 9 c 0,75,76
 322 14 322 14 339.5 20 c 128,-1,77
 357 26 357 26 357 38.5 c 128,-1,78
 357 51 357 51 343 71 c 128,-1,79
 329 91 329 91 305 120 c 128,-1,80
 281 149 281 149 272 162 c 128,-1,81
 263 175 263 175 261 175 c 128,-1,82
 259 175 259 175 249 165 c 1,83,84
 237 150 237 150 220 130 c 2,85,-1
 194.5 100 l 2,86,87
 172 73.5294117647 172 73.5294117647 172 56.2647058824 c 128,-1,88
 172 39 172 39 179.5 32 c 128,-1,89
 187 25 187 25 195.5 24.5 c 0,90,91
 219 23.1176470588 219 23.1176470588 219 8 c 0,92,93
 219 4 219 4 217.5 2.5 c 0,94,95
 214 -1 214 -1 178 -1 c 1,96,-1
 126 2 l 1,0,-1
EndSplineSet
Substitution2: "'smcp' Lowercase to Small Capitals in Latin lookup 12 subtable" x.sc
AlternateSubs2: "'aalt' Access All Alternates in Latin lookup 1 subtable" x.sc
AlternateSubs2: "'aalt' Access All Alternates lookup 0 subtable" x.sc
EndChar

StartChar: y
Encoding: 121 121 92
Width: 498
GlyphClass: 2
Flags: HW
LayerCount: 2
Fore
SplineSet
203.5 -190 m 1,0,-1
 161 -191 l 2,1,2
 142 -191 142 -191 142 -178 c 0,3,4
 142 -175 142 -175 164.5 -147 c 128,-1,5
 187 -119 187 -119 210 -78 c 128,-1,6
 233 -37 233 -37 233 -5.5 c 128,-1,7
 233 26 233 26 176 150 c 128,-1,8
 119 274 119 274 77 353 c 0,9,10
 66 373 66 373 54.5 384 c 128,-1,11
 43 395 43 395 36 396 c 0,12,13
 20 398.285714286 20 398.285714286 20 411.142857143 c 128,-1,14
 20 424 20 424 40 424 c 2,15,-1
 147 422 l 1,16,-1
 204 424 l 2,17,18
 211 424 211 424 216.5 420.5 c 128,-1,19
 222 417 222 417 222 413 c 0,20,21
 222 395 222 395 198 395 c 2,22,-1
 183 395 l 2,23,24
 167 395 167 395 167 370 c 0,25,26
 167 340.142857143 167 340.142857143 220.5 225.5 c 0,27,28
 228 209.428571429 228 209.428571429 244.5 171.714285714 c 0,29,30
 274.125 104 274.125 104 280 104 c 128,-1,31
 286 104 286 104 326.5 219 c 128,-1,32
 367 334 367 334 367 356 c 128,-1,33
 367 378 367 378 357.5 387 c 128,-1,34
 348 396 348 396 336 395.5 c 0,35,36
 305 394.208333333 305 394.208333333 305 413 c 0,37,38
 305 425 305 425 324 425 c 2,39,-1
 396 424 l 1,40,-1
 458 425 l 2,41,42
 479 425 479 425 479 412 c 0,43,44
 479 402 479 402 461.5 397.5 c 128,-1,45
 444 393 444 393 438 385 c 0,46,47
 422 362 422 362 384 259 c 2,48,-1
 295 22 l 2,49,50
 284 -7 284 -7 273 -37.5 c 128,-1,51
 262 -68 262 -68 255 -87 c 128,-1,52
 248 -106 248 -106 241 -125 c 128,-1,53
 234 -144 234 -144 230 -154.5 c 128,-1,54
 226 -165 226 -165 221.5 -174 c 0,55,56
 213.5 -190 213.5 -190 207 -190 c 2,57,-1
 203.5 -190 l 1,0,-1
EndSplineSet
Substitution2: "'smcp' Lowercase to Small Capitals in Latin lookup 12 subtable" y.sc
AlternateSubs2: "'aalt' Access All Alternates in Latin lookup 1 subtable" y.sc
AlternateSubs2: "'aalt' Access All Alternates lookup 0 subtable" y.sc
EndChar

StartChar: z
Encoding: 122 122 93
Width: 378
GlyphClass: 2
Flags: HW
LayerCount: 2
Fore
SplineSet
180 2 m 1,0,-1
 107 1 l 1,1,-1
 90 1 l 2,2,3
 73 1 73 1 66 0 c 1,4,-1
 59 0 l 2,5,6
 40 0 40 0 40 15 c 128,-1,7
 40 30 40 30 47.5 40 c 128,-1,8
 55 50 55 50 61.5 59.5 c 128,-1,9
 68 69 68 69 74 77 c 0,10,11
 257 341 257 341 257 356 c 0,12,13
 257 361 257 361 234 361 c 1,14,-1
 112 354 l 2,15,16
 82.6857142857 352.371428571 82.6857142857 352.371428571 62 311 c 0,17,18
 55 297 55 297 50 297 c 0,19,20
 42 297 42 297 42 311.5 c 128,-1,21
 42 326 42 326 44.5 345 c 128,-1,22
 47 364 47 364 51 384.5 c 128,-1,23
 55 405 55 405 55 408 c 0,24,25
 57 426 57 426 75 426 c 2,26,27
 182 423 l 1,28,-1
 329 426 l 2,29,30
 341 426 341 426 341 416 c 0,31,32
 341 405.0625 341 405.0625 327.5 389.03125 c 128,-1,33
 314 373 314 373 292 339 c 128,-1,34
 270 305 270 305 217.5 230.5 c 128,-1,35
 165 156 165 156 141.5 120.5 c 128,-1,36
 118 85 118 85 118 73 c 0,37,38
 118 64 118 64 167 64 c 2,39,-1
 216 65 l 1,40,41
 269.133333333 65 269.133333333 65 287.5 79.5 c 0,42,43
 302.504672897 91.3457943925 302.504672897 91.3457943925 308.252336449 106.672897196 c 128,-1,44
 314 122 314 122 316 126 c 0,45,46
 323 140 323 140 333 140 c 0,47,48
 349 140 349 140 349 126 c 0,49,50
 349 120 349 120 335.5 89 c 128,-1,51
 322 58 322 58 318.5 45 c 128,-1,52
 315 32 315 32 312.5 23.5 c 0,53,54
 306.176470588 2 306.176470588 2 294 2 c 2,55,-1
 180 2 l 1,0,-1
EndSplineSet
Substitution2: "'smcp' Lowercase to Small Capitals in Latin lookup 12 subtable" z.sc
AlternateSubs2: "'aalt' Access All Alternates in Latin lookup 1 subtable" z.sc
AlternateSubs2: "'aalt' Access All Alternates lookup 0 subtable" z.sc
EndChar

StartChar: braceleft
Encoding: 123 123 94
Width: 273
GlyphClass: 2
Flags: HW
LayerCount: 2
Fore
SplineSet
74 -174 m 2,0,-1
 77 202 l 2,1,2
 77 224 77 224 59.5 238.5 c 128,-1,3
 42 253 42 253 42 268 c 128,-1,4
 42 283 42 283 60.5 293.5 c 128,-1,5
 79 304 79 304 79 321 c 2,6,-1
 75 734 l 2,7,8
 75 752 75 752 93 752 c 1,9,-1
 155 744 l 1,10,11
 175 744 175 744 195 747 c 128,-1,12
 215 750 215 750 227.5 750 c 128,-1,13
 240 750 240 750 240 740 c 0,14,15
 240 716 240 716 203.5 700.5 c 128,-1,16
 167 685 167 685 140 685 c 0,17,18
 133 685 133 685 133 676 c 2,19,-1
 130 255 l 1,20,-1
 133 -105 l 2,21,22
 133 -109.923076923 133 -109.923076923 163.5 -116.961538462 c 128,-1,23
 194 -124 194 -124 207 -131 c 0,24,25
 241 -150 241 -150 241 -172 c 0,26,27
 241 -181 241 -181 233 -181 c 0,28,29
 232 -181 232 -181 222 -178.5 c 0,30,31
 196 -172 196 -172 163 -172 c 128,-1,32
 130 -172 130 -172 111 -179 c 128,-1,33
 92 -186 92 -186 86 -186 c 0,34,35
 74 -186 74 -186 74 -174 c 2,0,-1
EndSplineSet
Substitution2: "'case' Case-Sensitive Forms in Latin lookup 15 subtable" braceleft.uppercase
AlternateSubs2: "'aalt' Access All Alternates in Latin lookup 1 subtable" braceleft.uppercase
AlternateSubs2: "'aalt' Access All Alternates lookup 0 subtable" braceleft.uppercase
EndChar

StartChar: bar
Encoding: 124 124 95
Width: 209
GlyphClass: 2
Flags: HW
LayerCount: 2
Fore
SplineSet
127 -137 m 2,0,-1
 128 -163 l 1,1,-1
 128 -171 l 2,2,3
 128 -209 128 -209 111 -209 c 0,4,5
 89 -209 89 -209 83.5 -199 c 128,-1,6
 78 -189 78 -189 78 -148 c 2,7,-1
 78 -87 l 1,8,-1
 84 570 l 1,9,-1
 84 652 l 1,10,-1
 83 738 l 2,11,12
 83 751 83 751 88.5 756.5 c 128,-1,13
 94 762 94 762 107.5 762 c 128,-1,14
 121 762 121 762 125.5 756.5 c 128,-1,15
 130 751 130 751 130 737 c 2,16,-1
 129 714 l 1,17,-1
 131 559 l 1,18,-1
 126 10 l 2,19,20
 126 -87 126 -87 127 -137 c 2,0,-1
EndSplineSet
EndChar

StartChar: braceright
Encoding: 125 125 96
Width: 273
GlyphClass: 2
Flags: HW
LayerCount: 2
Fore
SplineSet
196 202 m 2,0,-1
 199 -174 l 2,1,2
 199 -186 199 -186 187 -186 c 0,3,4
 180 -186 180 -186 161 -179 c 128,-1,5
 142 -172 142 -172 118 -172 c 128,-1,6
 94 -172 94 -172 77.5 -174 c 128,-1,7
 61 -176 61 -176 51 -178.5 c 128,-1,8
 41 -181 41 -181 40 -181 c 0,9,10
 32 -181 32 -181 32 -172 c 0,11,12
 32 -150 32 -150 66 -131 c 0,13,14
 79 -124 79 -124 98.5 -119.5 c 0,15,16
 140 -109.923076923 140 -109.923076923 140 -105 c 2,17,-1
 143 255 l 1,18,-1
 140 676 l 2,19,20
 140 685 140 685 133 685 c 0,21,22
 106 685 106 685 69.5 700.5 c 128,-1,23
 33 716 33 716 33 740 c 0,24,25
 33 750 33 750 45.5 750 c 128,-1,26
 58 750 58 750 78 747 c 128,-1,27
 98 744 98 744 118 744 c 1,28,-1
 180 752 l 1,29,30
 198 752 198 752 198 734 c 2,31,-1
 194 321 l 2,32,33
 194 304 194 304 212.5 293.5 c 128,-1,34
 231 283 231 283 231 268 c 128,-1,35
 231 253 231 253 213.5 238.5 c 128,-1,36
 196 224 196 224 196 202 c 2,0,-1
EndSplineSet
Substitution2: "'case' Case-Sensitive Forms in Latin lookup 15 subtable" braceright.uppercase
AlternateSubs2: "'aalt' Access All Alternates in Latin lookup 1 subtable" braceright.uppercase
AlternateSubs2: "'aalt' Access All Alternates lookup 0 subtable" braceright.uppercase
EndChar

StartChar: asciitilde
Encoding: 126 126 97
Width: 380
GlyphClass: 2
Flags: HW
LayerCount: 2
Fore
SplineSet
29 172 m 0,0,1
 29 176 29 176 43 197.5 c 128,-1,2
 57 219 57 219 83 242 c 128,-1,3
 109 265 109 265 133 265 c 0,4,5
 157 265 157 265 192.5 242.5 c 128,-1,6
 228 220 228 220 250 220 c 0,7,8
 272 220 272 220 289.5 232 c 128,-1,9
 307 244 307 244 317 256.5 c 128,-1,10
 327 269 327 269 331 269 c 0,11,12
 351 269 351 269 351 254 c 0,13,14
 351 249 351 249 336 228.5 c 128,-1,15
 321 208 321 208 292 186 c 128,-1,16
 263 164 263 164 234.5 164 c 0,17,18
 206 164 206 164 173.5 187 c 128,-1,19
 141 210 141 210 121 210 c 128,-1,20
 101 210 101 210 85 196.5 c 128,-1,21
 69 183 69 183 60.5 169.5 c 128,-1,22
 52 156 52 156 49 156 c 0,23,24
 29 156 29 156 29 172 c 0,0,1
EndSplineSet
EndChar

StartChar: exclamdown
Encoding: 161 161 99
Width: 276
GlyphClass: 2
Flags: HW
LayerCount: 2
Fore
SplineSet
62.5 604.5 m 128,-1,1
 59 609 59 609 59 616 c 128,-1,2
 59 623 59 623 65.5 629.5 c 128,-1,3
 72 636 72 636 83 643.5 c 128,-1,4
 94 651 94 651 97.5 654.5 c 128,-1,5
 101 658 101 658 108 668 c 128,-1,6
 115 678 115 678 121.5 683.5 c 128,-1,7
 128 689 128 689 134 689 c 128,-1,8
 140 689 140 689 153.5 678 c 128,-1,9
 167 667 167 667 172.5 659.5 c 128,-1,10
 178 652 178 652 187 644 c 0,11,12
 208 625.333333333 208 625.333333333 208 613 c 0,13,14
 208 606.5 208 606.5 200.5 600.25 c 128,-1,15
 193 594 193 594 188 589.5 c 128,-1,16
 183 585 183 585 179 581.5 c 128,-1,17
 175 578 175 578 167 567.5 c 0,18,19
 149.095238095 544 149.095238095 544 135 544 c 0,20,21
 129 544 129 544 114.5 559 c 128,-1,22
 100 574 100 574 89 583 c 128,-1,23
 78 592 78 592 72 596 c 128,-1,0
 66 600 66 600 62.5 604.5 c 128,-1,1
83 20 m 0,24,25
 83 24.6666666667 83 24.6666666667 85 37.3333333333 c 128,-1,26
 87 50 87 50 89.5 71.5 c 128,-1,27
 92 93 92 93 100.5 220.5 c 128,-1,28
 109 348 109 348 124 467 c 0,29,30
 126 478 126 478 137.5 478 c 128,-1,31
 149 478 149 478 149 468 c 0,32,33
 164.413173653 291.604790419 164.413173653 291.604790419 165.706586826 252.80239521 c 0,34,35
 167.857142857 188.285714286 167.857142857 188.285714286 173.428571429 109.142857143 c 128,-1,36
 179 30 179 30 179 18.5 c 128,-1,37
 179 7 179 7 165.5 -3 c 128,-1,38
 152 -13 152 -13 129 -13 c 0,39,40
 83 -13 83 -13 83 20 c 0,24,25
EndSplineSet
Position2: "'cpsp' Capital Spacing in Latin lookup 0 subtable" dx=10 dy=0 dh=20 dv=0
EndChar

StartChar: cent
Encoding: 162 162 100
Width: 452
GlyphClass: 2
Flags: HW
LayerCount: 2
Fore
SplineSet
270 356 m 2,0,-1
 268 45 l 2,1,2
 268 38 268 38 271 34.5 c 128,-1,3
 274 31 274 31 297 31 c 128,-1,4
 320 31 320 31 350 44 c 128,-1,5
 380 57 380 57 396.5 70 c 128,-1,6
 413 83 413 83 417 83 c 0,7,8
 428 83 428 83 428 73 c 0,9,10
 428 66 428 66 413.5 48 c 128,-1,11
 399 30 399 30 362.5 8.5 c 128,-1,12
 326 -13 326 -13 280 -19 c 0,13,14
 269.181818182 -20.5454545455 269.181818182 -20.5454545455 268.090909091 -23.2727272727 c 128,-1,15
 267 -26 267 -26 267 -33 c 2,16,-1
 267 -91 l 2,17,18
 267 -102 267 -102 248 -102 c 128,-1,19
 229 -102 229 -102 229 -93 c 2,20,-1
 229 -29 l 2,21,22
 229 -21.5 229 -21.5 226.5 -20.25 c 128,-1,23
 224 -19 224 -19 219.5 -19 c 128,-1,24
 215 -19 215 -19 209 -18.5 c 0,25,26
 196.485714286 -17.4571428571 196.485714286 -17.4571428571 169 -9 c 0,27,28
 108 12 108 12 73.5 63.5 c 128,-1,29
 39 115 39 115 39 191 c 128,-1,30
 39 267 39 267 80.5 329.5 c 0,31,32
 126.116076294 398.198910082 126.116076294 398.198910082 210 421.5 c 0,33,34
 219 424 219 424 222 424 c 128,-1,35
 225 424 225 424 228 426.5 c 128,-1,36
 231 429 231 429 231 432.5 c 2,37,-1
 231 481 l 2,38,39
 231 491 231 491 251 491 c 128,-1,40
 271 491 271 491 271 482 c 2,41,-1
 271 436 l 2,42,43
 271 430.25 271 430.25 273.5 429.625 c 128,-1,44
 276 429 276 429 278.5 428.5 c 128,-1,45
 281 428 281 428 286.5 428 c 128,-1,46
 292 428 292 428 298 427.5 c 0,47,48
 379.085714286 420.742857143 379.085714286 420.742857143 388 394 c 1,49,50
 390 383 390 383 390 344 c 128,-1,51
 390 305 390 305 379 305 c 0,52,53
 370 305 370 305 362.5 317.5 c 0,54,55
 347.285714286 342.857142857 347.285714286 342.857142857 295 369 c 0,56,57
 281 376 281 376 275.5 376 c 128,-1,58
 270 376 270 376 270 356 c 2,0,-1
122.5 294 m 128,-1,60
 114 263 114 263 114 226.5 c 128,-1,61
 114 190 114 190 124.5 159 c 128,-1,62
 135 128 135 128 149.5 108 c 128,-1,63
 164 88 164 88 180 73 c 0,64,65
 209.866666667 45 209.866666667 45 224 45 c 0,66,67
 229 45 229 45 229 60 c 0,68,69
 229 187 229 187 230 376 c 0,70,71
 230 386 230 386 227.5 388 c 128,-1,72
 225 390 225 390 215.5 390 c 128,-1,73
 206 390 206 390 195 386.5 c 128,-1,74
 184 383 184 383 169.5 371.5 c 128,-1,75
 155 360 155 360 143 342.5 c 128,-1,59
 131 325 131 325 122.5 294 c 128,-1,60
EndSplineSet
EndChar

StartChar: sterling
Encoding: 163 163 101
Width: 557
GlyphClass: 2
Flags: HW
LayerCount: 2
Fore
SplineSet
115 333 m 1,0,-1
 35 332 l 2,1,2
 21 332 21 332 21 353.5 c 128,-1,3
 21 375 21 375 34 375 c 2,4,-1
 92 375 l 2,5,6
 109 375 109 375 109 376.5 c 128,-1,7
 109 378 109 378 101.5 399.5 c 0,8,9
 78 466.866666667 78 466.866666667 78 522 c 0,10,11
 78 620 78 620 138 669.5 c 128,-1,12
 198 719 198 719 272 719 c 128,-1,13
 346 719 346 719 396.5 689 c 128,-1,14
 447 659 447 659 447 615 c 0,15,16
 447 599 447 599 432.5 582 c 128,-1,17
 418 565 418 565 408 565 c 128,-1,18
 398 565 398 565 392.5 574.5 c 128,-1,19
 387 584 387 584 380 603.5 c 128,-1,20
 373 623 373 623 362 640 c 128,-1,21
 351 657 351 657 322.5 670 c 128,-1,22
 294 683 294 683 254 683 c 128,-1,23
 214 683 214 683 180.5 654.5 c 128,-1,24
 147 626 147 626 147 565.5 c 128,-1,25
 147 505 147 505 195 396 c 0,26,27
 200 383 200 383 203.5 379.5 c 128,-1,28
 207 376 207 376 214 376 c 2,29,-1
 369 376 l 2,30,31
 384 376 384 376 387 372.5 c 128,-1,32
 390 369 390 369 390 357 c 128,-1,33
 390 345 390 345 389 341.5 c 0,34,35
 386.571428571 333 386.571428571 333 367 333 c 2,36,-1
 245 333 l 2,37,38
 223 333 223 333 223 330.5 c 128,-1,39
 223 328 223 328 229.5 308.5 c 0,40,41
 250 247 250 247 250 217.5 c 128,-1,42
 250 188 250 188 248 172.5 c 128,-1,43
 246 157 246 157 242.5 144.5 c 128,-1,44
 239 132 239 132 235 120.5 c 128,-1,45
 231 109 231 109 226.5 99.5 c 128,-1,46
 222 90 222 90 219 84 c 128,-1,47
 216 78 216 78 213 72 c 2,48,-1
 210 67 l 1,49,50
 272 50 272 50 334 50 c 128,-1,51
 396 50 396 50 431.5 66 c 128,-1,52
 467 82 467 82 482 100.5 c 128,-1,53
 497 119 497 119 508.5 135 c 128,-1,54
 520 151 520 151 524 151 c 0,55,56
 537 151 537 151 537 137.5 c 128,-1,57
 537 124 537 124 532.5 107 c 128,-1,58
 528 90 528 90 516 68 c 128,-1,59
 504 46 504 46 487.5 27 c 128,-1,60
 471 8 471 8 443 -4.5 c 128,-1,61
 415 -17 415 -17 381 -17 c 0,62,63
 299 -17 299 -17 182 27 c 0,64,65
 181 27 181 27 150 8 c 128,-1,66
 119 -11 119 -11 85.5 -11 c 128,-1,67
 52 -11 52 -11 36 5 c 128,-1,68
 20 21 20 21 20 43 c 128,-1,69
 20 65 20 65 36.5 82.5 c 128,-1,70
 53 100 53 100 79 100 c 128,-1,71
 105 100 105 100 123.5 95 c 128,-1,72
 142 90 142 90 154 84.5 c 128,-1,73
 166 79 166 79 168 79 c 1,74,75
 173 83 173 83 180.5 105.5 c 128,-1,76
 188 128 188 128 188 149 c 0,77,78
 188 197 188 197 140 311 c 0,79,80
 139 313 139 313 137 317.5 c 128,-1,81
 135 322 135 322 134.5 323 c 0,82,83
 131 330 131 330 130 330.5 c 128,-1,84
 129 331 129 331 126.5 332 c 128,-1,85
 124 333 124 333 121.5 333 c 2,86,-1
 115 333 l 1,0,-1
58 44 m 0,87,88
 58 34 58 34 67.5 25.5 c 128,-1,89
 77 17 77 17 90.5 17 c 128,-1,90
 104 17 104 17 117.5 24 c 0,91,92
 137.622641509 34.4339622642 137.622641509 34.4339622642 146 47 c 1,93,94
 143 51 143 51 123 57 c 128,-1,95
 103 63 103 63 86 63 c 0,96,97
 58 63 58 63 58 44 c 0,87,88
EndSplineSet
EndChar

StartChar: currency
Encoding: 164 164 102
Width: 527
GlyphClass: 2
Flags: HW
LayerCount: 2
Fore
SplineSet
27 26 m 128,-1,1
 20 34 20 34 20 45 c 128,-1,2
 20 56 20 56 38 74 c 2,3,-1
 106 143 l 1,4,5
 67 194 67 194 67 261 c 128,-1,6
 67 328 67 328 105 379 c 1,7,-1
 38 448 l 2,8,9
 20 466 20 466 20 478 c 128,-1,10
 20 490 20 490 28 497.5 c 128,-1,11
 36 505 36 505 47.5 505 c 128,-1,12
 59 505 59 505 77 487 c 2,13,-1
 146 418 l 1,14,15
 198 457 198 457 263 457 c 128,-1,16
 328 457 328 457 381 418 c 1,17,-1
 450 487 l 2,18,19
 467 504 467 504 479.5 504 c 128,-1,20
 492 504 492 504 499.5 496 c 128,-1,21
 507 488 507 488 507 477 c 128,-1,22
 507 466 507 466 489 448 c 2,23,-1
 420 378 l 1,24,25
 461 322 461 322 461 260.5 c 128,-1,26
 461 199 461 199 420 144 c 1,27,-1
 489 74 l 2,28,29
 507 56 507 56 507 44 c 128,-1,30
 507 32 507 32 498.5 24.5 c 128,-1,31
 490 17 490 17 479 17 c 128,-1,32
 468 17 468 17 450 35 c 2,33,-1
 381 104 l 1,34,35
 329 65 329 65 263 65 c 128,-1,36
 197 65 197 65 146 103 c 1,37,-1
 77 35 l 2,38,39
 60 18 60 18 47 18 c 128,-1,0
 34 18 34 18 27 26 c 128,-1,1
124 260 m 128,-1,41
 124 201 124 201 165 160.5 c 128,-1,42
 206 120 206 120 263 120 c 128,-1,43
 320 120 320 120 361.5 161.5 c 128,-1,44
 403 203 403 203 403 261 c 128,-1,45
 403 319 403 319 361.5 361.5 c 128,-1,46
 320 404 320 404 262.5 404 c 128,-1,47
 205 404 205 404 164.5 361.5 c 128,-1,40
 124 319 124 319 124 260 c 128,-1,41
EndSplineSet
EndChar

StartChar: yen
Encoding: 165 165 103
Width: 712
GlyphClass: 2
Flags: HW
LayerCount: 2
Fore
SplineSet
301 360 m 2,0,-1
 286 361 l 1,1,-1
 186 361 l 2,2,3
 170 361 170 361 166 366 c 128,-1,4
 162 371 162 371 162 381.5 c 128,-1,5
 162 392 162 392 163 395.5 c 0,6,7
 165.714285714 405 165.714285714 405 188 405 c 0,8,9
 279 405 279 405 279 407 c 128,-1,10
 279 409 279 409 265 431 c 2,11,-1
 167 577 l 2,12,13
 137 621 137 621 113 644 c 128,-1,14
 89 667 89 667 76 671 c 128,-1,15
 63 675 63 675 41.5 675 c 128,-1,16
 20 675 20 675 20 687 c 128,-1,17
 20 699 20 699 31.5 702 c 128,-1,18
 43 705 43 705 82 705 c 1,19,-1
 140 703 l 1,20,-1
 225 704 l 2,21,22
 275 704 275 704 275 692.5 c 128,-1,23
 275 681 275 681 254 673.5 c 128,-1,24
 233 666 233 666 233 656.5 c 128,-1,25
 233 647 233 647 239.5 631 c 128,-1,26
 246 615 246 615 252.5 605 c 128,-1,27
 259 595 259 595 272 576 c 128,-1,28
 285 557 285 557 302 530 c 128,-1,29
 319 503 319 503 354.5 454.5 c 128,-1,30
 390 406 390 406 395 406 c 2,31,-1
 403 406 l 2,32,33
 410 406 410 406 417 416.5 c 128,-1,34
 424 427 424 427 429.5 436 c 128,-1,35
 435 445 435 445 445 461.5 c 128,-1,36
 455 478 455 478 462 488.5 c 128,-1,37
 469 499 469 499 480.5 516 c 128,-1,38
 492 533 492 533 496.5 540 c 128,-1,39
 501 547 501 547 510 561.5 c 128,-1,40
 519 576 519 576 523 583.5 c 128,-1,41
 527 591 527 591 532.5 601.5 c 0,42,43
 542 619.636363636 542 619.636363636 542 635.818181818 c 128,-1,44
 542 652 542 652 530.5 662 c 128,-1,45
 519 672 519 672 505 672.5 c 0,46,47
 468 673.821428571 468 673.821428571 468 693 c 0,48,49
 468 705 468 705 496 705 c 2,50,-1
 537 704 l 1,51,-1
 643 703 l 2,52,53
 692 703 692 703 692 688 c 0,54,55
 692 684 692 684 686 681 c 128,-1,56
 680 678 680 678 669 673 c 128,-1,57
 658 668 658 668 649 661 c 0,58,59
 603 624 603 624 514 485 c 1,60,-1
 483 438 l 2,61,62
 478 431 478 431 472.5 424 c 0,63,64
 463 411.909090909 463 411.909090909 463 408.454545455 c 128,-1,65
 463 405 463 405 575 405 c 0,66,67
 589 405 589 405 589 383.5 c 128,-1,68
 589 362 589 362 575 362 c 2,69,70
 438 361 l 2,71,72
 430 361 430 361 425.5 355.5 c 0,73,74
 414 341.444444444 414 341.444444444 414 254 c 0,75,76
 414 246 414 246 415.5 243.5 c 128,-1,77
 417 241 417 241 423 241 c 2,78,-1
 437 242 l 1,79,-1
 562 242 l 2,80,81
 578 242 578 242 581.5 237.5 c 128,-1,82
 585 233 585 233 585 222 c 128,-1,83
 585 211 585 211 584 207 c 0,84,85
 581.5 197 581.5 197 560 197 c 2,86,-1
 431 196 l 2,87,88
 420 196 420 196 417 194 c 128,-1,89
 414 192 414 192 414 187 c 2,90,-1
 414 175.5 l 1,91,-1
 415 133 l 1,92,-1
 415 109 l 2,93,94
 415 76 415 76 426.5 56.5 c 128,-1,95
 438 37 438 37 448 33 c 128,-1,96
 458 29 458 29 468 29 c 1,97,-1
 488 25 l 1,98,99
 503 25 503 25 503 14 c 0,100,101
 503 0 503 0 485 0 c 2,102,-1
 388 1 l 1,103,-1
 269 -4 l 1,104,105
 244 -4 244 -4 244 8 c 0,106,107
 244 17 244 17 248.5 20 c 128,-1,108
 253 23 253 23 265.5 24 c 0,109,110
 326 28.84 326 28.84 326 89 c 1,111,-1
 327 126 l 2,112,113
 328 162 328 162 328 177.5 c 128,-1,114
 328 193 328 193 325 195 c 128,-1,115
 322 197 322 197 311 197 c 2,116,-1
 248 197 l 1,117,-1
 173 198 l 2,118,119
 159 198 159 198 159 219.5 c 128,-1,120
 159 241 159 241 172 241 c 2,121,-1
 307 241 l 2,122,123
 321 241 321 241 325 244 c 128,-1,124
 329 247 329 247 329 258 c 2,125,-1
 328 292 l 2,126,127
 328 318 328 318 321 338.5 c 128,-1,128
 314 359 314 359 301 360 c 2,0,-1
EndSplineSet
EndChar

StartChar: brokenbar
Encoding: 166 166 104
Width: 208
GlyphClass: 2
Flags: HW
LayerCount: 2
Fore
SplineSet
127 -8 m 1,0,-1
 128 -140 l 1,1,-1
 128 -171 l 2,2,3
 128 -209 128 -209 111 -209 c 0,4,5
 89 -209 89 -209 83.5 -199 c 128,-1,6
 78 -189 78 -189 78 -148 c 2,7,-1
 79 -82 l 1,8,-1
 80 176 l 2,9,10
 80 201 80 201 106 201 c 0,11,12
 119 201 119 201 123 195.5 c 128,-1,13
 127 190 127 190 127 176 c 2,14,-1
 127 -8 l 1,0,-1
83 414 m 2,15,-1
 83 738 l 2,16,17
 83 751 83 751 88.5 756.5 c 128,-1,18
 94 762 94 762 107.5 762 c 128,-1,19
 121 762 121 762 125.5 756.5 c 128,-1,20
 130 751 130 751 130 737 c 2,21,-1
 130 391 l 2,22,23
 130 353 130 353 114 353 c 0,24,25
 92 353 92 353 87.5 362.5 c 128,-1,26
 83 372 83 372 83 414 c 2,15,-1
EndSplineSet
EndChar

StartChar: section
Encoding: 167 167 105
Width: 542
GlyphClass: 2
Flags: HW
LayerCount: 2
Fore
SplineSet
394 693 m 1,0,-1
 417 700 l 1,1,2
 434 700 434 700 435 690 c 0,3,4
 455 559 455 559 455 555 c 0,5,6
 455 526 455 526 443 526 c 128,-1,7
 431 526 431 526 424 541 c 128,-1,8
 417 556 417 556 411.5 576.5 c 128,-1,9
 406 597 406 597 386 622.5 c 0,10,11
 338.549019608 683 338.549019608 683 249 683 c 0,12,13
 192 683 192 683 162.5 651 c 128,-1,14
 133 619 133 619 133 581.5 c 128,-1,15
 133 544 133 544 180 517 c 0,16,17
 203 504 203 504 247.5 488.5 c 128,-1,18
 292 473 292 473 329 458.5 c 128,-1,19
 366 444 366 444 403 422.5 c 0,20,21
 483 376.013513514 483 376.013513514 483 287 c 0,22,23
 483 229.307692308 483 229.307692308 464.5 198 c 0,24,25
 438.441441441 153.900900901 438.441441441 153.900900901 417 140.5 c 0,26,27
 407 134.25 407 134.25 407 131.125 c 128,-1,28
 407 128 407 128 416.5 123 c 128,-1,29
 426 118 426 118 441 103.5 c 128,-1,30
 456 89 456 89 467.5 60.5 c 128,-1,31
 479 32 479 32 479 9 c 0,32,33
 479 -79 479 -79 417 -130 c 128,-1,34
 355 -181 355 -181 260 -181 c 0,35,36
 215 -181 215 -181 182 -174 c 128,-1,37
 149 -167 149 -167 104 -143 c 0,38,39
 89 -135 89 -135 74.5 -68 c 128,-1,40
 60 -1 60 -1 60 19.5 c 128,-1,41
 60 40 60 40 74 40 c 128,-1,42
 88 40 88 40 93 28 c 0,43,44
 112.426229508 -23.8032786885 112.426229508 -23.8032786885 123.713114754 -40.4016393443 c 128,-1,45
 135 -57 135 -57 145 -70.5 c 128,-1,46
 155 -84 155 -84 168 -95.5 c 128,-1,47
 181 -107 181 -107 196 -116.5 c 0,48,49
 226.789473684 -136 226.789473684 -136 278.894736842 -136 c 128,-1,50
 331 -136 331 -136 377 -106.5 c 128,-1,51
 423 -77 423 -77 423 -23 c 0,52,53
 423 5 423 5 396 27 c 128,-1,54
 369 49 369 49 328.5 63 c 128,-1,55
 288 77 288 77 241 96 c 128,-1,56
 194 115 194 115 153.5 135.5 c 128,-1,57
 113 156 113 156 86 192 c 128,-1,58
 59 228 59 228 59 267.5 c 128,-1,59
 59 307 59 307 69.5 333.5 c 128,-1,60
 80 360 80 360 95 375.5 c 128,-1,61
 110 391 110 391 124.5 401.5 c 128,-1,62
 139 412 139 412 149.5 417.5 c 128,-1,63
 160 423 160 423 160 425.5 c 128,-1,64
 160 428 160 428 146 437 c 128,-1,65
 132 446 132 446 116 457 c 128,-1,66
 100 468 100 468 86 493.5 c 128,-1,67
 72 519 72 519 72 552 c 0,68,69
 72 625 72 625 127 672.5 c 128,-1,70
 182 720 182 720 264 720 c 0,71,72
 312 720 312 720 350.5 706.5 c 128,-1,73
 389 693 389 693 394 693 c 1,0,-1
154 376 m 128,-1,75
 119 348 119 348 119 303.5 c 128,-1,76
 119 259 119 259 177 225 c 1,77,78
 205 207 205 207 283 180 c 128,-1,79
 361 153 361 153 364 153 c 0,80,81
 379 153 379 153 403 185.5 c 128,-1,82
 427 218 427 218 427 253 c 0,83,84
 427 323 427 323 315 367 c 1,85,86
 218 404 218 404 203.5 404 c 128,-1,74
 189 404 189 404 154 376 c 128,-1,75
EndSplineSet
EndChar

StartChar: copyright
Encoding: 169 169 107
Width: 796
GlyphClass: 2
Flags: HW
LayerCount: 2
Fore
SplineSet
149 82.5 m 128,-1,1
 44 186 44 186 44 333.5 c 128,-1,2
 44 481 44 481 147.5 586.5 c 128,-1,3
 251 692 251 692 399.5 692 c 128,-1,4
 548 692 548 692 652 586.5 c 128,-1,5
 756 481 756 481 756 335.5 c 128,-1,6
 756 190 756 190 653 84.5 c 128,-1,7
 550 -21 550 -21 402 -21 c 128,-1,0
 254 -21 254 -21 149 82.5 c 128,-1,1
177 556.5 m 128,-1,9
 86 464 86 464 86 334 c 128,-1,10
 86 204 86 204 179 112.5 c 128,-1,11
 272 21 272 21 400 21 c 128,-1,12
 528 21 528 21 621 112 c 128,-1,13
 714 203 714 203 714 333 c 128,-1,14
 714 463 714 463 623 556 c 128,-1,15
 532 649 532 649 400 649 c 128,-1,8
 268 649 268 649 177 556.5 c 128,-1,9
164 322 m 0,16,17
 164 424 164 424 226.5 491.5 c 128,-1,18
 289 559 289 559 401 559 c 0,19,20
 439 559 439 559 477.5 548 c 128,-1,21
 516 537 516 537 538.5 526 c 128,-1,22
 561 515 561 515 562.5 515 c 128,-1,23
 564 515 564 515 567 518 c 128,-1,24
 570 521 570 521 574.5 521 c 128,-1,25
 579 521 579 521 582 519 c 128,-1,26
 585 517 585 517 586.5 510 c 128,-1,27
 588 503 588 503 588.5 495.5 c 0,28,29
 590.862068966 460.068965517 590.862068966 460.068965517 593.931034483 442.034482759 c 128,-1,30
 597 424 597 424 597 422 c 0,31,32
 597 407 597 407 584 407 c 0,33,34
 576 407 576 407 570 418 c 0,35,36
 511 525 511 525 401 525 c 0,37,38
 326 525 326 525 278 479 c 128,-1,39
 230 433 230 433 230 358 c 0,40,41
 230 287.512195122 230 287.512195122 269.5 222 c 0,42,43
 290 188 290 188 332 167 c 128,-1,44
 374 146 374 146 431 146 c 0,45,46
 511 146 511 146 567 225 c 0,47,48
 573 234 573 234 577.5 245 c 128,-1,49
 582 256 582 256 585 259.5 c 128,-1,50
 588 263 588 263 597 263 c 0,51,52
 604 263 604 263 604 255 c 0,53,54
 604 230 604 230 592 172 c 0,55,56
 590 162 590 162 579 158 c 1,57,58
 497.071428571 117.035714286 497.071428571 117.035714286 455 111.5 c 0,59,60
 436 109 436 109 415 109 c 0,61,62
 352 109 352 109 304.5 126 c 128,-1,63
 257 143 257 143 231 166.5 c 128,-1,64
 205 190 205 190 189 221.5 c 0,65,66
 164 270.71875 164 270.71875 164 322 c 0,16,17
EndSplineSet
EndChar

StartChar: ordfeminine
Encoding: 170 170 108
Width: 302
GlyphClass: 2
Flags: HW
LayerCount: 2
Fore
SplineSet
267 413 m 2,0,-1
 280 414 l 2,1,2
 288 414 288 414 288 404 c 0,3,4
 288 390 288 390 271 390 c 2,5,-1
 247 390 l 2,6,7
 230 390 230 390 217.5 400 c 128,-1,8
 205 410 205 410 199 420 c 2,9,-1
 193 430 l 2,10,11
 192 430 192 430 188 425.5 c 128,-1,12
 184 421 184 421 176.5 414.5 c 128,-1,13
 169 408 169 408 159 401.5 c 0,14,15
 135.153846154 386 135.153846154 386 107 386 c 0,16,17
 29 386 29 386 29 446 c 0,18,19
 29 475 29 475 51.5 493 c 128,-1,20
 74 511 74 511 95.5 516.5 c 128,-1,21
 117 522 117 522 146.5 527 c 128,-1,22
 176 532 176 532 179 533 c 0,23,24
 190 535 190 535 190 542 c 2,25,-1
 191 571 l 1,26,27
 191 605 191 605 171.5 620.5 c 128,-1,28
 152 636 152 636 133 636 c 0,29,30
 90 636 90 636 90 601 c 1,31,-1
 93 580 l 1,32,33
 93 568 93 568 79 568 c 0,34,35
 50 568 50 568 41.5 576.5 c 128,-1,36
 33 585 33 585 33 592 c 0,37,38
 33 617 33 617 67.5 638.5 c 128,-1,39
 102 660 102 660 141 660 c 128,-1,40
 180 660 180 660 203 652 c 128,-1,41
 226 644 226 644 234 629.5 c 0,42,43
 246 607.75 246 607.75 246 584 c 2,44,-1
 242 470 l 1,45,46
 242 435 242 435 248 424 c 128,-1,47
 254 413 254 413 267 413 c 2,0,-1
186 521 m 0,48,49
 174 519 174 519 161 517 c 128,-1,50
 148 515 148 515 131.5 510 c 128,-1,51
 115 505 115 505 108 500 c 0,52,53
 88 485.714285714 88 485.714285714 88 460 c 0,54,55
 88 417 88 417 134 417 c 0,56,57
 160 417 160 417 173.5 429 c 128,-1,58
 187 441 187 441 188.5 451 c 128,-1,59
 190 461 190 461 190 476 c 2,60,-1
 190 516 l 2,61,62
 190 521 190 521 186 521 c 0,48,49
EndSplineSet
EndChar

StartChar: logicalnot
Encoding: 172 172 110
Width: 527
GlyphClass: 2
Flags: HW
LayerCount: 2
Fore
SplineSet
34 193.5 m 128,-1,1
 31 199 31 199 31 215.5 c 128,-1,2
 31 232 31 232 50 232 c 2,3,-1
 477 232 l 2,4,5
 490 232 490 232 493.5 229 c 128,-1,6
 497 226 497 226 497 213 c 2,7,-1
 497 55 l 2,8,9
 497 40 497 40 481 40 c 0,10,11
 469 40 469 40 464.5 40.5 c 0,12,13
 452 41.8888888889 452 41.8888888889 452 60 c 2,14,-1
 452 171 l 2,15,16
 452 188 452 188 426 188 c 2,17,-1
 50 188 l 2,18,0
 37 188 37 188 34 193.5 c 128,-1,1
EndSplineSet
EndChar

StartChar: registered
Encoding: 174 174 112
Width: 478
GlyphClass: 2
Flags: HW
LayerCount: 2
Fore
SplineSet
90 398.5 m 128,-1,1
 29 460 29 460 29 547 c 128,-1,2
 29 634 29 634 90 695.5 c 128,-1,3
 151 757 151 757 238 757 c 128,-1,4
 325 757 325 757 387 695.5 c 128,-1,5
 449 634 449 634 449 547 c 128,-1,6
 449 460 449 460 387 398.5 c 128,-1,7
 325 337 325 337 238 337 c 128,-1,0
 151 337 151 337 90 398.5 c 128,-1,1
112 673 m 128,-1,9
 59 620 59 620 59 547 c 128,-1,10
 59 474 59 474 112 421.5 c 128,-1,11
 165 369 165 369 238 369 c 128,-1,12
 311 369 311 369 364.5 421.5 c 128,-1,13
 418 474 418 474 418 547 c 128,-1,14
 418 620 418 620 364.5 673 c 128,-1,15
 311 726 311 726 238 726 c 128,-1,8
 165 726 165 726 112 673 c 128,-1,9
163 529 m 1,16,-1
 164 625 l 2,17,18
 164 651 164 651 134 651 c 0,19,20
 123 651 123 651 123 658 c 0,21,22
 123 667 123 667 135 667 c 2,23,-1
 158 667 l 1,24,-1
 234 669 l 2,25,26
 271 669 271 669 296 653.5 c 128,-1,27
 321 638 321 638 321 605 c 0,28,29
 321 586 321 586 309.5 574.5 c 128,-1,30
 298 563 298 563 287 559 c 128,-1,31
 276 555 276 555 276 554 c 128,-1,32
 276 553 276 553 279.5 549 c 0,33,34
 294.666666667 531.666666667 294.666666667 531.666666667 303.333333333 515.833333333 c 128,-1,35
 312 500 312 500 335 469 c 0,36,37
 347 454 347 454 356 454 c 2,38,-1
 358 454 l 1,39,40
 361 455 361 455 364 455 c 128,-1,41
 367 455 367 455 367 450.5 c 128,-1,42
 367 446 367 446 361 440 c 128,-1,43
 355 434 355 434 341.5 434 c 128,-1,44
 328 434 328 434 314 442 c 128,-1,45
 300 450 300 450 272 497.5 c 128,-1,46
 244 545 244 545 236 547 c 1,47,-1
 211 547 l 2,48,49
 204 547 204 547 202.5 544 c 128,-1,50
 201 541 201 541 201 517 c 128,-1,51
 201 493 201 493 205 474.5 c 128,-1,52
 209 456 209 456 227 452.5 c 128,-1,53
 245 449 245 449 245 443.5 c 128,-1,54
 245 438 245 438 238 438 c 2,55,-1
 187 440 l 2,56,57
 176 440 176 440 159 439 c 2,58,-1
 142 438 l 2,59,60
 135 438 135 438 135 445 c 0,61,62
 135 449 135 449 147.5 452 c 128,-1,63
 160 455 160 455 161.5 468.5 c 128,-1,64
 163 482 163 482 163 505 c 2,65,-1
 163 529 l 1,16,-1
215 562 m 2,66,-1
 229 561 l 1,67,68
 259 561 259 561 270.5 570 c 128,-1,69
 282 579 282 579 282 599 c 128,-1,70
 282 619 282 619 266.5 635.5 c 128,-1,71
 251 652 251 652 218 652 c 0,72,73
 207 652 207 652 204 648 c 128,-1,74
 201 644 201 644 201 629 c 2,75,-1
 201 596 l 2,76,77
 201 576 201 576 203.5 569 c 128,-1,78
 206 562 206 562 215 562 c 2,66,-1
EndSplineSet
EndChar

StartChar: degree
Encoding: 176 176 114
Width: 259
GlyphClass: 2
Flags: HW
LayerCount: 2
Fore
SplineSet
59.5 679.5 m 128,-1,1
 89 713 89 713 134.5 713 c 128,-1,2
 180 713 180 713 205 677.5 c 128,-1,3
 230 642 230 642 230 600.5 c 128,-1,4
 230 559 230 559 192.5 531.5 c 128,-1,5
 155 504 155 504 127.5 504 c 128,-1,6
 100 504 100 504 78 516 c 128,-1,7
 56 528 56 528 46.5 547 c 0,8,9
 30 580 30 580 30 613 c 128,-1,0
 30 646 30 646 59.5 679.5 c 128,-1,1
91 651.5 m 128,-1,11
 72 634 72 634 72 608 c 128,-1,12
 72 582 72 582 88.5 565 c 128,-1,13
 105 548 105 548 131 548 c 0,14,15
 154.827586207 548 154.827586207 548 171.413793103 566.5 c 128,-1,16
 188 585 188 585 188 608 c 0,17,18
 188 669 188 669 131 669 c 0,19,10
 110 669 110 669 91 651.5 c 128,-1,11
EndSplineSet
EndChar

StartChar: plusminus
Encoding: 177 177 115
Width: 527
GlyphClass: 2
Flags: HW
LayerCount: 2
Fore
SplineSet
31 90 m 128,-1,1
 31 101 31 101 31.5 105.5 c 0,2,3
 32.7777777778 117 32.7777777778 117 49 117 c 2,4,-1
 478 117 l 2,5,6
 489 117 489 117 492.5 113 c 128,-1,7
 496 109 496 109 496 96.5 c 128,-1,8
 496 84 496 84 492.5 78.5 c 128,-1,9
 489 73 489 73 475 73 c 2,10,-1
 48 73 l 2,11,12
 39 73 39 73 35 76 c 128,-1,0
 31 79 31 79 31 90 c 128,-1,1
31 324 m 0,13,14
 31 346 31 346 49 346 c 2,15,-1
 230 346 l 2,16,17
 241 346 241 346 241 356 c 2,18,-1
 241 495 l 2,19,20
 241 510 241 510 258 510 c 128,-1,21
 275 510 275 510 280 507 c 128,-1,22
 285 504 285 504 285 493 c 2,23,-1
 285 357 l 2,24,25
 285 346 285 346 297 346 c 2,26,-1
 480 346 l 2,27,28
 496 346 496 346 496 331 c 0,29,30
 496 310.777777778 496 310.777777778 490.5 305.888888889 c 128,-1,31
 485 301 485 301 475 301 c 2,32,-1
 297 301 l 2,33,34
 285 301 285 301 285 284 c 2,35,-1
 285 152 l 2,36,37
 285 138 285 138 268.5 138 c 128,-1,38
 252 138 252 138 246.5 140.5 c 128,-1,39
 241 143 241 143 241 152 c 2,40,-1
 241 284 l 2,41,42
 241 294 241 294 238.5 297.5 c 128,-1,43
 236 301 236 301 225 301 c 2,44,-1
 48 301 l 2,45,46
 36 301 36 301 33.5 306 c 128,-1,47
 31 311 31 311 31 324 c 0,13,14
EndSplineSet
EndChar

